<svg width="50" height="50" viewBox="0 0 50 50" fill="none" xmlns="http://www.w3.org/2000/svg">
<g id="3586369-discount-price-sale-shop_107941 1">
<g id="Group">
<path id="Vector" d="M32.05 19.0503L16.95 31.0503C16.65 31.3003 16.55 31.8003 16.85 32.1003C17 32.3003 17.2 32.4003 17.45 32.4003C17.6 32.4003 17.8 32.3503 17.9 32.2503L33 20.2503C33.3 20.0003 33.4 19.5003 33.1 19.2003C32.85 18.8503 32.4 18.8003 32.05 19.0503Z" fill="#FF6969"/>
<path id="Vector_2" d="M21 24.4003C21.2 24.4003 21.4 24.4003 21.6 24.3503C23.65 24.0503 25.1 22.1003 24.75 20.0003C24.6 19.0003 24.05 18.1003 23.25 17.5003C22.45 16.9003 21.45 16.6503 20.45 16.8003C19.45 16.9503 18.55 17.5003 17.95 18.3003C17.35 19.1003 17.1 20.1003 17.25 21.1003C17.55 23.0503 19.2 24.4003 21 24.4003ZM20.65 18.3503C20.75 18.3503 20.9 18.3003 21 18.3003C22.1 18.3003 23.1 19.1003 23.25 20.2503C23.45 21.5003 22.6 22.6503 21.35 22.8503C20.1 23.0503 18.95 22.2003 18.75 20.9503C18.55 19.7003 19.45 18.5503 20.65 18.3503Z" fill="#FF6969"/>
<path id="Vector_3" d="M29 26.9004C26.9 26.9004 25.2 28.6004 25.2 30.7004C25.2 32.8004 26.9 34.5004 29 34.5004C31.1 34.5004 32.8 32.8004 32.8 30.7004C32.75 28.6004 31.05 26.9004 29 26.9004ZM29 32.9504C27.75 32.9504 26.7 31.9004 26.7 30.6504C26.7 29.4004 27.75 28.3504 29 28.3504C30.25 28.3504 31.3 29.4004 31.3 30.6504C31.25 31.9504 30.25 32.9504 29 32.9504Z" fill="#FF6969"/>
<path id="Vector_4" d="M47.7 25.1502C47.7 25.1002 47.75 25.0002 47.75 24.9502C47.75 22.8002 45.5 21.7002 43.55 20.7502C42.15 20.0502 40.65 19.3002 40.25 18.4002C39.85 17.4502 40.4 15.9002 40.95 14.4502C41.7 12.4002 42.45 10.3002 41.05 8.9002C39.65 7.5002 37.65 8.0002 35.65 8.4502C34.25 8.7502 32.8 9.1002 31.85 8.7002C30.9 8.3002 30.1 7.0502 29.35 5.8502C28.25 4.1502 27.05 2.2002 24.95 2.2002C22.85 2.2002 21.65 4.1502 20.6 5.9002C19.85 7.1502 19.1 8.4002 18.15 8.8002C17.2 9.2002 15.7 8.8502 14.3 8.5002C12.3 8.0002 10.25 7.5002 8.90001 8.8502C7.50001 10.2502 8.20001 12.3502 8.85001 14.4002C9.35001 15.9002 9.80001 17.4002 9.40001 18.4002C9.00001 19.3502 7.60001 20.0502 6.25001 20.7502C4.35001 21.7502 2.20001 22.8502 2.20001 24.9502C2.20001 25.0002 2.20001 25.1002 2.25001 25.1502C2.25001 25.2002 2.20001 25.3002 2.20001 25.3502C2.20001 27.4502 4.35001 28.6002 6.25001 29.5502C7.60001 30.2502 9.00001 30.9502 9.40001 31.9002C9.80001 32.8502 9.30001 34.4002 8.85001 35.9002C8.20001 37.9502 7.50001 40.0502 8.90001 41.4502C10.3 42.8502 12.35 42.3002 14.3 41.8002C15.7 41.4502 17.2 41.1002 18.15 41.5002C19.1 41.9002 19.85 43.1502 20.6 44.4002C21.65 46.1502 22.85 48.1002 24.95 48.1002C27.05 48.1002 28.3 46.1502 29.35 44.4502C30.1 43.2502 30.9 42.0002 31.85 41.6002C32.85 41.2002 34.25 41.5002 35.65 41.8502C37.6 42.3002 39.65 42.8002 41.05 41.4002C42.45 40.0002 41.7 37.9002 40.95 35.8502C40.4 34.3502 39.85 32.8502 40.25 31.9002C40.65 30.9502 42.1 30.2502 43.55 29.5502C45.5 28.5502 47.75 27.4502 47.75 25.3502C47.75 25.2502 47.7 25.2002 47.7 25.1502ZM42.85 28.2002C41.2 29.0502 39.45 29.9002 38.85 31.3502C38.2 32.8502 38.9 34.6502 39.5 36.4002C40.1 38.0502 40.7 39.6502 39.95 40.3502C39.15 41.1502 37.6 40.8002 35.95 40.4002C34.3 40.0002 32.65 39.6502 31.2 40.2502C29.8 40.8502 28.9 42.2502 28.05 43.6502C27.1 45.1502 26.2 46.6002 24.9 46.6002C23.65 46.6002 22.75 45.1502 21.8 43.6002C20.95 42.1502 20.05 40.7002 18.65 40.1002C17.2 39.5002 15.5 39.9002 13.85 40.3502C12.2 40.7502 10.65 41.1502 9.85001 40.4002C9.10001 39.6502 9.60001 38.0502 10.15 36.4002C10.7 34.6502 11.3 32.8502 10.65 31.4002C10.05 29.9502 8.40001 29.1002 6.80001 28.3002C5.15001 27.4502 3.60001 26.6502 3.60001 25.4002C3.60001 25.3502 3.60001 25.2502 3.55001 25.2002C3.55001 25.1502 3.60001 25.0502 3.60001 25.0002C3.60001 23.8002 5.15001 23.0002 6.80001 22.1002C8.40001 21.3002 10.05 20.4502 10.65 19.0002C11.25 17.5002 10.7 15.7002 10.15 14.0002C9.60001 12.3002 9.10001 10.7002 9.85001 10.0002C10.65 9.2002 12.2 9.6002 13.85 10.0502C15.5 10.4502 17.2 10.9002 18.65 10.3002C20.05 9.7002 20.95 8.2502 21.8 6.8002C22.75 5.2502 23.6 3.8002 24.9 3.8002C26.2 3.8002 27.1 5.2502 28.05 6.7502C28.95 8.1502 29.85 9.5502 31.2 10.1502C32.65 10.7502 34.3 10.3502 35.95 10.0002C37.6 9.6002 39.15 9.2502 39.95 10.0502C40.7 10.7502 40.1 12.3502 39.5 14.0002C38.85 15.7502 38.2 17.5502 38.85 19.0502C39.45 20.5002 41.2 21.3502 42.85 22.2002C44.6 23.0502 46.2 23.9002 46.2 25.1002C46.2 25.1502 46.2 25.2502 46.25 25.3002C46.25 25.3502 46.2 25.4502 46.2 25.5002C46.25 26.5002 44.6 27.3502 42.85 28.2002Z" fill="#FF6969"/>
</g>
</g>
</svg>
