<svg width="69" height="82" viewBox="0 0 69 82" fill="none" xmlns="http://www.w3.org/2000/svg">
<path d="M68.5 40.7005C68.5 62.7847 53.2071 80.5494 34.5 80.5494C15.7929 80.5494 0.5 62.7847 0.5 40.7005C0.5 18.6162 15.7929 0.851562 34.5 0.851562C53.2071 0.851562 68.5 18.6162 68.5 40.7005Z" stroke="#56575C"/>
<g clip-path="url(#clip0_614_60)">
<path d="M27.5 44.7937H36.5C36.777 44.7937 37 45.0545 37 45.3785C37 45.7024 36.777 45.9632 36.5 45.9632H27.5C27.223 45.9632 27 45.7024 27 45.3785C27 45.0545 27.223 44.7937 27.5 44.7937ZM32 47.1328C30.9 47.1328 30 48.1853 30 49.4718C30 50.7583 30.9 51.8109 32 51.8109C33.1 51.8109 34 50.7583 34 49.4718C34 48.1853 33.1 47.1328 32 47.1328ZM32 48.3023C32.558 48.3023 33 48.8192 33 49.4718C33 50.1244 32.558 50.6413 32 50.6413C31.442 50.6413 31 50.1244 31 49.4718C31 48.8192 31.442 48.3023 32 48.3023ZM32 38.946C30.9 38.946 30 39.9986 30 41.2851C30 42.5716 30.9 43.6242 32 43.6242C33.1 43.6242 34 42.5716 34 41.2851C34 39.9986 33.1 38.946 32 38.946ZM32 40.1156C32.558 40.1156 33 40.6325 33 41.2851C33 41.9377 32.558 42.4546 32 42.4546C31.442 42.4546 31 41.9377 31 41.2851C31 40.6325 31.442 40.1156 32 40.1156ZM44 28.4202C42.9 28.4202 42 29.4728 42 30.7593C42 32.0458 42.9 33.0984 44 33.0984C45.1 33.0984 46 32.0458 46 30.7593C46 29.4728 45.1 28.4202 44 28.4202ZM44 29.5898C44.558 29.5898 45 30.1067 45 30.7593C45 31.4119 44.558 31.9288 44 31.9288C43.442 31.9288 43 31.4119 43 30.7593C43 30.1067 43.442 29.5898 44 29.5898ZM19.446 43.2382C18.859 43.9165 18.863 45.0416 19.446 45.7223L31.206 59.476C31.786 60.1567 32.748 60.1625 33.329 59.476L47.855 42.2792C48.102 41.9868 48.387 41.7178 48.623 41.2781C48.858 40.8383 48.999 40.2606 48.999 39.4723V26.6659C48.999 25.7034 48.321 24.9116 47.499 24.9116H36.499C35.341 24.9116 34.675 25.6414 34.149 26.2507L19.446 43.2382ZM20.149 44.0709L34.85 27.0823C35.383 26.4671 35.658 26.0812 36.5 26.0812H47.5C47.785 26.0812 48 26.3314 48 26.6659V39.4746C48 40.1144 47.907 40.4161 47.776 40.6594C47.646 40.905 47.432 41.1202 47.146 41.4593L32.616 58.6515C32.419 58.8854 32.116 58.8854 31.913 58.6491L20.153 44.8954C19.95 44.658 19.948 44.3025 20.149 44.0709Z" fill="#FF6969"/>
</g>
<defs>
<clipPath id="clip0_614_60">
<rect width="30" height="35.086" fill="white" transform="translate(19 24.9116)"/>
</clipPath>
</defs>
</svg>
