<svg width="8" height="8" viewBox="0 0 8 8" fill="none" xmlns="http://www.w3.org/2000/svg">
<g id="angle-arrow-down_icon-icons.com_73683 (1) 1">
<g id="Group">
<path id="Vector" d="M7.92006 2.14817L7.51929 1.74742C7.46589 1.69391 7.40437 1.66724 7.33482 1.66724C7.26545 1.66724 7.20396 1.69391 7.15055 1.74742L4.00004 4.89777L0.849671 1.74751C0.796241 1.69399 0.734752 1.66732 0.665289 1.66732C0.595798 1.66732 0.534309 1.69399 0.480906 1.74751L0.0801884 2.14828C0.0266733 2.20169 0 2.26317 0 2.33267C0 2.4021 0.0267575 2.46359 0.0801884 2.51699L3.81566 6.25255C3.86906 6.30598 3.93058 6.33268 4.00004 6.33268C4.06951 6.33268 4.13091 6.30598 4.18428 6.25255L7.92006 2.51699C7.97347 2.46356 8 2.40207 8 2.33267C8 2.26317 7.97347 2.20169 7.92006 2.14817Z" fill="#DADADA"/>
</g>
</g>
</svg>
