<svg width="22" height="22" viewBox="0 0 22 22" fill="none" xmlns="http://www.w3.org/2000/svg">
<circle cx="11" cy="11" r="11" fill="#FF6969"/>
<g clip-path="url(#clip0_75_1622)">
<path d="M10.4297 5.95468L9.98884 6.39553C9.92998 6.45427 9.90063 6.52194 9.90063 6.59844C9.90063 6.67476 9.92998 6.7424 9.98884 6.80114L13.4542 10.2667L9.98893 13.7321C9.93007 13.7909 9.90073 13.8585 9.90073 13.9349C9.90073 14.0114 9.93007 14.079 9.98893 14.1378L10.4298 14.5785C10.4885 14.6374 10.5562 14.6667 10.6326 14.6667C10.709 14.6667 10.7766 14.6373 10.8354 14.5785L14.9445 10.4695C15.0033 10.4108 15.0326 10.3431 15.0326 10.2667C15.0326 10.1903 15.0033 10.1227 14.9445 10.064L10.8354 5.95468C10.7766 5.89593 10.709 5.86675 10.6326 5.86675C10.5562 5.86675 10.4885 5.89593 10.4297 5.95468Z" fill="white"/>
</g>
<defs>
<clipPath id="clip0_75_1622">
<rect width="8.8" height="8.8" fill="white" transform="matrix(0 -1 1 0 8.06665 14.6667)"/>
</clipPath>
</defs>
</svg>
