<svg width="87" height="103" viewBox="0 0 87 103" fill="none" xmlns="http://www.w3.org/2000/svg">
<g id="Group 218">
<ellipse id="Ellipse 7" cx="43.5" cy="51.7004" rx="43.5" ry="50.8747" fill="#FF7878"/>
<ellipse id="Ellipse 21" cx="43.5" cy="51.7005" rx="34.5" ry="40.3489" fill="white"/>
<g id="Black">
<path id="Vector" d="M47.6707 31.9683C47.3548 32.0854 47.1108 32.3363 45.4814 34.2185L43.6511 36.3348L43.2348 36.3766C42.7539 36.4352 42.1653 36.7196 41.8136 37.0876L41.5552 37.3469L36.1432 37.372L30.7312 37.3971L30.1929 37.623C29.109 38.083 28.2621 38.9614 27.7524 40.1324C26.8696 42.1818 27.1854 44.524 28.5563 46.1301C29.0373 46.6905 29.5684 47.0753 30.279 47.3764L30.803 47.6023L35.1312 47.6274L39.4521 47.6525V49.0327V50.4045H33.4946C27.6304 50.4045 27.5371 50.4045 27.3936 50.5718C27.25 50.7391 27.25 50.8479 27.25 55.6577C27.25 60.3253 27.2572 60.593 27.3792 60.7185C27.494 60.8356 27.6878 60.8607 28.6353 60.8607C29.7335 60.8607 29.755 60.8607 29.8053 61.0447C29.834 61.1534 29.9775 61.4713 30.1354 61.7557C30.7743 62.9352 31.8868 63.7716 33.1501 64.0226C33.7746 64.1481 33.8822 64.1481 34.5354 64.0226C35.9135 63.7549 37.1409 62.7679 37.7295 61.4295L37.9807 60.8607L44.6201 60.869H51.2595L51.4677 61.3877C51.7189 61.9983 52.5874 63.0606 53.1257 63.4036C53.3267 63.5291 53.7287 63.7298 54.0229 63.8469C54.9919 64.2401 56.3988 64.123 57.3175 63.5793C58.1789 63.0774 58.9541 62.174 59.356 61.212L59.5067 60.8607H61.6313C63.6052 60.8607 63.7703 60.8523 63.878 60.7101C63.9856 60.5763 64 60.3253 64 58.92C64 57.0044 64 57.0044 63.2822 56.9459L62.8516 56.9124V53.8425V50.7726L61.8036 46.8495C61.2294 44.6913 60.6839 42.7507 60.5906 42.5415C60.3106 41.8974 59.7795 41.1446 59.3129 40.7431C58.7746 40.2663 58.5162 40.1073 57.863 39.8564L57.3606 39.6556L52.731 39.6305C50.1829 39.6138 47.9937 39.6305 47.8645 39.6556C47.4123 39.756 47.4194 39.6975 47.4194 45.3438V50.4045H46.8165H46.2064L46.1849 48.33L46.1633 46.2555L45.8906 45.6031C45.5748 44.8586 45.0508 44.2061 44.5053 43.8632C43.7588 43.3947 43.6224 43.378 39.6531 43.378H36.014V42.4997V41.6214H38.7774H41.548L41.8208 41.8723C43.5219 43.4449 46.0126 42.324 46.2423 39.8815L46.2854 39.4047L48.0295 37.3553C49.0344 36.1758 49.8312 35.1637 49.9173 34.9713C50.3767 33.909 50.0178 32.604 49.1134 32.0687C48.733 31.8428 48.1229 31.801 47.6707 31.9683ZM48.6038 33.2147C48.9339 33.4071 49.1134 33.8671 48.9914 34.2435C48.9555 34.369 48.2521 35.2473 47.441 36.1926L45.9624 37.9241L45.7398 37.5811C45.6178 37.3888 45.381 37.1127 45.2159 36.9705L44.9216 36.7112L46.4433 34.9462C47.2759 33.9842 48.008 33.1728 48.0654 33.1477C48.2521 33.0725 48.3597 33.0892 48.6038 33.2147ZM44.1751 37.7401C45.1656 38.2169 45.4743 39.6724 44.7852 40.6092C44.3617 41.1864 43.8234 41.4206 43.242 41.2784C42.0146 40.9689 41.5552 39.1956 42.4381 38.1583C42.8831 37.6397 43.6152 37.464 44.1751 37.7401ZM32.4539 38.7355C33.4085 39.0283 34.1622 39.756 34.6144 40.8351C34.8656 41.4206 34.8943 41.5545 34.9158 42.2906C34.9445 42.9681 34.9158 43.2107 34.7938 43.6541C34.3918 45.0594 33.3654 46.0799 32.1021 46.3225C30.5733 46.6152 29.0085 45.4692 28.463 43.6624C28.2405 42.9263 28.2908 41.6883 28.5635 40.994C29.2885 39.1705 30.8676 38.2587 32.4539 38.7355ZM40.9236 39.4883V40.3667H38.2894H35.6623L35.4326 39.8982C35.3106 39.6389 35.0594 39.2374 34.8799 39.0199L34.5498 38.61H37.7367H40.9236V39.4883ZM57.6262 41.0944C58.466 41.4625 59.1694 42.1567 59.5642 43.01C59.7292 43.378 61.8467 51.1323 61.8467 51.3832C61.8467 51.4669 61.538 51.492 60.5403 51.492C59.4278 51.492 59.2196 51.5087 59.1048 51.6342C58.9899 51.7513 58.9756 51.9186 58.9756 53.2235C58.9756 55.1391 58.8536 55.0052 60.5547 55.0052H61.8467V55.9672V56.9292H60.6695H59.4852L59.2555 56.4273C58.1717 54.06 55.5016 53.0813 53.4128 54.2858C52.5515 54.7877 51.805 55.641 51.4174 56.5695L51.2667 56.9292H49.8814H48.4961V48.8989V40.8602L52.8602 40.8853C57.1309 40.9104 57.2242 40.9187 57.6262 41.0944ZM40.0335 45.1346C39.8828 45.4107 39.7105 45.8038 39.6603 46.013L39.567 46.3894H37.062H34.5569L34.8943 45.946C35.0809 45.7118 35.3321 45.3103 35.447 45.0677L35.6623 44.6328H37.9879H40.3135L40.0335 45.1346ZM43.8019 44.9172C44.2612 45.1681 44.6847 45.6449 44.9144 46.1886C45.0795 46.5818 45.0867 46.6822 45.1082 48.4973L45.1297 50.4045H42.8257H40.5145L40.5432 48.581C40.5647 46.8327 40.5719 46.7491 40.7513 46.3057C41.0743 45.4943 41.5337 45.0343 42.273 44.7499C42.675 44.5909 43.3281 44.6662 43.8019 44.9172ZM47.4912 54.2942V56.9292H42.7252H37.952L37.7151 56.4022C37.428 55.7664 36.6241 54.7961 36.0786 54.4448C34.7866 53.5916 33.2219 53.5414 31.8581 54.3026C31.1834 54.679 30.279 55.6912 29.9417 56.444L29.7263 56.9292H28.9942H28.2549V54.2942V51.6593H37.873H47.4912V54.2942ZM61.7749 53.2486V53.7505H60.9136H60.0522V53.2486V52.7467H60.9136H61.7749V53.2486ZM34.5139 55.0972C36.215 55.5071 37.4352 57.5231 37.1625 59.4721C37.0404 60.342 36.739 61.028 36.1935 61.6637C35.6551 62.2911 35.0737 62.6424 34.3488 62.7846C32.1955 63.2112 30.1713 60.8439 30.5374 58.3345C30.8676 56.1178 32.662 54.6455 34.5139 55.0972ZM56.1404 55.1307C58.0999 55.733 59.1766 58.0668 58.509 60.2751C58.0066 61.9397 56.3414 63.0941 54.8771 62.793C52.1352 62.2325 51.0729 58.4432 53.0181 56.1763C53.8722 55.1809 55.0207 54.7961 56.1404 55.1307ZM29.4392 58.8949V59.6059H28.8506H28.2549V58.8949V58.1839H28.8506H29.4392V58.8949ZM50.9509 58.8949L50.9293 59.6059H44.5986H38.2678V58.8949V58.1839H44.6201H50.9724L50.9509 58.8949ZM62.9305 58.2174C62.9449 58.2341 62.952 58.5603 62.9377 58.9284L62.909 59.6059H61.3514H59.7938L59.7867 58.8949V58.1839H61.3442C62.1984 58.1839 62.9162 58.2006 62.9305 58.2174Z" fill="#171920"/>
<path id="Vector_2" d="M30.9896 40.1243C30.1354 40.4171 29.5541 41.3289 29.5469 42.4079C29.5469 43.1441 29.6474 43.5121 29.9704 44.014C30.3651 44.6246 30.9178 44.9258 31.6284 44.9258C32.095 44.9258 32.2385 44.8923 32.5974 44.6748C33.9109 43.8885 34.1263 41.7638 33.0137 40.6179C32.5041 40.0992 31.6787 39.8985 30.9896 40.1243ZM32.0519 41.4125C32.4251 41.63 32.6333 42.0064 32.6333 42.4414C32.6333 43.6794 31.37 44.1478 30.7886 43.1357C30.5661 42.7509 30.5661 42.1486 30.7814 41.8308C31.1188 41.3205 31.6356 41.1532 32.0519 41.4125Z" fill="#171920"/>
<path id="Vector_3" d="M50.025 42.3742C49.7379 42.508 49.702 42.9011 49.7307 45.8539C49.7522 48.4471 49.7594 48.6395 49.8886 48.8068C50.025 48.9824 50.0393 48.9824 54.7551 48.9824C59.3847 48.9824 59.478 48.9824 59.6216 48.8151C59.7005 48.7231 59.7651 48.5474 59.7651 48.4303C59.7651 48.1376 58.71 44.181 58.5019 43.7125C58.2937 43.219 57.8774 42.7673 57.4324 42.5247C57.0735 42.3323 57.0591 42.3323 53.6282 42.3156C51.7046 42.3072 50.1111 42.3323 50.025 42.3742ZM57.0089 43.7209C57.1812 43.8129 57.3893 44.0137 57.4683 44.1726C57.5831 44.3901 58.4732 47.4935 58.4732 47.6775C58.4732 47.7026 56.7433 47.7277 54.6331 47.7277H50.793V45.6365V43.5452H53.7502C56.5926 43.5452 56.7146 43.5536 57.0089 43.7209Z" fill="#171920"/>
<path id="Vector_4" d="M42.4668 46.1386C42.3448 46.2808 42.3232 46.4147 42.3232 47.0504C42.3232 47.7614 42.3304 47.8116 42.5099 47.9705C42.7611 48.2048 43.0051 48.188 43.2205 47.9371C43.3784 47.7614 43.3999 47.661 43.3999 47.1006C43.3999 46.4899 43.3281 46.1637 43.1559 46.0382C42.9979 45.9128 42.6104 45.9713 42.4668 46.1386Z" fill="#171920"/>
<path id="Vector_5" d="M33.2793 56.5025C32.662 56.7367 32.2026 57.1884 31.9083 57.8493C31.772 58.1504 31.7361 58.3595 31.7361 58.8949C31.7361 59.9739 32.1237 60.7268 32.9061 61.1701C33.2434 61.3625 33.4085 61.4043 33.8535 61.396C34.5067 61.396 34.923 61.2036 35.3608 60.6933C35.7987 60.1831 35.9638 59.6979 35.9638 58.9367C35.9638 57.9078 35.569 57.1382 34.8153 56.7116C34.399 56.4774 33.6238 56.3687 33.2793 56.5025ZM34.1909 57.774C34.6718 57.9831 34.9804 58.6105 34.8799 59.1876C34.8225 59.5473 34.3775 60.066 34.0688 60.1329C33.5233 60.2667 32.9132 59.7816 32.8127 59.1542C32.6692 58.2591 33.4731 57.4561 34.1909 57.774Z" fill="#171920"/>
<path id="Vector_6" d="M54.6331 56.5692C54.0947 56.7867 53.499 57.5061 53.3339 58.1418C52.853 60.0909 54.3029 61.8726 55.9322 61.3205C57.418 60.8186 57.9851 58.8278 57.0448 57.3806C56.528 56.5776 55.4872 56.2346 54.6331 56.5692ZM55.9538 57.9076C56.6213 58.4932 56.5423 59.5806 55.803 60.0072C55.4083 60.2414 55.0566 60.1996 54.7336 59.8817C54.1306 59.2878 54.188 58.3259 54.8556 57.8658C55.1929 57.6399 55.6595 57.6567 55.9538 57.9076Z" fill="#171920"/>
</g>
</g>
</svg>
