<svg width="21" height="21" viewBox="0 0 21 21" fill="none" xmlns="http://www.w3.org/2000/svg">
<path d="M16.3154 12.9609H7.90184C7.76224 12.9611 7.62671 12.9138 7.51752 12.8268C7.40832 12.7399 7.33196 12.6183 7.30097 12.4822L5.88429 6.31018C5.86356 6.22002 5.86344 6.12635 5.88392 6.03613C5.90441 5.94592 5.94497 5.86149 6.0026 5.78912C6.06023 5.71675 6.13343 5.65831 6.21677 5.61814C6.3001 5.57798 6.39142 5.55712 6.48393 5.55713H17.7333C17.8259 5.55694 17.9174 5.57766 18.0009 5.61774C18.0843 5.65783 18.1577 5.71624 18.2155 5.78864C18.2732 5.86103 18.3139 5.94553 18.3345 6.03583C18.355 6.12614 18.3549 6.21992 18.3342 6.31018L16.915 12.4822C16.8841 12.6181 16.8079 12.7395 16.699 12.8265C16.59 12.9134 16.4548 12.9608 16.3154 12.9609ZM8.39157 11.7304H15.8257L16.9606 6.78883H7.25626L8.39157 11.7304Z" fill="#171920"/>
<path d="M9.10563 18.4571C8.63934 18.4571 8.18353 18.3188 7.79583 18.0598C7.40812 17.8007 7.10595 17.4325 6.92751 17.0017C6.74907 16.5709 6.70238 16.0969 6.79335 15.6396C6.88432 15.1823 7.10885 14.7622 7.43857 14.4325C7.76828 14.1027 8.18836 13.8782 8.64569 13.7872C9.10301 13.6963 9.57704 13.743 10.0078 13.9214C10.4386 14.0998 10.8068 14.402 11.0659 14.7897C11.3249 15.1774 11.4632 15.6332 11.4632 16.0995C11.4626 16.7246 11.214 17.3239 10.772 17.7659C10.33 18.2079 9.7307 18.4564 9.10563 18.4571ZM9.10563 14.9728C8.88269 14.9728 8.66476 15.0389 8.4794 15.1628C8.29403 15.2867 8.14957 15.4627 8.06427 15.6687C7.97898 15.8747 7.95668 16.1013 8.0002 16.32C8.04373 16.5386 8.15111 16.7395 8.30878 16.8971C8.46646 17.0547 8.66732 17.162 8.88599 17.2054C9.10465 17.2489 9.33129 17.2265 9.53724 17.1411C9.74318 17.0558 9.91918 16.9112 10.043 16.7258C10.1668 16.5404 10.2328 16.3225 10.2327 16.0995C10.2324 15.8007 10.1135 15.5143 9.90223 15.303C9.69091 15.0918 9.40442 14.973 9.10563 14.9728Z" fill="#171920"/>
<path d="M15.111 18.4571C14.6447 18.4571 14.1889 18.3188 13.8012 18.0598C13.4135 17.8007 13.1113 17.4325 12.9329 17.0017C12.7544 16.5709 12.7078 16.0969 12.7987 15.6396C12.8897 15.1823 13.1142 14.7622 13.4439 14.4325C13.7737 14.1027 14.1937 13.8782 14.6511 13.7872C15.1084 13.6963 15.5824 13.743 16.0132 13.9214C16.444 14.0998 16.8122 14.402 17.0713 14.7897C17.3303 15.1774 17.4686 15.6332 17.4686 16.0995C17.4679 16.7246 17.2193 17.3239 16.7773 17.7659C16.3353 18.2079 15.7361 18.4564 15.111 18.4571ZM15.111 14.9728C14.8881 14.9728 14.6701 15.0389 14.4848 15.1628C14.2994 15.2867 14.1549 15.4627 14.0696 15.6687C13.9843 15.8747 13.9621 16.1013 14.0056 16.32C14.0491 16.5386 14.1565 16.7395 14.3142 16.8971C14.4718 17.0547 14.6727 17.162 14.8914 17.2054C15.11 17.2489 15.3367 17.2265 15.5426 17.1411C15.7486 17.0558 15.9246 16.9112 16.0484 16.7258C16.1722 16.5404 16.2382 16.3225 16.2381 16.0995C16.2378 15.8007 16.1189 15.5143 15.9076 15.303C15.6963 15.0918 15.4098 14.973 15.111 14.9728Z" fill="#171920"/>
<path d="M6.48385 6.78768C6.3547 6.78766 6.22884 6.74701 6.12409 6.67149C6.01933 6.59596 5.941 6.48938 5.9002 6.36686L4.84568 3.19922H2.8999C2.73673 3.19922 2.58024 3.1344 2.46487 3.01902C2.34949 2.90364 2.28467 2.74715 2.28467 2.58398C2.28467 2.42081 2.34949 2.26433 2.46487 2.14895C2.58024 2.03357 2.73673 1.96875 2.8999 1.96875H5.29111C5.42026 1.96876 5.54612 2.00941 5.65087 2.08494C5.75563 2.16047 5.83396 2.26705 5.87477 2.38957L7.06955 5.97803C7.10035 6.0705 7.10874 6.16897 7.09402 6.26532C7.07931 6.36167 7.04191 6.45315 6.98492 6.53221C6.92792 6.61128 6.85296 6.67567 6.7662 6.72009C6.67944 6.7645 6.58337 6.78767 6.4859 6.78768H6.48385Z" fill="#171920"/>
</svg>
