<svg width="228" height="94" viewBox="0 0 228 94" fill="none" xmlns="http://www.w3.org/2000/svg">
<g id="Frame-7 1">
<path id="Vector" d="M23.0214 34.3117V20.1216H39.6837H56.3461L56.3211 34.2862L56.2963 48.4506H52.4249H48.5535L48.5043 38.2247L48.4553 27.9988H46.0542H43.6528L43.6038 38.2247L43.5549 48.4506H39.6835H35.812L35.7628 38.2247L35.7139 27.9988H33.3127H30.9113L30.8624 38.2247L30.8134 48.4506L26.9175 48.4763L23.0214 48.5018V34.3117Z" fill="#1E2A63"/>
<path id="Vector_2" d="M60.2654 20.1206V34.2455C60.2654 42.0136 60.2963 48.3979 60.3328 48.4346C60.3695 48.471 62.1226 48.4914 64.2289 48.4774L68.0575 48.4499L68.1065 44.5844L68.1554 40.7192H71.0467H73.938L73.987 44.5844L74.0362 48.4499H77.9076H81.7791L81.8035 34.2852L81.828 20.1206H71.0467H60.2654ZM68.1554 27.9981H71.0467H73.938V30.8846V33.7714L71.0681 33.7989C68.8106 33.8193 68.1901 33.7995 68.1524 33.7012C68.1258 33.6324 68.1166 32.32 68.1309 30.7869L68.1554 27.9981Z" fill="#1E2A63"/>
<path id="Vector_3" d="M85.8152 48.4356C85.7787 48.3989 85.7489 42.0136 85.7489 34.2455V20.1216H89.6685H93.5881L93.6134 25.4792L93.6386 30.8368H97.0201H100.402L100.427 25.4792L100.452 20.1216H104.372H108.292L108.267 34.2862L108.242 48.4509H104.371H100.5L100.451 43.1177L100.402 37.7845H97.0201H93.6386L93.5896 43.1177L93.5407 48.4509L89.7111 48.4763C87.605 48.4903 85.8519 48.472 85.8152 48.4356Z" fill="#1E2A63"/>
<path id="Vector_4" d="M112.278 48.4351C112.242 48.3987 112.212 42.0136 112.212 34.2455V20.1216H116.132H120.052L120.077 30.8612L120.102 41.6009L124.463 41.6497L128.825 41.6986V45.0747V48.4506L120.584 48.4758C116.052 48.4896 112.314 48.4712 112.278 48.4351Z" fill="#1E2A63"/>
<path id="Vector_5" d="M132.86 48.4348C132.824 48.3987 132.794 42.0136 132.794 34.2455V20.1216H141.617H150.439L150.413 23.522L150.387 26.9224L145.536 26.9716L140.684 27.0205V28.9286V30.8368L145.536 30.8856L150.387 30.9345V34.3107V37.6865L145.536 37.7357L140.684 37.7845V39.6927V41.6009L145.536 41.6497L150.387 41.6986V45.0747V48.4506L141.657 48.4758C136.855 48.4896 132.896 48.471 132.86 48.4348Z" fill="#1E2A63"/>
<path id="Vector_6" d="M62.982 70.1115L64.2524 64.1668H65.8137C66.184 64.1668 66.4972 64.2241 66.753 64.3384C67.0177 64.444 67.2337 64.5983 67.4015 64.8007C67.5691 65.0034 67.6882 65.2455 67.7586 65.5273C67.8381 65.8005 67.8777 66.1086 67.8777 66.4523C67.8777 66.9541 67.8027 67.4253 67.6527 67.8657C67.5117 68.3059 67.3 68.6934 67.0177 69.0282C66.7443 69.363 66.4002 69.627 65.9856 69.8207C65.5798 70.0145 65.1123 70.1115 64.5831 70.1115H62.982ZM62.5322 62.4229L60.5475 71.8552H64.4906C65.399 71.8552 66.1929 71.7098 66.8721 71.4193C67.5601 71.1286 68.1291 70.7278 68.579 70.2171C69.0378 69.6975 69.3818 69.0855 69.6111 68.3808C69.8404 67.6763 69.9552 66.9146 69.9552 66.0956C69.9552 64.9242 69.6198 64.0214 68.9496 63.3872C68.2791 62.7444 67.2778 62.4229 65.946 62.4229H62.5322Z" fill="black"/>
<path id="Vector_7" d="M71.6519 65.0252L70.236 71.8551H72.1018L72.7368 68.8298C72.7985 68.539 72.8779 68.2618 72.975 67.9975C73.0809 67.7246 73.2176 67.4822 73.3851 67.2709C73.5616 67.0596 73.7733 66.8923 74.0204 66.7689C74.2762 66.6456 74.5848 66.584 74.9464 66.584C75.0788 66.584 75.2112 66.5973 75.3435 66.6237C75.4759 66.65 75.608 66.6764 75.7404 66.7029L76.1242 64.8798C75.9301 64.8533 75.736 64.8403 75.5419 64.8403C75.039 64.8403 74.5715 64.9636 74.1393 65.21C73.7159 65.4478 73.3984 65.8045 73.1867 66.28L73.1602 66.2538L73.4382 65.0252H71.6519Z" fill="black"/>
<path id="Vector_8" d="M78.925 63.9685L79.269 62.4229H77.3767L77.0329 63.9685H78.925ZM76.8209 65.0255L75.3787 71.8552H77.2578L78.713 65.0255H76.8209Z" fill="black"/>
<path id="Vector_9" d="M82.4016 71.8553L86.1462 65.0254H84.1616L81.74 69.8868H81.7138L81.2901 65.0254H79.3585L80.2583 71.8553H82.4016Z" fill="black"/>
<path id="Vector_10" d="M91.115 67.7068H87.9792C88.0498 67.513 88.1334 67.3282 88.2306 67.152C88.3365 66.9758 88.4642 66.8218 88.6142 66.6897C88.7641 66.5575 88.9406 66.4519 89.1436 66.3727C89.3464 66.2933 89.5803 66.2538 89.8447 66.2538C90.1184 66.2538 90.3387 66.2979 90.5063 66.3859C90.6741 66.4651 90.8019 66.5751 90.8901 66.7162C90.9784 66.8569 91.0357 67.0156 91.062 67.1917C91.0974 67.359 91.115 67.5308 91.115 67.7068ZM87.7807 68.8957H92.822C92.8924 68.5171 92.9278 68.1604 92.9278 67.8257C92.9278 67.3325 92.8483 66.901 92.6896 66.5311C92.5397 66.1525 92.3234 65.8399 92.0413 65.5932C91.7677 65.3378 91.4326 65.1484 91.0357 65.0252C90.6476 64.9019 90.2153 64.8403 89.7389 64.8403C89.1566 64.8403 88.632 64.9592 88.1643 65.197C87.6968 65.4259 87.3 65.7385 86.9736 66.1349C86.656 66.5224 86.4089 66.9715 86.2327 67.4822C86.0562 67.9843 85.968 68.5082 85.968 69.0543C85.968 69.5475 86.0386 69.979 86.1796 70.3489C86.3296 70.7188 86.5369 71.0315 86.8017 71.2868C87.0661 71.5335 87.3836 71.7184 87.7542 71.8418C88.1334 71.9651 88.5525 72.0267 89.0113 72.0267C89.5053 72.0267 89.9373 71.9783 90.3079 71.8813C90.6871 71.7845 91.0179 71.6392 91.3002 71.4454C91.5825 71.2428 91.8251 70.9963 92.0281 70.7056C92.2308 70.4151 92.4073 70.076 92.5573 69.6885H90.6784C90.6078 69.7942 90.5285 69.9041 90.4402 70.0187C90.3609 70.1333 90.2637 70.2346 90.1492 70.3227C90.0434 70.4105 89.9154 70.4854 89.7654 70.5472C89.6244 70.5999 89.4612 70.6264 89.2757 70.6264C88.7641 70.6264 88.3849 70.5032 88.138 70.2565C87.8909 70.0098 87.7675 69.6885 87.7675 69.2921V69.1205C87.7675 69.0851 87.7675 69.05 87.7675 69.0146C87.7675 68.9795 87.7718 68.9397 87.7807 68.8957Z" fill="black"/>
<path id="Vector_11" d="M94.7037 65.0252L93.288 71.8551H95.1535L95.9209 68.2221C95.974 67.9843 96.049 67.7508 96.1459 67.5219C96.2517 67.2931 96.3797 67.0904 96.5297 66.9142C96.6883 66.738 96.8737 66.5973 97.0854 66.4916C97.306 66.377 97.5572 66.3198 97.8396 66.3198C98.0602 66.3198 98.2629 66.3859 98.4483 66.5178C98.6424 66.65 98.7393 66.8175 98.7393 67.0199C98.7393 67.1169 98.7217 67.2533 98.6865 67.4295C98.66 67.6057 98.6378 67.7465 98.6202 67.8521L97.7868 71.8551H99.6656L100.512 67.8521C100.521 67.7905 100.534 67.7113 100.552 67.6144C100.579 67.5087 100.601 67.3987 100.618 67.2841C100.645 67.1696 100.667 67.0596 100.684 66.9539C100.702 66.8394 100.711 66.747 100.711 66.6764C100.711 65.4524 100.045 64.8403 98.7128 64.8403C97.725 64.8403 96.9265 65.2189 96.318 65.9763H96.2915L96.5032 65.0252H94.7037Z" fill="black"/>
<path id="Vector_12" d="M107.018 62.4229L105.047 71.8552H106.766L106.991 70.7851H107.018C107.185 71.2607 107.463 71.5866 107.852 71.7628C108.248 71.9389 108.685 72.027 109.161 72.027C109.744 72.027 110.255 71.9038 110.696 71.6571C111.137 71.4104 111.508 71.0891 111.808 70.6927C112.108 70.2877 112.333 69.8297 112.483 69.319C112.632 68.7993 112.707 68.2751 112.707 67.7468C112.707 67.3505 112.659 66.9762 112.562 66.6239C112.474 66.2715 112.328 65.9634 112.125 65.6992C111.931 65.4349 111.68 65.2279 111.371 65.0782C111.062 64.9196 110.687 64.8404 110.246 64.8404C109.797 64.8404 109.417 64.9153 109.108 65.065C108.809 65.206 108.513 65.4349 108.222 65.7519H108.195L108.897 62.4229H107.018ZM109.492 66.2539C109.977 66.2539 110.321 66.3993 110.524 66.69C110.727 66.9805 110.829 67.3415 110.829 67.7733C110.829 68.0638 110.789 68.3765 110.71 68.7112C110.639 69.0458 110.52 69.3584 110.352 69.6492C110.194 69.931 109.986 70.1642 109.73 70.3493C109.483 70.5341 109.179 70.6268 108.817 70.6268C108.385 70.6268 108.05 70.4946 107.812 70.2304C107.574 69.9575 107.455 69.6094 107.455 69.1868C107.455 68.8874 107.49 68.5659 107.56 68.2224C107.64 67.879 107.759 67.5618 107.918 67.2713C108.085 66.9805 108.297 66.7384 108.553 66.5447C108.809 66.3509 109.122 66.2539 109.492 66.2539Z" fill="black"/>
<path id="Vector_13" d="M116.112 72.8064L120.466 65.0254H118.481L116.112 69.9133H116.086L115.49 65.0254H113.559L114.776 71.7891C114.714 71.8685 114.652 71.9609 114.591 72.0666C114.538 72.1723 114.467 72.2693 114.379 72.3573C114.3 72.4541 114.194 72.5333 114.061 72.5951C113.929 72.6654 113.753 72.7008 113.532 72.7008C113.409 72.7008 113.285 72.6875 113.162 72.6611C113.029 72.6346 112.902 72.6214 112.778 72.6214L112.46 74.1802C112.628 74.1891 112.796 74.2024 112.963 74.2199C113.131 74.2375 113.294 74.2464 113.453 74.2464C113.806 74.2464 114.11 74.2243 114.366 74.1802C114.63 74.1451 114.864 74.0746 115.067 73.9689C115.27 73.8633 115.455 73.7136 115.623 73.5198C115.79 73.3347 115.954 73.0969 116.112 72.8064Z" fill="black"/>
<path id="Vector_14" d="M125.016 65.0252L123.057 74.2462H124.923L125.637 70.9434H125.677C125.748 71.1285 125.849 71.2914 125.981 71.4322C126.123 71.5643 126.277 71.6746 126.445 71.7624C126.621 71.8505 126.806 71.9167 127 71.9607C127.203 72.0048 127.402 72.0267 127.596 72.0267C128.231 72.0267 128.778 71.8991 129.236 71.6435C129.704 71.3881 130.092 71.049 130.401 70.6264C130.71 70.2038 130.939 69.7236 131.089 69.1864C131.239 68.6493 131.314 68.0988 131.314 67.5352C131.314 66.7072 131.089 66.0512 130.639 65.5667C130.189 65.0824 129.55 64.8403 128.72 64.8403C128.297 64.8403 127.9 64.9238 127.53 65.0911C127.168 65.2586 126.881 65.5272 126.67 65.8971L126.643 65.8707L126.828 65.0252H125.016ZM128.098 66.2538C128.319 66.2538 128.513 66.2979 128.681 66.3859C128.848 66.4651 128.985 66.5751 129.091 66.7162C129.206 66.8483 129.289 67.0066 129.342 67.1917C129.404 67.3766 129.435 67.5703 129.435 67.773C129.435 68.0724 129.395 68.3893 129.316 68.7241C129.236 69.0586 129.113 69.367 128.945 69.6488C128.778 69.9306 128.566 70.1641 128.31 70.3489C128.054 70.534 127.746 70.6264 127.384 70.6264C126.925 70.6264 126.586 70.4943 126.365 70.23C126.145 69.9571 126.034 69.5961 126.034 69.1467C126.034 68.8562 126.074 68.5436 126.153 68.2088C126.242 67.8654 126.37 67.5484 126.537 67.2577C126.714 66.9672 126.93 66.7294 127.185 66.5443C127.441 66.3506 127.746 66.2538 128.098 66.2538Z" fill="black"/>
<path id="Vector_15" d="M137.193 67.7068H134.057C134.127 67.513 134.211 67.3282 134.308 67.152C134.414 66.9758 134.542 66.8218 134.692 66.6897C134.842 66.5575 135.019 66.4519 135.221 66.3727C135.424 66.2933 135.658 66.2538 135.923 66.2538C136.196 66.2538 136.417 66.2979 136.584 66.3859C136.752 66.4651 136.88 66.5751 136.968 66.7162C137.056 66.8569 137.113 67.0156 137.14 67.1917C137.175 67.359 137.193 67.5308 137.193 67.7068ZM133.859 68.8957H138.9C138.97 68.5171 139.006 68.1604 139.006 67.8257C139.006 67.3325 138.926 66.901 138.768 66.5311C138.618 66.1525 138.401 65.8399 138.119 65.5932C137.846 65.3378 137.511 65.1484 137.113 65.0252C136.726 64.9019 136.293 64.8403 135.817 64.8403C135.235 64.8403 134.71 64.9592 134.242 65.197C133.775 65.4259 133.378 65.7385 133.052 66.1349C132.734 66.5224 132.487 66.9715 132.31 67.4822C132.134 67.9843 132.046 68.5082 132.046 69.0543C132.046 69.5475 132.116 69.979 132.258 70.3489C132.408 70.7188 132.615 71.0315 132.879 71.2868C133.144 71.5335 133.462 71.7184 133.832 71.8418C134.211 71.9651 134.63 72.0267 135.089 72.0267C135.583 72.0267 136.015 71.9783 136.386 71.8813C136.765 71.7845 137.096 71.6392 137.378 71.4454C137.66 71.2428 137.903 70.9963 138.106 70.7056C138.309 70.4151 138.485 70.076 138.635 69.6885H136.756C136.686 69.7942 136.606 69.9041 136.518 70.0187C136.439 70.1333 136.342 70.2346 136.227 70.3227C136.121 70.4105 135.993 70.4854 135.843 70.5472C135.702 70.5999 135.539 70.6264 135.354 70.6264C134.842 70.6264 134.463 70.5032 134.216 70.2565C133.969 70.0098 133.845 69.6885 133.845 69.2921V69.1205C133.845 69.0851 133.845 69.05 133.845 69.0146C133.845 68.9795 133.85 68.9397 133.859 68.8957Z" fill="black"/>
<path id="Vector_16" d="M140.498 65.0252L139.082 71.8551H140.948L141.583 68.8298C141.645 68.539 141.724 68.2618 141.821 67.9975C141.927 67.7246 142.064 67.4822 142.231 67.2709C142.408 67.0596 142.619 66.8923 142.866 66.7689C143.122 66.6456 143.431 66.584 143.792 66.584C143.925 66.584 144.057 66.5973 144.189 66.6237C144.322 66.65 144.454 66.6764 144.586 66.7029L144.97 64.8798C144.776 64.8533 144.582 64.8403 144.388 64.8403C143.885 64.8403 143.418 64.9636 142.985 65.21C142.562 65.4478 142.244 65.8045 142.033 66.28L142.006 66.2538L142.284 65.0252H140.498Z" fill="black"/>
<path id="Vector_17" d="M146.34 66.2805L145.163 71.8553H147.042L148.219 66.2805H149.569L149.833 65.0254H148.497C148.55 64.823 148.594 64.6468 148.629 64.4971C148.665 64.3385 148.713 64.2063 148.775 64.1007C148.845 63.9861 148.943 63.9026 149.066 63.8497C149.19 63.788 149.37 63.7572 149.609 63.7572C149.706 63.7572 149.807 63.7616 149.913 63.7705C150.019 63.7794 150.12 63.788 150.217 63.797L150.508 62.4494C150.306 62.4143 150.098 62.3878 149.887 62.3702C149.684 62.3527 149.481 62.3438 149.278 62.3438C148.784 62.3438 148.382 62.401 148.074 62.5153C147.774 62.6299 147.531 62.8018 147.346 63.0306C147.161 63.2598 147.015 63.5416 146.909 63.8761C146.803 64.202 146.707 64.5852 146.618 65.0254H145.494L145.229 66.2805H146.34Z" fill="black"/>
<path id="Vector_18" d="M151.601 69.094C151.601 68.8033 151.64 68.4952 151.72 68.1694C151.799 67.8346 151.918 67.5263 152.077 67.2444C152.236 66.9626 152.439 66.7294 152.686 66.5443C152.942 66.3506 153.242 66.2538 153.586 66.2538C154.088 66.2538 154.441 66.3903 154.644 66.6632C154.856 66.9364 154.961 67.3017 154.961 67.7597C154.961 68.0505 154.922 68.3631 154.843 68.6976C154.763 69.0324 154.64 69.3451 154.472 69.6355C154.313 69.9174 154.106 70.1552 153.85 70.3489C153.603 70.534 153.303 70.6264 152.95 70.6264C152.73 70.6264 152.536 70.5867 152.368 70.5075C152.2 70.4194 152.059 70.3049 151.945 70.1641C151.83 70.023 151.742 69.8601 151.68 69.6753C151.627 69.4902 151.601 69.2964 151.601 69.094ZM149.722 69.094C149.722 70.0717 150.004 70.8069 150.569 71.3001C151.142 71.7845 151.905 72.0267 152.858 72.0267C153.484 72.0267 154.04 71.9167 154.525 71.6965C155.019 71.4762 155.438 71.1725 155.782 70.785C156.126 70.3975 156.386 69.9439 156.563 69.4242C156.748 68.8957 156.841 68.3323 156.841 67.7332C156.841 67.2401 156.761 66.8129 156.602 66.4519C156.452 66.0909 156.236 65.7915 155.954 65.5537C155.672 65.3159 155.332 65.1397 154.935 65.0252C154.547 64.9019 154.119 64.8403 153.652 64.8403C153.043 64.8403 152.496 64.9546 152.011 65.1838C151.526 65.4037 151.111 65.7077 150.767 66.0952C150.432 66.4827 150.172 66.9364 149.987 67.456C149.81 67.9667 149.722 68.5128 149.722 69.094Z" fill="black"/>
<path id="Vector_19" d="M158.716 65.0252L157.3 71.8551H159.166L159.801 68.8298C159.863 68.539 159.942 68.2618 160.039 67.9975C160.145 67.7246 160.282 67.4822 160.449 67.2709C160.626 67.0596 160.837 66.8923 161.085 66.7689C161.34 66.6456 161.649 66.584 162.011 66.584C162.143 66.584 162.275 66.5973 162.408 66.6237C162.54 66.65 162.672 66.6764 162.804 66.7029L163.188 64.8798C162.994 64.8533 162.8 64.8403 162.606 64.8403C162.103 64.8403 161.636 64.9636 161.204 65.21C160.78 65.4478 160.463 65.8045 160.251 66.28L160.224 66.2538L160.502 65.0252H158.716Z" fill="black"/>
<path id="Vector_20" d="M163.859 65.0252L162.443 71.8551H164.309L165.076 68.1956C165.12 67.9843 165.191 67.7686 165.288 67.5484C165.385 67.3282 165.504 67.1301 165.645 66.9539C165.795 66.7689 165.967 66.6192 166.161 66.5048C166.364 66.3814 166.589 66.3198 166.836 66.3198C167.074 66.3198 167.268 66.3903 167.418 66.5311C167.577 66.6721 167.656 66.8437 167.656 67.0464C167.656 67.1961 167.639 67.359 167.603 67.5352L166.703 71.8551H168.596L169.363 68.1956C169.407 67.9843 169.478 67.7686 169.575 67.5484C169.672 67.3282 169.791 67.1301 169.932 66.9539C170.082 66.7689 170.254 66.6192 170.448 66.5048C170.651 66.3814 170.876 66.3198 171.123 66.3198C171.361 66.3198 171.555 66.3903 171.705 66.5311C171.864 66.6721 171.943 66.8437 171.943 67.0464C171.943 67.1961 171.926 67.359 171.89 67.5352L170.991 71.8551H172.869L173.716 67.8389C173.76 67.6365 173.804 67.4295 173.848 67.2182C173.893 66.998 173.915 66.7821 173.915 66.5708C173.915 66.28 173.857 66.0247 173.743 65.8045C173.628 65.5845 173.474 65.4037 173.279 65.263C173.085 65.1222 172.86 65.0163 172.605 64.946C172.358 64.8755 172.102 64.8403 171.837 64.8403C171.617 64.8403 171.392 64.8711 171.162 64.9327C170.942 64.9854 170.73 65.0649 170.527 65.1705C170.325 65.2762 170.135 65.4037 169.958 65.5537C169.782 65.6945 169.637 65.8531 169.522 66.0293C169.443 65.6064 169.253 65.3027 168.953 65.1176C168.653 64.9327 168.291 64.8403 167.868 64.8403C167.365 64.8403 166.911 64.9327 166.505 65.1176C166.099 65.3027 165.755 65.5932 165.473 65.9896H165.447L165.658 65.0252H163.859Z" fill="black"/>
<path id="Vector_21" d="M175.374 67.0993H177.133C177.195 66.7556 177.358 66.5048 177.623 66.3462C177.887 66.179 178.187 66.0952 178.523 66.0952C178.646 66.0952 178.774 66.1084 178.906 66.1349C179.047 66.1525 179.175 66.1922 179.29 66.2538C179.414 66.3154 179.515 66.3989 179.594 66.5048C179.674 66.6105 179.714 66.7513 179.714 66.9275C179.714 67.1477 179.66 67.3149 179.555 67.4295C179.449 67.5352 179.286 67.6189 179.065 67.6805C178.854 67.7332 178.584 67.773 178.258 67.7994C177.932 67.8257 177.548 67.8654 177.107 67.9183C176.278 68.0151 175.634 68.2618 175.175 68.6579C174.725 69.0543 174.5 69.5828 174.5 70.2433C174.5 70.481 174.544 70.7102 174.632 70.9301C174.721 71.1417 174.857 71.3309 175.043 71.4984C175.228 71.6567 175.457 71.7845 175.731 71.8813C176.013 71.9783 176.339 72.0267 176.71 72.0267C177.107 72.0267 177.491 71.9607 177.861 71.8286C178.232 71.6875 178.545 71.4719 178.8 71.1812V71.8551H180.679C180.635 71.7054 180.613 71.5732 180.613 71.4587C180.613 71.3265 180.618 71.1725 180.627 70.9963C180.644 70.8112 180.671 70.6572 180.706 70.534L181.315 67.7862C181.412 67.3458 181.46 66.9626 181.46 66.6367C181.469 66.2492 181.381 65.9412 181.196 65.712C181.019 65.4743 180.79 65.2938 180.507 65.1705C180.225 65.0384 179.916 64.9503 179.581 64.9063C179.246 64.8622 178.924 64.8403 178.615 64.8403C178.227 64.8403 177.852 64.8798 177.491 64.9592C177.129 65.0295 176.803 65.153 176.512 65.3289C176.22 65.5051 175.973 65.7385 175.77 66.0293C175.568 66.3111 175.435 66.6678 175.374 67.0993ZM179.343 68.5787L179.158 69.2394C179.105 69.4242 179.039 69.6093 178.959 69.7942C178.88 69.979 178.77 70.1465 178.629 70.2962C178.496 70.437 178.329 70.5559 178.126 70.6529C177.932 70.741 177.689 70.785 177.398 70.785C177.124 70.785 176.882 70.7232 176.67 70.5999C176.467 70.4678 176.366 70.2741 176.366 70.0187C176.366 69.8074 176.406 69.6355 176.485 69.5034C176.564 69.3626 176.666 69.2524 176.789 69.1732C176.922 69.094 177.072 69.0367 177.239 69.0016C177.407 68.9576 177.579 68.9268 177.755 68.9089C178.029 68.8914 178.302 68.8695 178.576 68.843C178.849 68.8079 179.105 68.7198 179.343 68.5787Z" fill="black"/>
<path id="Vector_22" d="M183.448 65.0252L182.032 71.8551H183.898L184.665 68.2221C184.718 67.9843 184.793 67.7508 184.89 67.5219C184.996 67.2931 185.124 67.0904 185.274 66.9142C185.432 66.738 185.617 66.5973 185.829 66.4916C186.05 66.377 186.301 66.3198 186.584 66.3198C186.804 66.3198 187.007 66.3859 187.192 66.5178C187.386 66.65 187.483 66.8175 187.483 67.0199C187.483 67.1169 187.466 67.2533 187.43 67.4295C187.404 67.6057 187.382 67.7465 187.364 67.8521L186.531 71.8551H188.409L189.256 67.8521C189.265 67.7905 189.278 67.7113 189.296 67.6144C189.322 67.5087 189.345 67.3987 189.362 67.2841C189.389 67.1696 189.411 67.0596 189.428 66.9539C189.446 66.8394 189.455 66.747 189.455 66.6764C189.455 65.4524 188.789 64.8403 187.457 64.8403C186.469 64.8403 185.671 65.2189 185.062 65.9763H185.036L185.247 65.0252H183.448Z" fill="black"/>
<path id="Vector_23" d="M195.453 67.3898H197.332C197.323 66.9407 197.235 66.5532 197.067 66.2273C196.908 65.9015 196.688 65.6372 196.406 65.4348C196.132 65.2321 195.81 65.0824 195.44 64.9854C195.069 64.8887 194.677 64.8403 194.262 64.8403C193.645 64.8403 193.098 64.9546 192.621 65.1838C192.145 65.4037 191.739 65.712 191.404 66.1084C191.078 66.4959 190.826 66.9494 190.65 67.469C190.482 67.9799 190.399 68.526 190.399 69.1073C190.399 70.1111 190.663 70.851 191.193 71.3265C191.731 71.7932 192.48 72.0267 193.442 72.0267C194.341 72.0267 195.083 71.7978 195.665 71.3398C196.256 70.8731 196.692 70.2124 196.975 69.3583H195.096C195.043 69.5256 194.972 69.6885 194.884 69.8469C194.805 69.9968 194.699 70.1287 194.566 70.2433C194.443 70.3578 194.298 70.4502 194.13 70.5208C193.971 70.5913 193.786 70.6264 193.574 70.6264C193.336 70.6264 193.133 70.5867 192.966 70.5075C192.807 70.4283 192.674 70.3227 192.568 70.1906C192.463 70.0584 192.388 69.9041 192.344 69.7282C192.299 69.5431 192.277 69.3494 192.277 69.1467C192.277 68.8562 192.308 68.5436 192.37 68.2088C192.441 67.8654 192.551 67.5484 192.701 67.2577C192.851 66.9672 193.049 66.7294 193.296 66.5443C193.543 66.3506 193.843 66.2538 194.196 66.2538C194.619 66.2538 194.933 66.3419 195.135 66.5178C195.347 66.694 195.453 66.9848 195.453 67.3898Z" fill="black"/>
<path id="Vector_24" d="M202.911 67.7068H199.775C199.846 67.513 199.929 67.3282 200.026 67.152C200.132 66.9758 200.26 66.8218 200.41 66.6897C200.56 66.5575 200.736 66.4519 200.939 66.3727C201.142 66.2933 201.376 66.2538 201.64 66.2538C201.914 66.2538 202.134 66.2979 202.302 66.3859C202.47 66.4651 202.598 66.5751 202.686 66.7162C202.774 66.8569 202.831 67.0156 202.858 67.1917C202.893 67.359 202.911 67.5308 202.911 67.7068ZM199.577 68.8957H204.618C204.688 68.5171 204.724 68.1604 204.724 67.8257C204.724 67.3325 204.644 66.901 204.485 66.5311C204.335 66.1525 204.119 65.8399 203.837 65.5932C203.564 65.3378 203.228 65.1484 202.831 65.0252C202.443 64.9019 202.011 64.8403 201.535 64.8403C200.953 64.8403 200.428 64.9592 199.96 65.197C199.493 65.4259 199.096 65.7385 198.769 66.1349C198.452 66.5224 198.205 66.9715 198.028 67.4822C197.852 67.9843 197.764 68.5082 197.764 69.0543C197.764 69.5475 197.834 69.979 197.975 70.3489C198.125 70.7188 198.333 71.0315 198.597 71.2868C198.862 71.5335 199.18 71.7184 199.55 71.8418C199.929 71.9651 200.348 72.0267 200.807 72.0267C201.301 72.0267 201.733 71.9783 202.104 71.8813C202.483 71.7845 202.814 71.6392 203.096 71.4454C203.378 71.2428 203.621 70.9963 203.824 70.7056C204.027 70.4151 204.203 70.076 204.353 69.6885H202.474C202.404 69.7942 202.324 69.9041 202.236 70.0187C202.157 70.1333 202.06 70.2346 201.945 70.3227C201.839 70.4105 201.711 70.4854 201.561 70.5472C201.42 70.5999 201.257 70.6264 201.072 70.6264C200.56 70.6264 200.181 70.5032 199.934 70.2565C199.687 70.0098 199.563 69.6885 199.563 69.2921V69.1205C199.563 69.0851 199.563 69.05 199.563 69.0146C199.563 68.9795 199.568 68.9397 199.577 68.8957Z" fill="black"/>
</g>
</svg>
