<svg width="216" height="88" viewBox="0 0 216 88" fill="none" xmlns="http://www.w3.org/2000/svg">
<g id="Frame-10 1">
<path id="Vector" fill-rule="evenodd" clip-rule="evenodd" d="M17.022 74.7666L17.0487 83.4598L198.27 38.2988L198.269 29.5781L17.022 74.7666Z" fill="#2173B9"/>
<path id="Vector_2" fill-rule="evenodd" clip-rule="evenodd" d="M80.6485 43.3184C80.6485 40.2722 82.5079 36.5818 85.2685 36.5818C88.0603 36.5818 89.3612 38.7177 89.3612 41.4692C89.3612 44.7201 87.6564 48.2058 84.6089 48.2058H84.0805C81.9532 48.2058 80.6485 46.3123 80.6485 44.2429V43.3184ZM128.304 26.2788C128.304 25.7595 131.523 25.0898 132.265 25.0898H132.397C133.138 25.0898 133.849 25.9631 133.849 26.6748V27.3353C133.849 28.7433 129.675 29.7132 128.304 29.7132V26.2788ZM123.42 22.8441L123.457 26.1473L123.169 41.916L128.172 40.6765L128.189 34.0064L130.778 33.4324L134.132 39.1669L139.131 37.9018L135.569 31.7689L135.697 31.6944C136.925 31.3664 138.601 28.8487 138.601 27.2033V26.4108C138.601 23.1687 136.403 20.7308 133.189 20.7308H132.793C130.078 20.7308 126.004 22.7867 123.42 22.8441ZM102.166 32.7511C102.166 32.1634 104.909 31.7759 105.566 31.6596C106.8 31.4413 107.843 32.2343 107.843 33.5436C107.843 34.6702 106.576 35.3169 105.591 35.5178C104.477 35.7451 103.183 36.2327 102.166 36.3176V32.7511ZM97.2819 29.4487L97.1497 47.0171L97.1546 48.3586L102.034 47.2811V40.5445C102.569 40.42 103.907 40.016 104.41 40.016C104.806 40.016 107.799 44.9067 107.975 45.5638C108.879 45.5638 110.373 45.0888 111.225 44.8528C113.106 44.3318 113.309 44.8151 112.357 43.292C111.335 41.6549 110.473 39.8627 109.427 38.299C110.949 37.8921 112.463 35.343 112.463 33.1476C112.463 29.5234 110.268 27.2033 106.654 27.2033C104.983 27.2033 99.2196 28.9971 97.2819 29.4487ZM175.696 20.5987L169.619 11.3332L164.644 12.5417L164.351 31.5946L169.255 30.3742L169.539 18.9841L175.568 28.8047L180.436 27.5993L180.713 8.57846C179.515 8.8576 178.501 9.09517 177.331 9.42235C175.001 10.0738 176.039 9.34339 175.829 12.1458C175.635 14.7501 175.696 17.7837 175.696 20.5987ZM141.885 18.2865L141.517 37.288L155.895 33.8076L155.883 29.7983L146.522 32.0909L146.491 30.3708L146.655 28.1311L154.971 26.0143L154.963 22.4196L146.654 24.4293L146.664 20.7711L155.499 18.6172L155.483 14.8587L141.885 18.2865ZM183.617 10.0313L183.62 11.8921L191.141 10.0313C189.606 12.3254 188.217 15.3651 186.783 17.823C186.064 19.0553 185.264 20.4011 184.584 21.6985C183.603 23.5717 183.617 24.0597 183.612 26.7875L199.194 22.9763L199.163 20.5958L199.306 18.535L190.756 20.6041L197.46 8.04853L197.61 5.93653V4.35156C195.044 4.9495 192.348 5.55939 189.771 6.28176C188.44 6.65438 187.184 6.92871 185.861 7.25781C183.643 7.80902 183.617 7.19174 183.617 10.0313ZM29.6664 46.2529L26.0633 59.0641L21.6203 48.2619L16.6711 49.5645L24.2746 66.5451L29.1124 65.3617L35.3501 44.8294L29.6664 46.2529ZM49.4942 60.226H51.474C55.49 60.226 60.0267 56.3395 60.301 52.8935L56.2267 51.7722C56.0781 53.5571 54.3709 56.1313 52.3984 56.1313H51.3423C49.2207 56.1313 48.0419 53.6042 48.0419 51.508V50.1872C48.0419 47.4099 50.2282 44.3751 53.1904 44.3751C54.7413 44.3751 55.333 45.8472 55.8263 46.8788L59.3947 44.6394C58.7269 42.1372 55.4489 40.133 52.0519 40.7265C49.0132 41.2574 46.3982 43.1216 44.9502 45.2442C43.3194 47.6343 42.624 50.9442 43.5003 54.4676C44.1461 57.0636 46.4361 60.226 49.4942 60.226ZM60.3188 39.2235C60.3188 38.5768 63.3941 38.1223 64.0677 37.9557C65.4294 37.6185 66.6877 37.4035 68.026 37.0288C69.5675 36.5973 74.6696 35.1591 76.0281 35.1286L75.8675 39.091L70.6257 40.4531L70.3887 55.4711L65.4842 56.5967L65.6952 41.7325L60.3406 43.0114L60.3188 39.2235ZM157.743 33.2794L162.673 32.0909L162.891 13.0697C162.338 13.0819 160.96 13.4865 160.304 13.6509C159.736 13.793 158.095 13.96 158.001 14.5167C157.879 15.2378 157.872 19.8747 157.872 20.7276C157.868 25.0673 157.743 28.9681 157.743 33.2794ZM36.9667 44.4319L37.0022 45.4328L36.7004 63.4416L41.7054 62.2075L41.6728 56.6591L41.8235 43.2613L36.9667 44.4319ZM75.5002 43.9789C75.5002 48.4678 78.5609 52.3004 83.1566 52.3004H83.4207C89.0135 52.3004 94.2456 48.0798 94.2456 42.5259V40.016C94.2456 37.4591 92.6925 34.7403 91.0757 33.8096C88.7342 32.4613 86.4949 32.212 83.3888 32.9835C78.631 34.1652 75.5002 37.9867 75.5002 43.9789Z" fill="#242021"/>
</g>
</svg>
