<svg width="293" height="89" viewBox="0 0 293 89" fill="none" xmlns="http://www.w3.org/2000/svg">
<mask id="mask0_160_3" style="mask-type:luminance" maskUnits="userSpaceOnUse" x="19" y="29" width="255" height="31">
<path d="M273.663 29.0962H19.3367V59.9039H273.663V29.0962Z" fill="white"/>
</mask>
<g mask="url(#mask0_160_3)">
<path d="M168.935 33.7382H163.855V47.7515H168.935V33.7382ZM153.95 39.1836V36.7666H154.453C155.499 36.7666 156.269 37.1194 156.269 37.9564C156.269 38.8684 155.298 39.1836 154.257 39.1836H153.95ZM153.95 44.7228V42.0284H154.347C155.519 42.0284 156.491 42.4034 156.491 43.3644C156.491 44.325 155.484 44.7228 154.373 44.7228H153.95ZM148.869 47.7515H155.69C160.218 47.7515 161.621 45.4996 161.621 43.7546C161.621 41.8783 160.298 40.7259 157.808 40.5758V40.5384C159.951 40.5384 161.33 39.3112 161.33 37.7312C161.33 34.7025 157.843 33.7382 154.85 33.7382H148.864L148.869 47.7515ZM146.918 47.7515L145.097 33.7382H138.844L137.622 38.5906C137.395 39.4613 137.274 40.3168 137.118 41.1914H137.068L135.624 33.7382H129.301L127.108 47.7515H132.566L132.988 42.047C133.064 41.0037 133.039 39.9828 133.064 38.9435H133.114L134.88 47.7515H139.015L140.464 42.0096C140.715 40.9887 140.886 39.9643 141.107 38.9435H141.158L141.63 47.7552L146.918 47.7515ZM117.837 42.9815L118.536 39.7315C118.737 38.8571 118.858 37.9676 119.009 37.1045H119.059C119.185 37.9789 119.28 38.8721 119.432 39.7315L119.98 42.9815H117.837ZM126.207 47.7589L122.218 33.7455H116.016L111.488 47.7589H116.72L117.143 45.9576H120.553L120.931 47.7589H126.207ZM110.11 33.8357C109.283 33.6032 108.403 33.4898 107.52 33.5017C105.055 33.5017 99.2746 34.56 99.2746 40.8423C99.2746 45.6385 102.796 47.9992 106.971 47.9992C108.034 47.998 109.083 47.8224 110.045 47.485L110.347 43.5631C110.003 43.8411 109.588 44.0634 109.125 44.2165C108.662 44.3693 108.162 44.4497 107.655 44.4527C105.14 44.4527 104.466 42.3736 104.466 40.7374C104.466 39.1948 105.115 37.0182 107.756 37.0182C108.206 37.0185 108.651 37.0918 109.059 37.2331C109.467 37.3745 109.829 37.5801 110.12 37.8363L110.11 33.8357ZM97.1265 33.7455H92.0459V47.7515H97.1265V33.7455ZM82.292 40.2044V36.748C83.6856 36.6916 84.6816 37.2133 84.6816 38.4405C84.6816 39.3525 83.9622 40.2232 82.6139 40.2232L82.292 40.2044ZM90.5871 47.7515L86.7994 41.9157C88.8114 41.3227 89.717 39.9454 89.717 38.4029C89.717 34.7025 86.5277 33.7382 82.116 33.7382H77.1861V47.7515H82.2668V43.9986C82.2668 43.3118 82.2166 42.6213 82.1914 41.9345L82.2419 41.8968L85.0588 47.7327L90.5871 47.7515ZM65.883 40.7298C65.883 39.8552 65.9584 37.0143 67.895 37.0143C69.8317 37.0143 69.9074 39.8552 69.9074 40.7298C69.9074 41.6042 69.8317 44.449 67.895 44.449C65.9584 44.449 65.883 41.6042 65.883 40.7298ZM60.7015 40.7298C60.7015 44.1524 62.7138 47.9804 67.88 47.9804C73.0461 47.9804 75.0532 44.1673 75.0532 40.7298C75.0532 37.2921 73.0412 33.4829 67.88 33.4829C62.7187 33.4829 60.7015 37.3258 60.7015 40.7298ZM51.7725 40.208V36.748C53.171 36.6955 54.167 37.2133 54.167 38.4405C54.167 39.3525 53.4427 40.2269 52.0996 40.2269L51.7725 40.208ZM60.083 47.7552L56.2848 41.9157C58.2971 41.3227 59.2027 39.9454 59.2027 38.4029C59.2027 34.7064 56.0131 33.7382 51.6017 33.7382H46.6919V47.7552H51.7725V44.0023C51.7725 43.3155 51.7223 42.625 51.7024 41.9382L51.7525 41.9007L54.5494 47.7515L60.083 47.7552ZM38.9149 33.7382V42.5648C38.9477 42.9776 38.907 43.3913 38.7943 43.7959C38.752 43.9998 38.6075 44.1842 38.3899 44.3118C38.1722 44.4392 37.8979 44.5003 37.6223 44.4827C37.3427 44.4957 37.0671 44.4304 36.8485 44.3001C36.6302 44.1698 36.4844 43.9832 36.4401 43.7771C36.3251 43.3741 36.2828 42.9614 36.3143 42.5499V33.7382H31.2436V42.8991C31.2436 44.5915 31.7467 47.9953 37.6223 47.9953C43.4977 47.9953 43.9857 44.5915 43.9857 42.8991V33.7382H38.9149ZM19.3367 47.7515H28.7787V44.4451H24.4174V42.3059H28.331V38.996H24.4174V37.0444H28.7787V33.7382H19.3367V47.7515Z" fill="#00245B"/>
<path d="M268.532 38.4405C268.532 39.4799 267.657 40.0579 266.264 40.0017V36.7666L266.636 36.7478C267.883 36.7478 268.532 37.5473 268.532 38.4405ZM266.264 47.7515V43.1617C270.67 43.2553 273.663 42.1409 273.663 38.4967C273.663 34.8526 270.248 33.7379 265.826 33.7379H261.193V47.7515H266.264ZM253.406 33.7379V42.5648C253.437 42.9763 253.395 43.3891 253.28 43.792C253.239 43.9962 253.096 44.1808 252.879 44.3089C252.662 44.437 252.389 44.4991 252.113 44.4827C251.839 44.4932 251.568 44.4292 251.353 44.302C251.137 44.1749 250.99 43.9937 250.941 43.792C250.824 43.3905 250.781 42.9788 250.815 42.5687V33.7379H245.734V42.9027C245.734 44.5915 246.238 47.9953 252.113 47.9953C257.988 47.9953 258.491 44.5915 258.491 42.9027V33.7379H253.406ZM234.512 40.7298C234.512 39.8552 234.587 37.0106 236.524 37.0106C238.461 37.0106 238.536 39.8552 238.536 40.7298C238.536 41.6042 238.461 44.4487 236.524 44.4487C234.587 44.4487 234.512 41.6042 234.512 40.7298ZM229.33 40.7298C229.33 44.1485 231.342 47.9804 236.509 47.9804C241.675 47.9804 243.692 44.1673 243.692 40.7298C243.692 37.2921 241.68 33.479 236.519 33.479C231.357 33.479 229.33 37.3221 229.33 40.7298ZM220.401 40.2044V36.7478C221.8 36.6916 222.796 37.2133 222.796 38.4405C222.796 39.3486 222.072 40.223 220.728 40.223L220.401 40.2044ZM228.701 47.7515L224.914 41.9193C226.926 41.3227 227.831 39.9491 227.831 38.4065C227.831 34.7062 224.642 33.7379 220.23 33.7379H215.321V47.7552H220.401V44.0023C220.401 43.3155 220.351 42.6286 220.326 41.9382L220.376 41.9005L223.193 47.7364L228.701 47.7515ZM206.155 39.6489V42.6061H208.022C208.047 43.4243 207.624 44.614 206.281 44.614C204.309 44.614 204.41 42.1594 204.334 41.1575C204.334 40.0992 204.133 36.883 206.477 36.883C207.378 36.883 207.876 37.7574 207.921 38.3129L212.831 36.9581C211.734 34.9314 209.465 33.4978 206.427 33.4978C200.934 33.4942 199.153 37.352 199.153 40.8198C199.153 44.37 200.949 47.9953 206.477 47.9953C212.358 47.9953 213.258 43.702 213.258 40.2418L213.233 39.6489H206.155Z" fill="#858688"/>
<path d="M187.427 40.8051L180.651 30.2217H188.977L195.753 40.8051H187.427Z" fill="#47A01A"/>
<path d="M179.112 40.8052L172.336 51.3695H180.661L187.437 40.8052H179.112Z" fill="#47A01A"/>
<path d="M164.992 55.479C165.056 55.2061 165.244 54.9582 165.526 54.7775C165.808 54.5968 166.165 54.4946 166.536 54.4883C166.9 54.4963 167.249 54.6 167.521 54.7814C167.792 54.9626 167.969 55.2098 168.02 55.479H164.992ZM168.931 56.0233C169.016 54.8973 168.151 53.8917 166.526 53.8917C164.901 53.8917 164.066 54.8186 164.066 55.937C164.026 56.4213 164.245 56.8979 164.675 57.2624C165.105 57.6267 165.711 57.849 166.36 57.881H166.546C167.031 57.8886 167.509 57.7927 167.923 57.6045C168.338 57.4165 168.672 57.1438 168.885 56.8189L168.151 56.4922C168.02 56.7184 167.806 56.9118 167.534 57.0502C167.261 57.1886 166.941 57.2658 166.611 57.2729C166.396 57.2749 166.181 57.2451 165.981 57.1852C165.781 57.1252 165.598 57.0365 165.444 56.924C165.29 56.8113 165.167 56.6771 165.083 56.5289C164.998 56.381 164.953 56.2218 164.951 56.0607V56.0081L168.931 56.0233ZM159.785 53.9966H158.925V57.7795H159.785V55.9856C159.785 55.3103 159.861 54.4846 161.048 54.4846C162.054 54.4846 162.114 55.0325 162.114 55.6443V57.7759H162.979V55.524C162.979 54.6384 162.653 53.8841 161.254 53.8841C160.969 53.8794 160.688 53.9288 160.436 54.0271C160.183 54.1257 159.968 54.2699 159.811 54.4469H159.785V53.9966ZM155.157 54.4883C155.528 54.4765 155.895 54.5474 156.212 54.6914C156.529 54.8355 156.782 55.0465 156.938 55.2976C157.095 55.5487 157.147 55.8289 157.09 56.1025C157.033 56.3761 156.868 56.6309 156.617 56.8348C156.366 57.0384 156.039 57.182 155.678 57.2473C155.318 57.3125 154.939 57.2964 154.59 57.2013C154.242 57.1059 153.939 56.9355 153.72 56.7118C153.502 56.4883 153.377 56.2211 153.362 55.9445C153.359 55.9257 153.359 55.9069 153.362 55.8881C153.342 55.5321 153.513 55.1846 153.836 54.9223C154.16 54.6599 154.61 54.5039 155.087 54.4883H155.157ZM155.157 57.8659C155.687 57.8681 156.206 57.7531 156.647 57.5353C157.09 57.3174 157.435 57.0064 157.64 56.6421C157.845 56.2778 157.9 55.8761 157.799 55.4883C157.698 55.1003 157.445 54.7435 157.072 54.4628C156.699 54.1824 156.222 53.9909 155.703 53.9124C155.184 53.8342 154.645 53.8723 154.155 54.0227C153.665 54.1728 153.246 54.4281 152.951 54.7562C152.655 55.0844 152.497 55.4704 152.496 55.8656C152.488 56.1294 152.551 56.3917 152.681 56.637C152.812 56.8822 153.007 57.1054 153.255 57.2935C153.503 57.4812 153.799 57.6302 154.126 57.7311C154.453 57.8321 154.804 57.883 155.157 57.881M148.115 54.5934C148.005 54.3917 147.819 54.2181 147.58 54.0934C147.341 53.9689 147.058 53.8988 146.766 53.8917C146.577 53.8851 146.388 53.9063 146.209 53.9545C146.03 54.0027 145.866 54.0768 145.726 54.1721C145.586 54.2677 145.473 54.3829 145.392 54.5112C145.312 54.6396 145.266 54.7785 145.258 54.9198C145.258 54.9198 145.258 54.9499 145.258 54.9648C145.258 56.1546 147.546 55.8656 147.546 56.7101C147.546 56.8619 147.466 57.0079 147.323 57.116C147.18 57.2243 146.985 57.2859 146.782 57.2878H146.726C146.153 57.2878 145.906 57.0365 145.69 56.6837L144.926 56.924C145.042 57.2081 145.28 57.4558 145.603 57.6289C145.927 57.8018 146.318 57.8906 146.716 57.881C146.934 57.8864 147.15 57.86 147.354 57.803C147.558 57.7458 147.744 57.6595 147.903 57.5487C148.062 57.4377 148.19 57.3047 148.28 57.157C148.369 57.0091 148.42 56.8497 148.427 56.6876V56.6499C148.427 56.0157 147.848 55.7492 147.254 55.5653C146.661 55.3814 146.078 55.2501 146.078 54.9049C146.091 54.7895 146.164 54.6821 146.279 54.6049C146.395 54.5276 146.546 54.4858 146.701 54.4883C146.852 54.4971 146.997 54.5367 147.119 54.6029C147.242 54.6692 147.337 54.7594 147.395 54.8636L148.115 54.5934ZM143.904 53.9966H143.034V54.5372C142.831 54.3374 142.568 54.1758 142.267 54.0643C141.966 53.953 141.635 53.8951 141.298 53.8953C139.789 53.8953 138.864 54.8186 138.864 55.8956C138.864 56.9727 139.8 57.8847 141.289 57.8847C141.624 57.8869 141.955 57.8299 142.254 57.7184C142.554 57.6069 142.815 57.4438 143.014 57.2429V57.7683H143.879L143.904 53.9966ZM141.389 54.4883C141.836 54.4883 142.265 54.62 142.583 54.8548C142.9 55.0895 143.08 55.4083 143.084 55.7418C143.084 55.7792 143.084 55.8169 143.084 55.8543C143.084 56.6049 142.501 57.2878 141.389 57.2878C140.278 57.2878 139.729 56.59 139.729 55.8467C139.715 55.679 139.746 55.5108 139.82 55.3518C139.893 55.1929 140.008 55.0465 140.158 54.9205C140.307 54.7949 140.489 54.6922 140.691 54.6186C140.894 54.545 141.114 54.5022 141.339 54.4919H141.379M134.427 54.5971C134.317 54.3961 134.13 54.2232 133.891 54.0995C133.652 53.9755 133.37 53.9061 133.079 53.899C132.889 53.8924 132.7 53.9139 132.521 53.9621C132.343 54.0102 132.179 54.0841 132.038 54.1797C131.898 54.2753 131.785 54.3905 131.704 54.5188C131.624 54.6469 131.578 54.7858 131.57 54.9274V54.9687C131.57 56.1582 133.859 55.8695 133.859 56.7137C133.859 56.8658 133.778 57.0116 133.635 57.1199C133.492 57.2279 133.298 57.2898 133.094 57.2918H133.024C132.45 57.2918 132.204 57.0402 131.987 56.6876L131.223 56.9277C131.34 57.2125 131.58 57.4605 131.906 57.6328C132.231 57.8052 132.624 57.8925 133.024 57.881C133.241 57.8864 133.459 57.8597 133.662 57.8025C133.866 57.7453 134.053 57.6585 134.212 57.5473C134.371 57.436 134.499 57.3025 134.588 57.1543C134.678 57.0062 134.728 56.8463 134.734 56.6837V56.6536C134.734 56.0157 134.15 55.7531 133.562 55.5653C132.973 55.3778 132.385 55.2538 132.385 54.9049C132.399 54.7873 132.473 54.6785 132.592 54.601C132.711 54.5232 132.866 54.4829 133.024 54.4883C133.174 54.4963 133.319 54.5359 133.44 54.6022C133.562 54.6685 133.656 54.7592 133.713 54.8636L134.427 54.5971ZM130.005 54.5971H130.911V54.0005H130.005V52.6381H129.14V54.0005H128.612V54.5934H129.14V57.7795H130.005V54.5971ZM126.162 54.0041H125.297V57.7795H126.162V55.9032C126.162 55.4115 126.202 54.5032 127.168 54.5032C127.356 54.5166 127.533 54.576 127.671 54.6721L128.079 54.0868C127.848 53.9745 127.58 53.9134 127.304 53.9102C127.073 53.9137 126.846 53.9631 126.649 54.0535C126.452 54.1437 126.291 54.2719 126.182 54.4244L126.162 54.0041ZM123.873 54.0041H123.008V54.5408C122.805 54.3413 122.542 54.1794 122.241 54.0682C121.94 53.9567 121.609 53.899 121.272 53.899C119.764 53.899 118.833 54.8222 118.833 55.8993C118.833 56.9763 119.773 57.8883 121.263 57.8883C121.594 57.8866 121.92 57.8275 122.215 57.7155C122.51 57.6033 122.766 57.4416 122.963 57.2429V57.7646H123.828L123.873 54.0041ZM121.358 54.4919C121.581 54.4905 121.801 54.5218 122.008 54.5841C122.214 54.6462 122.403 54.7381 122.561 54.8545C122.72 54.9709 122.847 55.1095 122.933 55.2624C123.021 55.4152 123.067 55.5795 123.069 55.7455C123.069 55.7832 123.069 55.8206 123.069 55.858C123.069 56.6086 122.485 57.2918 121.373 57.2918C120.261 57.2918 119.713 56.5937 119.713 55.8506C119.7 55.6827 119.73 55.5147 119.804 55.3558C119.877 55.1968 119.992 55.0501 120.142 54.9245C120.291 54.7985 120.472 54.6958 120.675 54.6225C120.878 54.5489 121.098 54.5059 121.323 54.4958H121.363M113.858 54.0078H112.992V59.9038H113.858V57.2429C114.059 57.4438 114.321 57.6062 114.623 57.7172C114.924 57.828 115.257 57.8842 115.593 57.881C117.102 57.881 118.033 56.9727 118.033 55.892C118.033 54.811 117.092 53.8917 115.603 53.8917C115.265 53.8877 114.93 53.9442 114.627 54.0557C114.323 54.1672 114.06 54.331 113.858 54.5332V54.0078ZM115.462 54.4958C115.912 54.4939 116.344 54.6244 116.664 54.8594C116.985 55.0941 117.168 55.4142 117.173 55.7492C117.173 55.7868 117.173 55.8242 117.173 55.8656C117.173 56.6162 116.589 57.2954 115.478 57.2954C114.366 57.2954 113.817 56.5974 113.817 55.8543C113.804 55.6866 113.835 55.5184 113.908 55.3594C113.982 55.2005 114.097 55.0538 114.246 54.9281C114.396 54.8022 114.577 54.6998 114.78 54.6262C114.982 54.5526 115.202 54.5095 115.427 54.4995H115.468M104.602 55.4902C104.667 55.2176 104.856 54.9702 105.137 54.7895C105.419 54.609 105.775 54.5066 106.146 54.4995C106.51 54.5076 106.859 54.6112 107.131 54.7927C107.403 54.9738 107.579 55.221 107.63 55.4902H104.602ZM108.536 56.0382C108.626 54.9125 107.761 53.9066 106.136 53.9066C104.511 53.9066 103.676 54.8298 103.676 55.9482C103.635 56.4323 103.853 56.9089 104.282 57.2734C104.711 57.6377 105.316 57.8605 105.965 57.8923H106.156C106.641 57.8976 107.117 57.8008 107.531 57.6128C107.945 57.425 108.279 57.1536 108.496 56.8301L107.736 56.4922C107.606 56.7184 107.391 56.9118 107.119 57.0502C106.846 57.1886 106.526 57.2658 106.196 57.2729C105.761 57.2768 105.341 57.1519 105.029 56.9255C104.717 56.6988 104.538 56.3893 104.532 56.0646C104.529 56.047 104.529 56.0294 104.532 56.012L108.536 56.0382ZM101.594 54.0117H100.733V57.7795H101.594V55.9032C101.594 55.4152 101.639 54.5032 102.6 54.5032C102.788 54.5166 102.965 54.576 103.103 54.6721L103.515 54.0868C103.283 53.9763 103.016 53.9154 102.741 53.9102C102.509 53.9137 102.283 53.9631 102.086 54.0535C101.889 54.1437 101.727 54.2719 101.619 54.4244H101.594V54.0117ZM99.3047 54.0117H98.4447V54.5484C98.2405 54.3494 97.978 54.188 97.6771 54.0768C97.376 53.9655 97.0449 53.9073 96.709 53.9066C95.2001 53.9066 94.2693 54.8298 94.2693 55.9105C94.2693 56.9915 95.2102 57.8959 96.6939 57.8959C97.0266 57.893 97.354 57.8326 97.6496 57.7192C97.9456 57.6059 98.2022 57.4429 98.3995 57.2429V57.7646H99.2595L99.3047 54.0117ZM96.7896 54.4995C97.2311 54.5024 97.6532 54.634 97.9662 54.8663C98.2792 55.0983 98.4581 55.4125 98.4647 55.7418C98.4647 55.7792 98.4647 55.8169 98.4647 55.858C98.4647 56.6086 97.8862 57.2878 96.7745 57.2878C95.6629 57.2878 95.1145 56.59 95.1145 55.8506C95.0995 55.6824 95.1293 55.5135 95.2024 55.354C95.2755 55.1944 95.3898 55.0472 95.5396 54.9208C95.6894 54.7946 95.871 54.6917 96.0745 54.6181C96.2777 54.5445 96.4986 54.5015 96.7244 54.4919H96.7595M89.2591 54.0005H88.3988V59.9038H89.2591V57.2429C89.4617 57.4426 89.7242 57.6042 90.0257 57.7143C90.3269 57.8245 90.6589 57.8803 90.9945 57.8771C92.5038 57.8771 93.4342 56.969 93.4342 55.892C93.4342 54.8147 92.4936 53.8878 91.0096 53.8878C90.67 53.8853 90.3341 53.9428 90.03 54.0557C89.7258 54.1684 89.4617 54.3335 89.2591 54.5372V54.0005ZM90.8637 54.4883C91.3131 54.4863 91.745 54.6169 92.0656 54.8518C92.3861 55.0868 92.569 55.4066 92.5742 55.7418C92.5742 55.7792 92.5742 55.8206 92.5742 55.858C92.5742 56.6086 91.9905 57.2878 90.8788 57.2878C89.7671 57.2878 89.2188 56.59 89.2188 55.8506C89.1913 55.5113 89.3453 55.1778 89.6472 54.923C89.949 54.6682 90.3738 54.5132 90.8287 54.4919H90.869M86.905 52.5518C86.7044 52.2637 86.3996 52.0232 86.0253 51.8574C85.651 51.6916 85.2223 51.607 84.7871 51.6136C84.2231 51.5867 83.6679 51.7275 83.2428 52.0055C82.8177 52.2833 82.5572 52.6752 82.5185 53.096C82.5185 53.1185 82.5185 53.1371 82.5185 53.1599C82.5185 54.0266 83.3385 54.3907 84.284 54.7098L84.7871 54.8712C85.5416 55.1301 86.2964 55.3702 86.2964 56.0795C86.2767 56.4005 86.0882 56.7025 85.7716 56.9204C85.4554 57.1382 85.0362 57.2541 84.6059 57.2429C84.1972 57.2353 83.8062 57.1169 83.5063 56.9096C83.2061 56.7023 83.0176 56.4206 82.9763 56.1172L82.0957 56.301C82.213 56.7653 82.5565 57.1807 83.0596 57.4676C83.563 57.7544 84.1906 57.892 84.8219 57.8544C85.4531 57.8167 86.0433 57.6059 86.4789 57.2631C86.9145 56.9204 87.1649 56.4692 87.1816 55.9969C87.1816 55.0325 86.2862 54.6384 85.2299 54.2931L84.6914 54.1129C84.1431 53.9291 83.4188 53.689 83.4188 53.1635C83.4227 53.0374 83.4601 52.9129 83.5283 52.7975C83.5968 52.6821 83.6947 52.5777 83.8173 52.4906C83.9396 52.4036 84.0838 52.3351 84.2417 52.2897C84.3994 52.2442 84.5679 52.2222 84.737 52.2254H84.7671C85.0604 52.2214 85.3492 52.2816 85.5973 52.3982C85.8457 52.5148 86.0433 52.6831 86.1656 52.8821L86.905 52.5518Z" fill="#00245B"/>
</g>
</svg>
