<svg width="220" height="89" viewBox="0 0 220 89" fill="none" xmlns="http://www.w3.org/2000/svg">
<g id="Frame-6 1">
<g id="Clip path group">
<mask id="mask0_160_13" style="mask-type:luminance" maskUnits="userSpaceOnUse" x="68" y="3" width="83" height="83">
<g id="clip0_5_733">
<path id="Vector" d="M150.85 3.91211H68.9038V85.3324H150.85V3.91211Z" fill="white"/>
</g>
</mask>
<g mask="url(#mask0_160_13)">
<g id="Group">
<path id="Vector_2" d="M149.954 44.6223C149.954 66.6312 132.028 84.4419 109.877 84.4419C87.7259 84.4419 69.8 66.6312 69.8 44.6223C69.8 22.6134 87.7259 4.80273 109.877 4.80273C132.028 4.80273 149.954 22.6134 149.954 44.6223ZM109.877 7.21989C89.0062 7.21989 72.2328 23.8856 72.2328 44.6223C72.2328 65.359 89.1342 82.0248 109.877 82.0248C130.748 82.0248 147.521 65.2319 147.521 44.6223C147.521 23.8856 130.748 7.21989 109.877 7.21989Z" fill="url(#paint0_linear_160_13)"/>
<path id="Vector_3" d="M109.877 7.21973C89.0062 7.21973 72.2328 23.8855 72.2328 44.6221C72.2328 65.3589 89.1342 82.0246 109.877 82.0246C130.748 82.0246 147.521 65.2318 147.521 44.6221C147.521 23.8855 130.748 7.21973 109.877 7.21973ZM109.877 79.6075C90.4146 79.6075 74.6656 63.9596 74.6656 44.6221C74.6656 25.2849 90.4146 9.63691 109.877 9.63691C129.339 9.63691 145.088 25.2849 145.088 44.6221C145.088 63.9596 129.339 79.6075 109.877 79.6075Z" fill="url(#paint1_linear_160_13)"/>
<path id="Vector_4" opacity="0.4" d="M109.877 84.4419C132.028 84.4419 149.954 66.6312 149.954 44.6223C149.954 22.6133 132.028 4.80265 109.877 4.80265C87.7259 4.80265 69.8 22.6133 69.8 44.6223C69.8 66.6312 87.7259 84.4419 109.877 84.4419ZM109.877 3.91211C132.412 3.91211 150.85 22.2317 150.85 44.6223C150.85 67.0129 132.412 85.3324 109.877 85.3324C87.3417 85.3324 68.9038 67.0129 68.9038 44.6223C68.9038 22.2317 87.3417 3.91211 109.877 3.91211Z" fill="url(#paint2_linear_160_13)"/>
<path id="Vector_5" d="M71.7208 44.7496C71.7208 23.8855 88.7501 6.71094 109.877 6.71094C131.004 6.71094 148.033 23.7583 148.033 44.7496C148.033 65.6135 131.004 82.5337 109.877 82.5337C88.7501 82.5337 71.7208 65.6135 71.7208 44.7496ZM83.6286 18.5423C76.8423 25.285 72.617 34.572 72.617 44.7496C72.617 54.9271 76.8423 64.2142 83.5006 70.8295C90.2867 77.4448 99.6337 81.643 109.877 81.643C120.12 81.643 129.467 77.572 136.125 70.8295C142.912 64.2142 147.009 54.9271 147.009 44.7496C147.009 34.572 142.783 25.285 136.125 18.5423C129.467 11.7997 120.12 7.60148 109.877 7.60148C99.6337 7.60148 90.2866 11.7997 83.6286 18.5423Z" fill="white"/>
<path id="Vector_6" opacity="0.4" d="M109.877 79.7348C100.402 79.7348 91.567 76.0454 84.9089 69.4301C78.2508 62.8145 74.5377 54.0365 74.5377 44.6223C74.5377 35.2081 78.2508 26.4299 84.9089 19.8145C91.567 13.1991 100.402 9.50977 109.877 9.50977C119.352 9.50977 128.187 13.1991 134.845 19.8145C141.503 26.4299 145.216 35.2081 145.216 44.6223C145.216 54.0365 141.503 62.8145 134.845 69.4301C128.187 76.0454 119.352 79.7348 109.877 79.7348ZM109.877 78.7171C118.968 78.7171 127.675 75.155 134.077 68.7939C140.607 62.3057 144.064 53.782 144.064 44.7495C144.064 35.7169 140.479 27.0661 134.077 20.705C127.547 14.2169 118.968 10.782 109.877 10.782C100.786 10.782 92.0793 14.3441 85.6772 20.705C79.1471 26.9387 75.5619 35.5898 75.5619 44.6223C75.5619 53.6548 79.1471 62.3057 85.5492 68.6667C92.0793 75.1549 100.786 78.7171 109.877 78.7171Z" fill="url(#paint3_linear_160_13)"/>
<path id="Vector_7" d="M140.991 61.161C140.351 60.6522 115.639 41.1876 115.639 41.1876L109.877 8.49219C109.493 8.61943 108.981 9.00108 108.725 9.50994L104.627 41.3148L79.1471 60.7793C79.1471 60.7793 78.635 61.4153 78.3788 61.797C78.2509 62.0515 78.2509 62.4332 78.2509 62.8148L109.749 49.9656L141.247 62.8148C141.503 62.1786 141.247 61.5427 140.991 61.161Z" fill="white"/>
<path id="Vector_8" d="M110.133 45.64L109.877 51.492L138.814 63.0688C139.839 63.5779 140.607 63.3234 141.375 62.8146L110.517 45.5126C110.389 45.3855 110.133 45.5126 110.133 45.64Z" fill="#565F64"/>
<path id="Vector_9" d="M110.133 45.64C110.133 45.64 111.798 48.566 113.718 50.6015C116.407 53.5275 119.992 55.563 119.992 55.563L138.814 63.0688C139.839 63.5779 140.607 63.3234 141.375 62.8146L110.517 45.5126C110.389 45.3855 110.133 45.5126 110.133 45.64Z" fill="url(#paint4_linear_160_13)"/>
<path id="Vector_10" d="M141.247 61.6698C141.247 61.5424 141.119 61.4153 140.991 61.1607L114.615 41.9507L111.029 44.2407C111.029 44.2407 111.285 44.3679 111.413 44.2407C111.798 44.1136 112.566 43.9862 113.334 44.2407C113.974 44.495 141.247 61.797 141.247 61.797V61.6698Z" fill="#A4AAAE" fill-opacity="0.6"/>
<path id="Vector_11" d="M140.351 60.5245L115.767 41.187L114.615 41.9504L140.991 61.2878C140.863 61.0333 140.607 60.7787 140.351 60.5245Z" fill="#333E46"/>
<path id="Vector_12" d="M110.517 43.7316L110.389 43.859C110.389 43.859 110.389 44.1133 110.645 43.9861C110.773 43.859 114.486 41.9506 115.767 41.1873L111.285 10.6546C111.157 9.50965 110.645 9.00079 109.749 8.61914L110.261 43.9861L110.517 43.7316Z" fill="#565F64"/>
<path id="Vector_13" d="M108.34 10.6548V12.3086L105.523 40.4241C105.523 40.8057 105.652 41.1874 106.036 41.442L107.7 42.7141L108.853 11.6726L108.981 9.25537C108.597 9.5098 108.469 10.0187 108.34 10.6548ZM106.804 43.2229L105.268 41.9508L79.2751 60.652C79.2751 60.652 78.5068 61.1608 78.3788 61.6696L79.2751 61.1608L106.548 44.1134C107.06 43.8591 107.188 43.6046 106.804 43.2229Z" fill="#A4AAAE" fill-opacity="0.6"/>
<path id="Vector_14" d="M109.493 45.64C109.493 45.5126 109.365 45.3855 109.237 45.5126L78.2509 62.9417C79.0191 63.4505 79.7874 63.5779 80.8116 63.1962L109.749 51.6191L109.493 45.64Z" fill="#565F64"/>
<path id="Vector_15" d="M110.389 43.859C110.389 43.859 110.389 43.9861 110.517 43.9861H110.645C110.773 43.859 114.486 41.9506 115.767 41.1873L115.255 37.4979L111.285 10.6547C111.285 10.1458 111.157 9.7642 110.901 9.50977C110.901 9.50977 112.822 35.2081 112.822 38.007C112.822 41.6963 110.389 43.859 110.389 43.859Z" fill="url(#paint5_linear_160_13)"/>
<path id="Vector_16" d="M109.493 45.64C109.493 45.5126 109.365 45.3855 109.237 45.5126L78.2509 62.9417C79.0191 63.4505 79.7874 63.5779 80.8116 63.1962L109.749 51.6191L109.493 45.64Z" fill="url(#paint6_linear_160_13)" fill-opacity="0.8"/>
<path id="Vector_17" opacity="0.8" d="M80.8116 63.0691L109.749 51.4922L109.493 45.8945C108.981 47.4212 108.084 49.0751 105.652 50.3472C103.859 51.3651 86.7014 59.7614 80.5554 62.6874C80.1715 62.9419 79.6592 63.0691 79.4033 63.1965C79.9154 63.4508 80.2995 63.3236 80.8116 63.0691Z" fill="url(#paint7_linear_160_13)"/>
<path id="Vector_18" d="M110.517 43.7316L110.389 43.859C110.389 43.859 110.389 44.1133 110.645 43.9861C110.773 43.859 114.486 41.9506 115.767 41.1873L111.285 10.6546C111.157 9.50965 110.645 9.00079 109.749 8.61914L110.261 43.9861L110.517 43.7316Z" fill="url(#paint8_linear_160_13)"/>
<path id="Vector_19" d="M110.517 43.7316L110.389 43.859C110.389 43.859 110.389 44.1133 110.645 43.9861C110.773 43.859 114.486 41.9506 115.767 41.1873L111.285 10.6546C111.157 9.50965 110.645 9.00079 109.749 8.61914L110.261 43.9861L110.517 43.7316Z" fill="url(#paint9_linear_160_13)"/>
<path id="Vector_20" d="M75.4339 60.3976C74.5377 58.3621 69.4159 48.4389 75.0498 29.356H72.8732C71.7207 33.1727 70.8245 35.4625 70.3122 38.8975C70.3122 38.8975 70.0562 40.1697 69.9283 41.5693C69.8 42.9686 69.8 43.7319 69.8 44.6224C69.8 52.2556 71.7207 56.7083 71.7207 56.7083C73.7694 63.0691 77.3546 68.794 82.2202 73.1195C86.4455 76.8088 92.9756 79.6077 98.3533 80.6253C97.4571 80.4982 82.092 74.01 75.4339 60.3976Z" fill="url(#paint10_linear_160_13)"/>
<path id="Vector_21" d="M110.389 45.3858H109.237C109.365 45.3858 109.493 45.3858 109.493 45.5129L109.749 51.3649H109.877L110.133 45.5129C110.133 45.3858 110.261 45.2584 110.389 45.3858Z" fill="url(#paint11_linear_160_13)"/>
<path id="Vector_22" d="M122.681 6.83789C136.125 11.9267 148.801 25.9209 148.801 43.6042C148.801 64.9772 131.644 82.406 109.877 82.406V84.4415C131.644 84.4415 149.954 66.631 149.954 44.6221C149.954 27.0656 138.686 12.3083 122.681 6.83789Z" fill="url(#paint12_linear_160_13)"/>
<path id="Vector_23" d="M144.192 29.6104C135.229 9.12814 114.999 7.98317 113.846 7.85596H113.718C129.211 10.6548 139.07 20.7051 142.528 31.2642V31.3916C144.064 35.4626 144.832 39.7879 144.96 44.4951C145.088 48.9478 144.064 53.9093 142.143 58.4892C142.015 59.1254 141.887 59.8887 141.759 59.8887H143.808C149.954 48.439 147.265 36.8619 144.192 29.6104Z" fill="url(#paint13_linear_160_13)"/>
<path id="Vector_24" d="M71.7208 44.7496C71.7208 23.8855 88.7501 6.71094 109.877 6.71094C131.004 6.71094 148.033 23.7583 148.033 44.7496C148.033 65.6135 131.004 82.5337 109.877 82.5337C88.7501 82.5337 71.7208 65.6135 71.7208 44.7496ZM83.6286 18.5423C76.8423 25.285 72.617 34.572 72.617 44.7496C72.617 54.9271 76.8423 64.2142 83.5006 70.8295C90.2867 77.4448 99.6337 81.643 109.877 81.643C120.12 81.643 129.467 77.572 136.125 70.8295C142.912 64.2142 147.009 54.9271 147.009 44.7496C147.009 34.572 142.783 25.285 136.125 18.5423C129.467 11.7997 120.12 7.60148 109.877 7.60148C99.6337 7.60148 90.2866 11.7997 83.6286 18.5423Z" fill="#FBFBFB"/>
<path id="Vector_25" d="M79.0192 60.9064L105.139 42.2051C106.548 42.9685 108.853 43.9861 109.109 43.9861C109.365 44.1135 109.365 43.859 109.365 43.859L106.164 41.1873C105.78 40.933 105.652 40.5513 105.652 40.1696L108.725 9.50977C108.597 9.63698 108.597 9.89141 108.469 10.0186C108.34 10.2731 108.34 10.4003 108.34 10.6547L103.859 41.3146L79.2751 60.5247C79.1471 60.6519 79.0192 60.779 79.0192 60.9064Z" fill="#333F47"/>
</g>
</g>
</g>
</g>
<defs>
<linearGradient id="paint0_linear_160_13" x1="79.1471" y1="19.0513" x2="140.28" y2="70.5809" gradientUnits="userSpaceOnUse">
<stop stop-color="white"/>
<stop offset="0.1" stop-color="#CDD0D0"/>
<stop offset="0.2" stop-color="#A5ACAF"/>
<stop offset="0.3" stop-color="#98A0A4"/>
<stop offset="0.4" stop-color="#828A8F"/>
<stop offset="0.5" stop-color="#667075"/>
<stop offset="0.6" stop-color="#535C63"/>
<stop offset="0.7" stop-color="#475158"/>
<stop offset="0.8" stop-color="#434D54"/>
<stop offset="1" stop-color="#475157"/>
</linearGradient>
<linearGradient id="paint1_linear_160_13" x1="81.0294" y1="20.5269" x2="138.34" y2="68.9792" gradientUnits="userSpaceOnUse">
<stop stop-color="#0B1F2A"/>
<stop offset="0.2" stop-color="#333F47"/>
<stop offset="0.5" stop-color="#81898D"/>
<stop offset="0.7" stop-color="#B3B8B8"/>
<stop offset="0.8" stop-color="#DEE0DD"/>
<stop offset="1" stop-color="#FBFBFB"/>
</linearGradient>
<linearGradient id="paint2_linear_160_13" x1="123.887" y1="82.8732" x2="96.1635" y2="6.17257" gradientUnits="userSpaceOnUse">
<stop stop-color="#E1E3E1"/>
<stop offset="0.1" stop-color="#C1C5C4"/>
<stop offset="0.3" stop-color="#9BA1A2"/>
<stop offset="0.5" stop-color="#7D8487"/>
<stop offset="0.7" stop-color="#687074" stop-opacity="0"/>
<stop offset="0.8" stop-color="#5B6469" stop-opacity="0"/>
<stop offset="1" stop-color="#576065" stop-opacity="0"/>
</linearGradient>
<linearGradient id="paint3_linear_160_13" x1="92.2073" y1="14.2169" x2="127.206" y2="75.2227" gradientUnits="userSpaceOnUse">
<stop stop-color="#E1E3E1"/>
<stop offset="0.1" stop-color="#C1C5C4"/>
<stop offset="0.3" stop-color="#9BA1A2"/>
<stop offset="0.5" stop-color="#7D8487"/>
<stop offset="0.7" stop-color="#687074" stop-opacity="0"/>
<stop offset="0.8" stop-color="#5B6469" stop-opacity="0"/>
<stop offset="1" stop-color="#576065" stop-opacity="0"/>
</linearGradient>
<linearGradient id="paint4_linear_160_13" x1="125.869" y1="54.0236" x2="123.713" y2="57.5981" gradientUnits="userSpaceOnUse">
<stop stop-color="#27343C"/>
<stop offset="1" stop-color="#00111E" stop-opacity="0"/>
</linearGradient>
<linearGradient id="paint5_linear_160_13" x1="119.583" y1="40.9457" x2="116.031" y2="35.2003" gradientUnits="userSpaceOnUse">
<stop offset="0.1" stop-color="#02131F"/>
<stop offset="0.9" stop-color="#02131F" stop-opacity="0"/>
</linearGradient>
<linearGradient id="paint6_linear_160_13" x1="109.851" y1="50.1436" x2="104.479" y2="51.6883" gradientUnits="userSpaceOnUse">
<stop offset="0.2" stop-color="#02131F"/>
<stop offset="0.9" stop-color="#02131F" stop-opacity="0"/>
</linearGradient>
<linearGradient id="paint7_linear_160_13" x1="95.5236" y1="57.2171" x2="94.7638" y2="55.3054" gradientUnits="userSpaceOnUse">
<stop stop-color="#02131F"/>
<stop offset="0.1" stop-color="#02131F"/>
<stop offset="1" stop-color="#02131F" stop-opacity="0"/>
</linearGradient>
<linearGradient id="paint8_linear_160_13" x1="114.486" y1="25.8064" x2="110.134" y2="26.3217" gradientUnits="userSpaceOnUse">
<stop offset="0.3" stop-color="#02131F"/>
<stop offset="0.8" stop-color="#02131F" stop-opacity="0"/>
</linearGradient>
<linearGradient id="paint9_linear_160_13" x1="114.627" y1="25.7428" x2="111.683" y2="26.1294" gradientUnits="userSpaceOnUse">
<stop offset="0.4" stop-color="#27343C"/>
<stop offset="1" stop-color="#3B474E" stop-opacity="0"/>
</linearGradient>
<linearGradient id="paint10_linear_160_13" x1="68.4429" y1="45.6784" x2="104.051" y2="66.3592" gradientUnits="userSpaceOnUse">
<stop stop-color="#25323B" stop-opacity="0"/>
<stop offset="0.1" stop-color="#27343C"/>
</linearGradient>
<linearGradient id="paint11_linear_160_13" x1="109.813" y1="51.4923" x2="109.813" y2="45.3858" gradientUnits="userSpaceOnUse">
<stop offset="0.3" stop-color="#A5ABAF"/>
<stop offset="1" stop-color="#A5ABAF" stop-opacity="0"/>
</linearGradient>
<linearGradient id="paint12_linear_160_13" x1="129.915" y1="6.83789" x2="129.915" y2="84.4415" gradientUnits="userSpaceOnUse">
<stop stop-color="#6B7378"/>
<stop offset="0.2" stop-color="#333F47"/>
<stop offset="0.5" stop-color="#27343C"/>
<stop offset="0.8" stop-color="#333F47"/>
<stop offset="1" stop-color="#434D54"/>
</linearGradient>
<linearGradient id="paint13_linear_160_13" x1="142.259" y1="14.2042" x2="125.125" y2="39.4962" gradientUnits="userSpaceOnUse">
<stop offset="0.7" stop-color="#49545B"/>
<stop offset="0.8" stop-color="white" stop-opacity="0"/>
</linearGradient>
</defs>
</svg>
