<svg width="246" height="53" viewBox="0 0 246 53" fill="none" xmlns="http://www.w3.org/2000/svg">
<g id="Clip path group">
<mask id="mask0_160_94" style="mask-type:luminance" maskUnits="userSpaceOnUse" x="0" y="0" width="246" height="53">
<g id="clip0_5_745">
<path id="Vector" d="M245.148 0.33252H0.852356V52.6677H245.148V0.33252Z" fill="white"/>
</g>
</mask>
<g mask="url(#mask0_160_94)">
<g id="Group">
<path id="Vector_2" d="M46.5122 31.2541C46.5122 31.2541 40.6781 30.3577 42.8743 23.7328H43.121C43.121 23.7328 43.3158 28.2535 46.6811 27.7856C47.0737 28.2905 47.2727 28.9192 47.2416 29.5577C47.2105 30.1965 46.9519 30.8029 46.5122 31.2673M45.8885 34.8913C45.8233 34.7951 45.7964 34.6775 45.8132 34.562C45.8303 34.4468 45.8896 34.3418 45.9796 34.2679C45.9796 34.2679 46.6295 33.8914 44.2256 32.7481C44.2256 32.7481 46.954 33.4106 47.2531 34.4887C47.5518 35.5672 46.6295 35.7877 45.8885 34.8913ZM56.0757 24.85H55.816C55.816 24.85 54.8413 28.9161 51.9178 28.6823C51.9178 28.6823 51.9178 28.5651 51.9178 28.5002C52.1209 27.6722 52.1868 26.8164 52.1128 25.9672C51.9178 24.2785 49.9686 22.8236 48.7862 22.1481C47.6038 21.4726 48.2666 19.7058 44.1087 18.9263C46.6033 8.05353 33.8563 7.98864 33.8563 7.98864C20.3558 7.36515 17.2505 0.597168 17.2505 0.597168L16.8865 0.908736C16.8865 0.908736 17.3674 10.1319 29.0747 13.2497C26.8698 13.3753 24.6617 13.0648 22.5768 12.3359C20.492 11.6071 18.5718 10.4739 16.9256 9.00185L16.6398 9.27469C16.6398 9.27469 18.2249 17.7962 28.672 20.1084C28.672 20.1084 21.1355 20.5892 17.8612 16.2764L17.4843 16.6532C17.4843 16.6532 19.9011 23.9407 29.2957 26.4218C29.2957 26.4218 36.6762 28.3962 34.2852 38.1131L34.5061 38.282L26.3851 33.9692L26.242 35.0086L21.7204 31.9815C21.9678 31.6326 22.1853 31.2635 22.3699 30.8776L20.3558 30.2409C16.0032 37.8923 8.7916 32.1117 8.7916 32.1117C8.00218 32.9044 7.04454 33.5097 5.98989 33.8827C4.93523 34.256 3.81008 34.3875 2.69748 34.2679C6.8683 33.4884 8.05104 31.0852 8.05104 31.0852L8.14178 30.8127C8.67993 30.9819 9.24111 31.0653 9.80508 31.0594C12.9495 31.0594 13.4953 27.734 13.4953 27.734C13.7997 26.8227 14.3462 26.0115 15.0763 25.3866C15.8064 24.7621 16.6928 24.3476 17.6403 24.1874C18.1729 24.0834 19.9402 23.8888 19.9402 23.8888L19.7584 23.655C19.7584 23.655 18.2769 21.0567 11.4293 19.6018C11.4293 19.6018 5.881 18.6926 3.46422 15.6268L3.21713 15.9516C3.51099 16.334 3.83241 16.6944 4.17861 17.0297C7.27209 19.8139 11.0855 21.6729 15.1845 22.3948L15.7823 22.4729C12.3779 23.2653 11.6502 28.1624 11.6502 28.1624C10.9484 30.9945 8.31069 29.5915 8.31069 29.5915L7.68704 29.2925C7.68704 29.2925 6.037 33.8394 1.65797 33.2808L0.852356 35.1513C2.21308 35.4381 3.61952 35.4311 4.97746 35.1311C6.33539 34.8306 7.6134 34.2441 8.72669 33.4106C15.5223 37.2297 19.3685 34.7096 21.1484 32.6702L27.1518 36.4115L27.3074 35.593L38.0275 42.3739C38.4225 43.0752 38.7447 43.8152 38.9889 44.5824L39.9246 43.5689L45.6156 47.1545V44.0758L41.4448 41.8673L42.861 40.3213L43.8487 39.2432L46.4473 40.1004L47.4349 39.724C47.7396 38.641 48.1441 37.5884 48.6435 36.5804L49.709 35.541C49.9348 35.2399 50.1389 34.9231 50.3194 34.5927L50.8132 34.5149L51.359 32.1895C53.0611 31.9686 56.8815 30.8127 56.1018 24.8371" fill="#A32035"/>
<path id="Vector_3" d="M71.7981 52.4803L68.303 49.3887V48.4791H71.6812V46.271H67.4322V52.4933H65.6133V44.8289H72.7858C72.88 44.823 72.9746 44.8373 73.0625 44.8715C73.1508 44.9057 73.2304 44.9584 73.296 45.0264C73.3613 45.0945 73.4115 45.1761 73.4422 45.2654C73.473 45.3547 73.4841 45.4496 73.4744 45.5435V49.0639C73.482 49.1567 73.4695 49.2502 73.4377 49.3381C73.4059 49.4257 73.3557 49.5056 73.2904 49.5723C73.2252 49.6385 73.1463 49.6905 73.0591 49.7237C72.9722 49.7572 72.8786 49.7711 72.7858 49.7652H70.8625L73.994 52.3635L71.7981 52.4803Z" fill="#636569"/>
<path id="Vector_4" d="M85.0648 52.4805H78.2039C78.108 52.4864 78.012 52.4718 77.9223 52.4369C77.8326 52.4023 77.7516 52.3483 77.6846 52.2792C77.618 52.2101 77.567 52.1271 77.5356 52.036C77.5042 51.9453 77.4927 51.8486 77.5025 51.753V44.8291H79.3214V51.0127H83.9344V44.8291H85.7534V51.753C85.7628 51.8476 85.752 51.9428 85.7213 52.0329C85.6902 52.1229 85.6406 52.2049 85.5754 52.274C85.5101 52.343 85.4305 52.3971 85.3426 52.4327C85.2543 52.4683 85.1597 52.4847 85.0648 52.4805Z" fill="#636569"/>
<path id="Vector_5" d="M95.8885 52.4805L91.2496 47.2194V52.4805H89.4307V44.8291H91.2109L95.8626 49.9342V44.8291H97.6816V52.4805H95.8885Z" fill="#636569"/>
<path id="Vector_6" d="M118.848 52.4805H117.081L114.976 47.0506L112.91 52.4805H111.091L108.012 44.8291H109.948L112.027 50.22L114.093 44.8291H115.847L117.926 50.22L120.005 44.8291H122.006L118.848 52.4805Z" fill="#636569"/>
<path id="Vector_7" d="M125.631 52.4805V44.8291H127.437V52.4805H125.631Z" fill="#636569"/>
<path id="Vector_8" d="M136.169 46.2711V52.4543H134.363V46.2711H131.102V44.8291H139.404V46.2711H136.169Z" fill="#636569"/>
<path id="Vector_9" d="M149.371 52.4805V49.4409H144.745V52.4805H142.926V44.8291H144.745V47.882H149.371V44.8291H151.177V52.4805H149.371Z" fill="#636569"/>
<path id="Vector_10" d="M166.588 46.2711V52.4543H164.781V46.2711H161.533V44.8291H169.836V46.2711H166.588Z" fill="#636569"/>
<path id="Vector_11" d="M179.724 52.4805V49.4409H175.098V52.4805H173.292V44.8291H175.098V47.882H179.724V44.8291H181.543V52.4805H179.724Z" fill="#636569"/>
<path id="Vector_12" d="M185.221 52.4805V44.8291H192.653V46.2711H186.975V47.882H191.445V49.2587H186.975V50.9865H192.679V52.4543L185.221 52.4805Z" fill="#636569"/>
<path id="Vector_13" d="M210.364 52.4807H202.944V44.8293H210.364C210.457 44.8251 210.55 44.8411 210.636 44.876C210.723 44.9109 210.801 44.9643 210.865 45.032C210.929 45.0997 210.978 45.1806 211.008 45.2689C211.038 45.3572 211.049 45.451 211.039 45.5438V47.2974C211.05 47.4363 211.017 47.5748 210.945 47.6937C210.872 47.8127 210.764 47.9059 210.636 47.96L209.584 48.5576L210.714 49.1682C210.842 49.2157 210.95 49.3036 211.023 49.4187C211.095 49.5335 211.129 49.6692 211.117 49.8046V51.7532C211.128 51.8537 211.116 51.9552 211.081 52.0505C211.047 52.1454 210.991 52.2312 210.918 52.3017C210.846 52.3718 210.758 52.4245 210.662 52.4555C210.566 52.4866 210.463 52.495 210.364 52.4807ZM209.168 46.1931H204.763V47.96H208.064L209.168 47.2716V46.1931ZM209.246 49.8304L208.064 49.142H204.763V51.1036H209.246V49.8304Z" fill="#636569"/>
<path id="Vector_14" d="M222.266 52.4805H215.405C215.309 52.4864 215.213 52.4718 215.123 52.4369C215.033 52.4023 214.952 52.3483 214.886 52.2792C214.819 52.2101 214.768 52.1271 214.736 52.036C214.705 51.9453 214.694 51.8486 214.703 51.753V44.8291H216.523V51.0127H221.148V44.8291H222.955V51.753C222.964 51.8476 222.953 51.9428 222.922 52.0329C222.891 52.1229 222.841 52.2049 222.776 52.274C222.711 52.343 222.632 52.3971 222.543 52.4327C222.455 52.4683 222.361 52.4847 222.266 52.4805Z" fill="#636569"/>
<path id="Vector_15" d="M226.631 52.4805V44.8291H228.451V51.0127H233.648V52.4805H226.631Z" fill="#636569"/>
<path id="Vector_16" d="M236.546 52.4805V44.8291H238.365V51.0127H243.563V52.4805H236.546Z" fill="#636569"/>
<path id="Vector_17" d="M243.446 19.5108C243.097 19.5213 242.753 19.4274 242.457 19.2411C242.162 19.0548 241.929 18.7844 241.788 18.4652C241.648 18.1459 241.605 17.7918 241.667 17.4481C241.729 17.1045 241.892 16.7873 242.135 16.5368C242.378 16.2863 242.69 16.1139 243.032 16.0421C243.373 15.9702 243.729 16.0016 244.052 16.1328C244.376 16.2636 244.653 16.4883 244.848 16.7779C245.043 17.0671 245.148 17.4084 245.148 17.7573C245.156 17.9854 245.119 18.2133 245.037 18.4264C244.955 18.64 244.831 18.8343 244.672 18.9983C244.513 19.1623 244.322 19.2921 244.111 19.3803C243.9 19.4686 243.674 19.5129 243.446 19.5108ZM243.446 16.3152C243.152 16.2838 242.857 16.3418 242.598 16.482C242.338 16.6219 242.128 16.8376 241.994 17.0999C241.859 17.3623 241.808 17.6592 241.847 17.9512C241.885 18.2433 242.011 18.5168 242.208 18.7356C242.406 18.9547 242.665 19.1086 242.951 19.1769C243.238 19.2453 243.538 19.2254 243.813 19.1194C244.088 19.0133 244.325 18.8263 244.491 18.5831C244.657 18.3399 244.746 18.0517 244.745 17.7573C244.765 17.5751 244.746 17.3906 244.69 17.2161C244.634 17.0417 244.541 16.8812 244.419 16.7447C244.296 16.6087 244.146 16.5002 243.978 16.4259C243.81 16.3519 243.629 16.3142 243.446 16.3152ZM243.095 18.7705H242.848V16.8351H243.575C244.043 16.8351 244.29 16.9907 244.29 17.3804C244.295 17.4499 244.286 17.5193 244.263 17.5846C244.24 17.6498 244.204 17.7098 244.156 17.76C244.108 17.8103 244.05 17.8497 243.986 17.8762C243.922 17.9027 243.853 17.9153 243.783 17.9132L244.316 18.7705H243.965L243.459 17.939H243.16L243.095 18.7705ZM243.459 17.6662C243.692 17.6662 243.9 17.6662 243.9 17.3675C243.9 17.0689 243.679 17.0947 243.484 17.0947H243.095V17.6924L243.459 17.6662Z" fill="#636569"/>
<path id="Vector_18" fill-rule="evenodd" clip-rule="evenodd" d="M205.634 18.9915C200.969 18.9915 199.968 23.2523 200.085 25.9542C200.228 29.0978 201.385 32.7613 205.634 32.6702C209.532 32.6702 210.948 29.1369 210.948 25.8244C210.948 23.1483 210.064 19.0173 205.634 18.9915ZM205.4 15.6787C211.065 15.6787 218.264 17.8743 218.264 25.8244C218.264 34.1771 210.468 35.9827 205.517 35.9827C199.384 35.9827 192.77 33.3195 192.77 25.8244C192.77 17.6273 200.02 15.6787 205.4 15.6787Z" fill="#636569"/>
<path id="Vector_19" fill-rule="evenodd" clip-rule="evenodd" d="M135.428 19.407V24.3174H138.547C138.898 24.3275 139.249 24.2686 139.578 24.1437C139.906 24.0188 140.207 23.8303 140.463 23.5889C140.719 23.3475 140.924 23.0582 141.068 22.7376C141.212 22.4166 141.291 22.0705 141.302 21.7191C141.319 21.3912 141.265 21.0629 141.142 20.7583C141.019 20.4533 140.831 20.1791 140.591 19.9551C140.35 19.7308 140.064 19.5622 139.751 19.4607C139.438 19.3592 139.107 19.3274 138.781 19.3679L135.428 19.407ZM126.229 16.1074H142.328C145.512 16.1074 148.136 18.0689 148.136 21.3036C148.136 24.1615 146.421 24.9796 143.186 26.123C147.812 25.5773 146.161 33.2807 150.228 32.1893V35.4369H142.289C141.653 33.6184 140.236 27.9156 138.313 27.9027H135.39V32.1893H137.702V35.4369H126.203V32.1893H128.503V19.4719H126.216L126.229 16.1074Z" fill="#636569"/>
<path id="Vector_20" fill-rule="evenodd" clip-rule="evenodd" d="M228.698 19.407V24.3174H231.829C232.537 24.3349 233.223 24.0711 233.737 23.5844C234.25 23.0973 234.55 22.4267 234.571 21.7191C234.588 21.3922 234.534 21.0657 234.412 20.7618C234.29 20.4579 234.103 20.1847 233.864 19.9607C233.625 19.7367 233.34 19.5675 233.029 19.4652C232.718 19.3627 232.388 19.3295 232.063 19.3679L228.698 19.407ZM219.459 16.1074H235.571C238.742 16.1074 241.38 18.0689 241.38 21.3036C241.38 24.1615 239.651 24.9796 236.416 26.123C241.042 25.5773 239.391 33.2807 243.459 32.1893V35.4369H235.519C234.896 33.6184 233.466 27.9156 231.556 27.9027H228.633V32.1893H230.932V35.4369H219.459V32.1893H221.759V19.4719H219.459V16.1074Z" fill="#636569"/>
<path id="Vector_21" d="M78.035 16.0947L82.2582 30.0072L86.429 16.1076H98.6302V19.4592H96.3303V32.1637H98.6302V35.4113H88.1314V32.1637H90.2233V19.8747L84.9479 35.4113H78.6329L73.1624 19.8618L73.1495 32.1637H75.2417L75.2546 35.4113H65.6262V32.1637H67.939V19.4592H65.6262V16.1076L78.035 16.0947Z" fill="#636569"/>
<path id="Vector_22" d="M101.372 16.1074H123.487V21.94H118.121V19.459H110.545V24.1353H112.572V21.94H116.64V29.0977H112.572V27.1491H110.545V32.1635H118.017V29.0977H123.487V35.4111H101.346V32.1635H103.659V19.4719L101.372 19.459V16.1074Z" fill="#636569"/>
<path id="Vector_23" d="M152.788 16.1074H165.067V19.459H162.299V32.1635L165.067 32.1764V35.4111H152.788V32.1764H155.556V19.459H152.788V16.1074Z" fill="#636569"/>
<path id="Vector_24" d="M167.627 16.1074H191.159V23.1221H185.688V19.459H182.726V32.1635H185.494V35.4111H173.305V32.1635H176.073V19.459H173.11V23.1221H167.627V16.1074Z" fill="#636569"/>
</g>
</g>
</g>
</svg>
