<svg width="25" height="25" viewBox="0 0 25 25" fill="none" xmlns="http://www.w3.org/2000/svg">
<g id="Group 194">
<path id="Rectangle 109" d="M0.5 0.5H8.66676C10.0475 0.5 11.1668 1.61929 11.1668 3V8.66676C11.1668 10.0475 10.0475 11.1668 8.66676 11.1668H3C1.61929 11.1668 0.5 10.0475 0.5 8.66676V0.5Z" stroke="#FF6969"/>
<path id="Rectangle 110" d="M13.8333 3C13.8333 1.61929 14.9525 0.5 16.3333 0.5H24.5V8.66676C24.5 10.0475 23.3807 11.1668 22 11.1668H16.3333C14.9525 11.1668 13.8333 10.0475 13.8333 8.66676V3Z" stroke="#FF6969"/>
<path id="Rectangle 111" d="M0.5 16.3339C0.5 14.9532 1.61929 13.8339 3 13.8339H8.66676C10.0475 13.8339 11.1668 14.9532 11.1668 16.3339V22.0006C11.1668 23.3813 10.0475 24.5006 8.66676 24.5006H0.5V16.3339Z" stroke="#FF6969"/>
<path id="Rectangle 112" d="M13.8333 16.3339C13.8333 14.9532 14.9525 13.8339 16.3333 13.8339H22C23.3807 13.8339 24.5 14.9532 24.5 16.3339V24.5006H16.3333C14.9525 24.5006 13.8333 23.3813 13.8333 22.0006V16.3339Z" stroke="#FF6969"/>
</g>
</svg>
