<svg width="31" height="31" viewBox="0 0 31 31" fill="none" xmlns="http://www.w3.org/2000/svg">
<g id="chat_dialogue_email_mail_message_chatting_icon_154004 1">
<g id="Vector">
<mask id="path-1-inside-1_214_666" fill="white">
<path d="M26.4756 30C26.427 30 26.3785 29.9954 26.3309 29.9863C24.9007 29.7152 22.9356 29.0091 21.6961 27.1843C21.3696 26.7019 21.1163 26.1767 20.9441 25.6248C20.8386 25.2817 20.6211 24.9808 20.3239 24.7671C20.0268 24.5534 19.6661 24.4385 19.2957 24.4395H3.21311C2.62636 24.4388 2.06383 24.2133 1.64894 23.8122C1.23404 23.4112 1.00066 22.8675 1 22.3004V6.13901C1.00066 5.57191 1.23404 5.02821 1.64894 4.62721C2.06383 4.22621 2.62636 4.00064 3.21311 4H28.7869C29.3736 4.00064 29.9362 4.22621 30.3511 4.62721C30.766 5.02821 30.9993 5.57191 31 6.13901V22.3004C30.9993 22.8675 30.766 23.4112 30.3511 23.8122C29.9362 24.2133 29.3736 24.4388 28.7869 24.4395H27.6394C27.3936 24.4395 27.1507 24.4902 26.9268 24.5882C26.7029 24.6862 26.5032 24.8293 26.341 25.0079C26.1811 25.1836 26.0617 25.3903 25.991 25.6141C25.9203 25.838 25.8997 26.0738 25.9308 26.3059C26.0563 27.2335 26.4421 28.1102 27.0464 28.8411C27.1415 28.9555 27.1976 29.0956 27.207 29.2421C27.2164 29.3886 27.1786 29.5343 27.0988 29.6592C27.0343 29.7632 26.9429 29.8493 26.8337 29.909C26.7245 29.9687 26.6011 30.0001 26.4756 30ZM3.21311 4.47537C2.75675 4.47587 2.31923 4.65131 1.99653 4.9632C1.67383 5.27509 1.49232 5.69797 1.4918 6.13905V22.3005C1.49231 22.7416 1.67383 23.1644 1.99653 23.4763C2.31923 23.7882 2.75675 23.9637 3.21311 23.9642H19.2957C19.7717 23.9627 20.2353 24.1103 20.6173 24.3848C20.9993 24.6593 21.279 25.0459 21.4148 25.4869C21.5733 25.9953 21.8065 26.479 22.1072 26.9234C23.2529 28.6101 25.0878 29.2664 26.4255 29.5199C26.4741 29.53 26.5247 29.525 26.5702 29.5057C26.6157 29.4863 26.6537 29.4535 26.6788 29.412C26.7063 29.3701 26.7193 29.3209 26.7161 29.2714C26.7129 29.2219 26.6936 29.1746 26.6609 29.1363C26.0013 28.338 25.5802 27.3806 25.4432 26.3676C25.403 26.0684 25.4294 25.7644 25.5204 25.4759C25.6115 25.1873 25.7653 24.9209 25.9714 24.6943C26.1797 24.4649 26.4362 24.2812 26.7239 24.1553C27.0115 24.0293 27.3237 23.9642 27.6394 23.9642H28.7869C29.2432 23.9637 29.6808 23.7882 30.0035 23.4763C30.3262 23.1644 30.5077 22.7416 30.5082 22.3005V6.13905C30.5077 5.69797 30.3262 5.2751 30.0035 4.9632C29.6808 4.65131 29.2432 4.47587 28.7869 4.47538L3.21311 4.47537Z"/>
</mask>
<path d="M26.4756 30C26.427 30 26.3785 29.9954 26.3309 29.9863C24.9007 29.7152 22.9356 29.0091 21.6961 27.1843C21.3696 26.7019 21.1163 26.1767 20.9441 25.6248C20.8386 25.2817 20.6211 24.9808 20.3239 24.7671C20.0268 24.5534 19.6661 24.4385 19.2957 24.4395H3.21311C2.62636 24.4388 2.06383 24.2133 1.64894 23.8122C1.23404 23.4112 1.00066 22.8675 1 22.3004V6.13901C1.00066 5.57191 1.23404 5.02821 1.64894 4.62721C2.06383 4.22621 2.62636 4.00064 3.21311 4H28.7869C29.3736 4.00064 29.9362 4.22621 30.3511 4.62721C30.766 5.02821 30.9993 5.57191 31 6.13901V22.3004C30.9993 22.8675 30.766 23.4112 30.3511 23.8122C29.9362 24.2133 29.3736 24.4388 28.7869 24.4395H27.6394C27.3936 24.4395 27.1507 24.4902 26.9268 24.5882C26.7029 24.6862 26.5032 24.8293 26.341 25.0079C26.1811 25.1836 26.0617 25.3903 25.991 25.6141C25.9203 25.838 25.8997 26.0738 25.9308 26.3059C26.0563 27.2335 26.4421 28.1102 27.0464 28.8411C27.1415 28.9555 27.1976 29.0956 27.207 29.2421C27.2164 29.3886 27.1786 29.5343 27.0988 29.6592C27.0343 29.7632 26.9429 29.8493 26.8337 29.909C26.7245 29.9687 26.6011 30.0001 26.4756 30ZM3.21311 4.47537C2.75675 4.47587 2.31923 4.65131 1.99653 4.9632C1.67383 5.27509 1.49232 5.69797 1.4918 6.13905V22.3005C1.49231 22.7416 1.67383 23.1644 1.99653 23.4763C2.31923 23.7882 2.75675 23.9637 3.21311 23.9642H19.2957C19.7717 23.9627 20.2353 24.1103 20.6173 24.3848C20.9993 24.6593 21.279 25.0459 21.4148 25.4869C21.5733 25.9953 21.8065 26.479 22.1072 26.9234C23.2529 28.6101 25.0878 29.2664 26.4255 29.5199C26.4741 29.53 26.5247 29.525 26.5702 29.5057C26.6157 29.4863 26.6537 29.4535 26.6788 29.412C26.7063 29.3701 26.7193 29.3209 26.7161 29.2714C26.7129 29.2219 26.6936 29.1746 26.6609 29.1363C26.0013 28.338 25.5802 27.3806 25.4432 26.3676C25.403 26.0684 25.4294 25.7644 25.5204 25.4759C25.6115 25.1873 25.7653 24.9209 25.9714 24.6943C26.1797 24.4649 26.4362 24.2812 26.7239 24.1553C27.0115 24.0293 27.3237 23.9642 27.6394 23.9642H28.7869C29.2432 23.9637 29.6808 23.7882 30.0035 23.4763C30.3262 23.1644 30.5077 22.7416 30.5082 22.3005V6.13905C30.5077 5.69797 30.3262 5.2751 30.0035 4.9632C29.6808 4.65131 29.2432 4.47587 28.7869 4.47538L3.21311 4.47537Z" fill="#FF6969"/>
<path d="M26.4756 30L26.4776 27H26.477L26.4756 30ZM26.3309 29.9863L26.8913 27.0391L26.8896 27.0388L26.3309 29.9863ZM21.6961 27.1843L19.2117 28.8659L19.2144 28.8699L21.6961 27.1843ZM20.9441 25.6248L18.0764 26.5061L18.0803 26.5185L20.9441 25.6248ZM19.2957 24.4395V27.4395L19.3036 27.4394L19.2957 24.4395ZM3.21311 24.4395L3.20985 27.4395H3.21311V24.4395ZM1 22.3004H-2L-2 22.3039L1 22.3004ZM1 6.13901L-2 6.13551V6.13901H1ZM3.21311 4V0.999998L3.20984 1L3.21311 4ZM28.7869 4L28.7902 1H28.7869V4ZM31 6.13901H34L34 6.13551L31 6.13901ZM31 22.3004L34 22.3039V22.3004H31ZM28.7869 24.4395V27.4395L28.7901 27.4395L28.7869 24.4395ZM27.6394 24.4395V21.4395H27.639L27.6394 24.4395ZM26.341 25.0079L28.5595 27.0273L28.5619 27.0247L26.341 25.0079ZM25.9308 26.3059L22.9573 26.7039L22.9579 26.7083L25.9308 26.3059ZM27.0464 28.8411L24.7342 30.7527L24.7394 30.7589L27.0464 28.8411ZM27.0988 29.6592L24.5705 28.0444L24.5602 28.0606L24.5501 28.0769L27.0988 29.6592ZM3.21311 4.47537L3.21312 1.47537L3.20986 1.47537L3.21311 4.47537ZM1.4918 6.13905L-1.5082 6.13556V6.13905H1.4918ZM1.4918 22.3005H-1.5082L-1.50819 22.304L1.4918 22.3005ZM3.21311 23.9642L3.20987 26.9642H3.21311V23.9642ZM19.2957 23.9642V26.9642L19.3045 26.9641L19.2957 23.9642ZM21.4148 25.4869L18.5475 26.3693L18.5507 26.3799L21.4148 25.4869ZM22.1072 26.9234L19.6227 28.6048L19.6256 28.6091L22.1072 26.9234ZM26.4255 29.5199L27.0371 26.5829L27.0107 26.5774L26.9841 26.5724L26.4255 29.5199ZM26.6788 29.412L24.1686 27.7693L24.1393 27.814L24.1116 27.8598L26.6788 29.412ZM26.6609 29.1363L24.3482 31.0472L24.363 31.0651L24.3781 31.0828L26.6609 29.1363ZM25.4432 26.3676L22.4699 26.7668L22.4703 26.7698L25.4432 26.3676ZM25.9714 24.6943L28.1904 26.7132L28.1922 26.7112L25.9714 24.6943ZM27.6394 23.9642V20.9642H27.6391L27.6394 23.9642ZM28.7869 23.9642V26.9642L28.7901 26.9642L28.7869 23.9642ZM30.5082 22.3005L33.5082 22.304V22.3005H30.5082ZM30.5082 6.13905H33.5082L33.5082 6.13557L30.5082 6.13905ZM28.7869 4.47538L28.7901 1.47538H28.7869V4.47538ZM26.477 27C26.6157 27.0001 26.7544 27.0131 26.8913 27.0391L25.7704 32.9335C26.0027 32.9777 26.2383 32.9999 26.4742 33L26.477 27ZM26.8896 27.0388C25.8075 26.8337 24.7703 26.371 24.1777 25.4986L19.2144 28.8699C21.1009 31.6472 23.9939 32.5968 25.7722 32.9339L26.8896 27.0388ZM24.1805 25.5026C24.017 25.2611 23.8921 25.0011 23.8079 24.7311L18.0803 26.5185C18.3405 27.3523 18.7222 28.1427 19.2117 28.8659L24.1805 25.5026ZM23.8117 24.7436C23.5099 23.7613 22.8931 22.9195 22.0754 22.3315L18.5724 27.2027C18.349 27.0421 18.1674 26.8021 18.0764 26.5061L23.8117 24.7436ZM22.0754 22.3315C21.2593 21.7446 20.2813 21.4368 19.2878 21.4395L19.3036 27.4394C19.0509 27.4401 18.7943 27.3623 18.5724 27.2027L22.0754 22.3315ZM19.2957 21.4395H3.21311V27.4395H19.2957V21.4395ZM3.21638 21.4395C3.39183 21.4396 3.57972 21.5062 3.73383 21.6551L-0.435963 25.9694C0.547944 26.9203 1.86089 27.438 3.20985 27.4395L3.21638 21.4395ZM3.73383 21.6551C3.8914 21.8074 3.99969 22.036 4 22.2969L-2 22.3039C-1.99837 23.6991 -1.42333 25.0151 -0.435963 25.9694L3.73383 21.6551ZM4 22.3004V6.13901H-2V22.3004H4ZM4 6.14252C3.99969 6.40342 3.8914 6.63204 3.73384 6.78434L-0.435961 2.47008C-1.42332 3.42438 -1.99837 4.7404 -2 6.13551L4 6.14252ZM3.73384 6.78434C3.57972 6.93329 3.39184 6.99981 3.21639 7L3.20984 1C1.86089 1.00147 0.547944 1.51912 -0.435961 2.47008L3.73384 6.78434ZM3.21311 7H28.7869V1H3.21311V7ZM28.7836 7C28.6082 6.99981 28.4203 6.93329 28.2662 6.78434L32.436 2.47008C31.4521 1.51912 30.1391 1.00147 28.7902 1L28.7836 7ZM28.2662 6.78434C28.1086 6.63205 28.0003 6.40342 28 6.14252L34 6.13551C33.9984 4.74039 33.4233 3.42438 32.436 2.47008L28.2662 6.78434ZM28 6.13901V22.3004H34V6.13901H28ZM28 22.2969C28.0003 22.036 28.1086 21.8074 28.2662 21.6551L32.436 25.9694C33.4233 25.0151 33.9984 23.6991 34 22.3039L28 22.2969ZM28.2662 21.6551C28.4203 21.5062 28.6082 21.4396 28.7836 21.4395L28.7901 27.4395C30.1391 27.438 31.4521 26.9203 32.436 25.9694L28.2662 21.6551ZM28.7869 21.4395H27.6394V27.4395H28.7869V21.4395ZM27.639 21.4395C26.9817 21.4395 26.329 21.575 25.7237 21.84L28.1298 27.3364C27.9723 27.4054 27.8056 27.4394 27.6399 27.4395L27.639 21.4395ZM25.7237 21.84C25.1181 22.1051 24.5702 22.4955 24.1201 22.9911L28.5619 27.0247C28.4362 27.1632 28.2876 27.2674 28.1298 27.3364L25.7237 21.84ZM24.1225 22.9884C23.674 23.4811 23.3336 24.0672 23.1304 24.7101L28.8515 26.5181C28.7898 26.7134 28.6881 26.8861 28.5595 27.0273L24.1225 22.9884ZM23.1304 24.7101C22.9272 25.3533 22.8676 26.0337 22.9573 26.7039L28.9043 25.9079C28.9319 26.1139 28.9133 26.3226 28.8515 26.5181L23.1304 24.7101ZM22.9579 26.7083C23.1596 28.1984 23.7782 29.5962 24.7343 30.7527L29.3585 26.9295C29.1061 26.6243 28.9531 26.2687 28.9037 25.9036L22.9579 26.7083ZM24.7394 30.7589C24.4347 30.3923 24.245 29.9303 24.2132 29.4341L30.2009 29.0501C30.1502 28.2609 29.8483 27.5187 29.3533 26.9233L24.7394 30.7589ZM24.2132 29.4341C24.1813 28.9376 24.3106 28.4515 24.5705 28.0444L29.6271 31.2741C30.0467 30.6172 30.2515 29.8396 30.2009 29.0501L24.2132 29.4341ZM24.5501 28.0769C24.7634 27.7333 25.0575 27.461 25.3945 27.2768L28.2729 32.5413C28.8283 32.2376 29.3052 31.7932 29.6476 31.2416L24.5501 28.0769ZM25.3945 27.2768C25.7309 27.0928 26.1037 26.9998 26.4776 27L26.4736 33C27.0985 33.0004 27.7181 32.8446 28.2729 32.5413L25.3945 27.2768ZM3.20986 1.47537C1.99129 1.4767 0.803342 1.94422 -0.0883694 2.80607L4.08143 7.12033C3.83511 7.35839 3.52222 7.47504 3.21637 7.47537L3.20986 1.47537ZM-0.0883694 2.80607C-0.983535 3.67126 -1.50672 4.86647 -1.50819 6.13556L4.4918 6.14253C4.49135 6.52947 4.3312 6.87892 4.08143 7.12033L-0.0883694 2.80607ZM-1.5082 6.13905V22.3005H4.4918V6.13905H-1.5082ZM-1.50819 22.304C-1.50672 23.5731 -0.983538 24.7683 -0.088371 25.6335L4.08143 21.3192C4.3312 21.5606 4.49135 21.9101 4.4918 22.297L-1.50819 22.304ZM-0.088371 25.6335C0.80334 26.4953 1.99129 26.9628 3.20987 26.9642L3.21636 20.9642C3.52221 20.9645 3.83511 21.0811 4.08143 21.3192L-0.088371 25.6335ZM3.21311 26.9642H19.2957V20.9642H3.21311V26.9642ZM19.3045 26.9641C19.1574 26.9646 19.0038 26.9196 18.8667 26.821L22.3679 21.9486C21.4668 21.301 20.3859 20.9609 19.2868 20.9642L19.3045 26.9641ZM18.8667 26.821C18.728 26.7214 18.6084 26.5673 18.5475 26.3693L24.282 24.6044C23.9497 23.5245 23.2705 22.5972 22.3679 21.9486L18.8667 26.821ZM18.5507 26.3799C18.7972 27.1703 19.1589 27.9195 19.6227 28.6048L24.5917 25.242C24.4541 25.0386 24.3493 24.8202 24.2788 24.5938L18.5507 26.3799ZM19.6256 28.6091C21.4225 31.2545 24.1929 32.1502 25.8668 32.4674L26.9841 26.5724C25.9828 26.3826 25.0833 25.9657 24.5888 25.2377L19.6256 28.6091ZM25.8138 32.4569C26.4596 32.5913 27.1338 32.5262 27.7452 32.266L25.3953 26.7453C25.9156 26.5238 26.4886 26.4687 27.0371 26.5829L25.8138 32.4569ZM27.7452 32.266C28.3577 32.0053 28.8883 31.556 29.246 30.9643L24.1116 27.8598C24.4192 27.351 24.8738 26.9673 25.3953 26.7453L27.7452 32.266ZM29.1891 31.0548C29.5686 30.4749 29.7555 29.7821 29.7098 29.0771L23.7224 29.4656C23.6831 28.8597 23.8439 28.2653 24.1686 27.7693L29.1891 31.0548ZM29.7098 29.0771C29.6641 28.3725 29.3897 27.7129 28.9438 27.1899L24.3781 31.0828C23.9974 30.6363 23.7617 30.0712 23.7224 29.4656L29.7098 29.0771ZM28.9736 27.2255C28.6656 26.8527 28.4771 26.4162 28.4161 25.9654L22.4703 26.7698C22.6834 28.345 23.3371 29.8234 24.3482 31.0472L28.9736 27.2255ZM28.4165 25.9684C28.4352 26.1074 28.4226 26.248 28.3813 26.3789L22.6596 24.5728C22.4361 25.2808 22.3709 26.0295 22.4699 26.7668L28.4165 25.9684ZM28.3813 26.3789C28.3401 26.5096 28.2728 26.6227 28.1904 26.7132L23.7523 22.6754C23.2578 23.219 22.883 23.8651 22.6596 24.5728L28.3813 26.3789ZM28.1922 26.7112C28.1126 26.7989 28.0209 26.8624 27.9269 26.9035L25.5209 21.407C24.8516 21.7 24.2468 22.131 23.7506 22.6774L28.1922 26.7112ZM27.9269 26.9035C27.8331 26.9445 27.7355 26.9641 27.6398 26.9642L27.6391 20.9642C26.9118 20.9642 26.19 21.1141 25.5209 21.407L27.9269 26.9035ZM27.6394 26.9642H28.7869V20.9642H27.6394V26.9642ZM28.7901 26.9642C30.0087 26.9628 31.1967 26.4953 32.0884 25.6335L27.9186 21.3192C28.1649 21.0811 28.4778 20.9645 28.7836 20.9642L28.7901 26.9642ZM32.0884 25.6335C32.9835 24.7683 33.5067 23.5731 33.5082 22.304L27.5082 22.297C27.5086 21.9101 27.6688 21.5606 27.9186 21.3192L32.0884 25.6335ZM33.5082 22.3005V6.13905H27.5082V22.3005H33.5082ZM33.5082 6.13557C33.5067 4.86647 32.9835 3.67127 32.0884 2.80608L27.9186 7.12033C27.6688 6.87892 27.5086 6.52947 27.5082 6.14254L33.5082 6.13557ZM32.0884 2.80608C31.1967 1.94422 30.0087 1.4767 28.7901 1.47538L28.7836 7.47538C28.4778 7.47504 28.1649 7.3584 27.9186 7.12033L32.0884 2.80608ZM28.7869 1.47538L3.21312 1.47537L3.21311 7.47537L28.7869 7.47538L28.7869 1.47538Z" fill="#FF6969" mask="url(#path-1-inside-1_214_666)"/>
</g>
<g id="Vector_2">
<mask id="path-3-inside-2_214_666" fill="white">
<path d="M26.4756 30C26.427 30 26.3785 29.9954 26.3309 29.9863C24.9007 29.7152 22.9356 29.0091 21.6961 27.1843C21.3696 26.7019 21.1163 26.1767 20.9441 25.6248C20.8386 25.2817 20.6211 24.9808 20.3239 24.7671C20.0268 24.5534 19.6661 24.4385 19.2957 24.4395H3.21311C2.62636 24.4388 2.06383 24.2133 1.64894 23.8122C1.23404 23.4112 1.00066 22.8675 1 22.3004V6.13901C1.00066 5.57191 1.23404 5.02821 1.64894 4.62721C2.06383 4.22621 2.62636 4.00064 3.21311 4H28.7869C29.3736 4.00064 29.9362 4.22621 30.3511 4.62721C30.766 5.02821 30.9993 5.57191 31 6.13901V22.3004C30.9993 22.8675 30.766 23.4112 30.3511 23.8122C29.9362 24.2133 29.3736 24.4388 28.7869 24.4395H27.6394C27.3936 24.4395 27.1507 24.4902 26.9268 24.5882C26.7029 24.6862 26.5032 24.8293 26.341 25.0079C26.1811 25.1836 26.0617 25.3903 25.991 25.6141C25.9203 25.838 25.8997 26.0738 25.9308 26.3059C26.0563 27.2335 26.4421 28.1102 27.0464 28.8411C27.1415 28.9555 27.1976 29.0956 27.207 29.2421C27.2164 29.3886 27.1786 29.5343 27.0988 29.6592C27.0343 29.7632 26.9429 29.8493 26.8337 29.909C26.7245 29.9687 26.6011 30.0001 26.4756 30ZM3.21311 4.47537C2.75675 4.47587 2.31923 4.65131 1.99653 4.9632C1.67383 5.27509 1.49232 5.69797 1.4918 6.13905V22.3005C1.49231 22.7416 1.67383 23.1644 1.99653 23.4763C2.31923 23.7882 2.75675 23.9637 3.21311 23.9642H19.2957C19.7717 23.9627 20.2353 24.1103 20.6173 24.3848C20.9993 24.6593 21.279 25.0459 21.4148 25.4869C21.5733 25.9953 21.8065 26.479 22.1072 26.9234C23.2529 28.6101 25.0878 29.2664 26.4255 29.5199C26.4741 29.53 26.5247 29.525 26.5702 29.5057C26.6157 29.4863 26.6537 29.4535 26.6788 29.412C26.7063 29.3701 26.7193 29.3209 26.7161 29.2714C26.7129 29.2219 26.6936 29.1746 26.6609 29.1363C26.0013 28.338 25.5802 27.3806 25.4432 26.3676C25.403 26.0684 25.4294 25.7644 25.5204 25.4759C25.6115 25.1873 25.7653 24.9209 25.9714 24.6943C26.1797 24.4649 26.4362 24.2812 26.7239 24.1553C27.0115 24.0293 27.3237 23.9642 27.6394 23.9642H28.7869C29.2432 23.9637 29.6808 23.7882 30.0035 23.4763C30.3262 23.1644 30.5077 22.7416 30.5082 22.3005V6.13905C30.5077 5.69797 30.3262 5.2751 30.0035 4.9632C29.6808 4.65131 29.2432 4.47587 28.7869 4.47538L3.21311 4.47537Z"/>
</mask>
<path d="M26.4756 30C26.427 30 26.3785 29.9954 26.3309 29.9863C24.9007 29.7152 22.9356 29.0091 21.6961 27.1843C21.3696 26.7019 21.1163 26.1767 20.9441 25.6248C20.8386 25.2817 20.6211 24.9808 20.3239 24.7671C20.0268 24.5534 19.6661 24.4385 19.2957 24.4395H3.21311C2.62636 24.4388 2.06383 24.2133 1.64894 23.8122C1.23404 23.4112 1.00066 22.8675 1 22.3004V6.13901C1.00066 5.57191 1.23404 5.02821 1.64894 4.62721C2.06383 4.22621 2.62636 4.00064 3.21311 4H28.7869C29.3736 4.00064 29.9362 4.22621 30.3511 4.62721C30.766 5.02821 30.9993 5.57191 31 6.13901V22.3004C30.9993 22.8675 30.766 23.4112 30.3511 23.8122C29.9362 24.2133 29.3736 24.4388 28.7869 24.4395H27.6394C27.3936 24.4395 27.1507 24.4902 26.9268 24.5882C26.7029 24.6862 26.5032 24.8293 26.341 25.0079C26.1811 25.1836 26.0617 25.3903 25.991 25.6141C25.9203 25.838 25.8997 26.0738 25.9308 26.3059C26.0563 27.2335 26.4421 28.1102 27.0464 28.8411C27.1415 28.9555 27.1976 29.0956 27.207 29.2421C27.2164 29.3886 27.1786 29.5343 27.0988 29.6592C27.0343 29.7632 26.9429 29.8493 26.8337 29.909C26.7245 29.9687 26.6011 30.0001 26.4756 30ZM3.21311 4.47537C2.75675 4.47587 2.31923 4.65131 1.99653 4.9632C1.67383 5.27509 1.49232 5.69797 1.4918 6.13905V22.3005C1.49231 22.7416 1.67383 23.1644 1.99653 23.4763C2.31923 23.7882 2.75675 23.9637 3.21311 23.9642H19.2957C19.7717 23.9627 20.2353 24.1103 20.6173 24.3848C20.9993 24.6593 21.279 25.0459 21.4148 25.4869C21.5733 25.9953 21.8065 26.479 22.1072 26.9234C23.2529 28.6101 25.0878 29.2664 26.4255 29.5199C26.4741 29.53 26.5247 29.525 26.5702 29.5057C26.6157 29.4863 26.6537 29.4535 26.6788 29.412C26.7063 29.3701 26.7193 29.3209 26.7161 29.2714C26.7129 29.2219 26.6936 29.1746 26.6609 29.1363C26.0013 28.338 25.5802 27.3806 25.4432 26.3676C25.403 26.0684 25.4294 25.7644 25.5204 25.4759C25.6115 25.1873 25.7653 24.9209 25.9714 24.6943C26.1797 24.4649 26.4362 24.2812 26.7239 24.1553C27.0115 24.0293 27.3237 23.9642 27.6394 23.9642H28.7869C29.2432 23.9637 29.6808 23.7882 30.0035 23.4763C30.3262 23.1644 30.5077 22.7416 30.5082 22.3005V6.13905C30.5077 5.69797 30.3262 5.2751 30.0035 4.9632C29.6808 4.65131 29.2432 4.47587 28.7869 4.47538L3.21311 4.47537Z" fill="#FF6969"/>
<path d="M26.4756 30L26.4776 27H26.477L26.4756 30ZM26.3309 29.9863L26.8913 27.0391L26.8896 27.0388L26.3309 29.9863ZM21.6961 27.1843L19.2117 28.8659L19.2144 28.8699L21.6961 27.1843ZM20.9441 25.6248L18.0764 26.5061L18.0803 26.5185L20.9441 25.6248ZM19.2957 24.4395V27.4395L19.3036 27.4394L19.2957 24.4395ZM3.21311 24.4395L3.20985 27.4395H3.21311V24.4395ZM1 22.3004H-2L-2 22.3039L1 22.3004ZM1 6.13901L-2 6.13551V6.13901H1ZM3.21311 4V0.999998L3.20984 1L3.21311 4ZM28.7869 4L28.7902 1H28.7869V4ZM31 6.13901H34L34 6.13551L31 6.13901ZM31 22.3004L34 22.3039V22.3004H31ZM28.7869 24.4395V27.4395L28.7902 27.4395L28.7869 24.4395ZM27.6394 24.4395V21.4395H27.639L27.6394 24.4395ZM26.341 25.0079L28.5595 27.0273L28.5619 27.0247L26.341 25.0079ZM25.9308 26.3059L22.9573 26.7039L22.9579 26.7083L25.9308 26.3059ZM27.0464 28.8411L24.7342 30.7527L24.7394 30.7589L27.0464 28.8411ZM27.0988 29.6592L24.5705 28.0444L24.5602 28.0606L24.5501 28.0769L27.0988 29.6592ZM3.21311 4.47537L3.21312 1.47537L3.20986 1.47537L3.21311 4.47537ZM1.4918 6.13905L-1.5082 6.13556V6.13905H1.4918ZM1.4918 22.3005H-1.5082L-1.50819 22.304L1.4918 22.3005ZM3.21311 23.9642L3.20987 26.9642H3.21311V23.9642ZM19.2957 23.9642V26.9642L19.3045 26.9641L19.2957 23.9642ZM21.4148 25.4869L18.5475 26.3693L18.5507 26.3799L21.4148 25.4869ZM22.1072 26.9234L19.6227 28.6048L19.6256 28.6091L22.1072 26.9234ZM26.4255 29.5199L27.0371 26.5829L27.0107 26.5774L26.9841 26.5724L26.4255 29.5199ZM26.6788 29.412L24.1686 27.7693L24.1393 27.814L24.1116 27.8598L26.6788 29.412ZM26.6609 29.1363L24.3482 31.0472L24.363 31.0651L24.3781 31.0828L26.6609 29.1363ZM25.4432 26.3676L22.4699 26.7668L22.4703 26.7698L25.4432 26.3676ZM25.9714 24.6943L28.1904 26.7132L28.1922 26.7112L25.9714 24.6943ZM27.6394 23.9642V20.9642H27.6391L27.6394 23.9642ZM28.7869 23.9642V26.9642L28.7901 26.9642L28.7869 23.9642ZM30.5082 22.3005L33.5082 22.304V22.3005H30.5082ZM30.5082 6.13905H33.5082L33.5082 6.13557L30.5082 6.13905ZM28.7869 4.47538L28.7901 1.47538H28.7869V4.47538ZM26.477 27C26.6157 27.0001 26.7544 27.0131 26.8913 27.0392L25.7704 32.9335C26.0027 32.9777 26.2383 32.9999 26.4742 33L26.477 27ZM26.8896 27.0388C25.8075 26.8337 24.7703 26.371 24.1777 25.4986L19.2144 28.8699C21.1009 31.6472 23.9939 32.5968 25.7722 32.9339L26.8896 27.0388ZM24.1805 25.5026C24.017 25.2611 23.8921 25.0011 23.8079 24.7311L18.0803 26.5185C18.3405 27.3523 18.7222 28.1427 19.2117 28.8659L24.1805 25.5026ZM23.8117 24.7436C23.5099 23.7613 22.8931 22.9195 22.0754 22.3315L18.5724 27.2027C18.349 27.0421 18.1674 26.8021 18.0764 26.5061L23.8117 24.7436ZM22.0754 22.3315C21.2593 21.7446 20.2813 21.4368 19.2878 21.4395L19.3036 27.4394C19.0509 27.4401 18.7943 27.3623 18.5724 27.2027L22.0754 22.3315ZM19.2957 21.4395H3.21311V27.4395H19.2957V21.4395ZM3.21638 21.4395C3.39183 21.4396 3.57972 21.5062 3.73384 21.6551L-0.435963 25.9694C0.547947 26.9203 1.8609 27.438 3.20985 27.4395L3.21638 21.4395ZM3.73384 21.6551C3.8914 21.8074 3.99969 22.036 4 22.2969L-2 22.3039C-1.99837 23.6991 -1.42332 25.0151 -0.435963 25.9694L3.73384 21.6551ZM4 22.3004V6.13901H-2V22.3004H4ZM4 6.14252C3.99969 6.40342 3.8914 6.63204 3.73384 6.78434L-0.435961 2.47008C-1.42332 3.42438 -1.99837 4.7404 -2 6.13551L4 6.14252ZM3.73384 6.78434C3.57972 6.93329 3.39184 6.99981 3.21639 7L3.20984 1C1.86089 1.00147 0.547944 1.51912 -0.435961 2.47008L3.73384 6.78434ZM3.21311 7H28.7869V1H3.21311V7ZM28.7836 7C28.6082 6.99981 28.4203 6.93329 28.2662 6.78434L32.436 2.47008C31.4521 1.51912 30.1391 1.00147 28.7902 1L28.7836 7ZM28.2662 6.78434C28.1086 6.63204 28.0003 6.40342 28 6.14252L34 6.13551C33.9984 4.7404 33.4233 3.42438 32.436 2.47008L28.2662 6.78434ZM28 6.13901V22.3004H34V6.13901H28ZM28 22.2969C28.0003 22.036 28.1086 21.8074 28.2662 21.6551L32.436 25.9694C33.4233 25.0151 33.9984 23.6991 34 22.3039L28 22.2969ZM28.2662 21.6551C28.4203 21.5062 28.6082 21.4396 28.7836 21.4395L28.7902 27.4395C30.1391 27.438 31.4521 26.9203 32.436 25.9694L28.2662 21.6551ZM28.7869 21.4395H27.6394V27.4395H28.7869V21.4395ZM27.639 21.4395C26.9817 21.4395 26.329 21.575 25.7237 21.84L28.1298 27.3364C27.9723 27.4054 27.8056 27.4394 27.6399 27.4395L27.639 21.4395ZM25.7237 21.84C25.1181 22.1051 24.5702 22.4955 24.1201 22.9911L28.5619 27.0247C28.4362 27.1632 28.2876 27.2674 28.1298 27.3364L25.7237 21.84ZM24.1225 22.9884C23.674 23.4811 23.3336 24.0672 23.1304 24.7101L28.8515 26.5181C28.7898 26.7134 28.6881 26.8861 28.5595 27.0273L24.1225 22.9884ZM23.1304 24.7101C22.9272 25.3533 22.8676 26.0337 22.9573 26.7039L28.9043 25.9079C28.9319 26.1139 28.9133 26.3226 28.8515 26.5181L23.1304 24.7101ZM22.9579 26.7083C23.1596 28.1984 23.7782 29.5962 24.7343 30.7527L29.3585 26.9295C29.1061 26.6243 28.9531 26.2687 28.9037 25.9036L22.9579 26.7083ZM24.7394 30.7589C24.4347 30.3923 24.245 29.9302 24.2132 29.4341L30.2009 29.0501C30.1502 28.261 29.8483 27.5187 29.3533 26.9233L24.7394 30.7589ZM24.2132 29.4341C24.1813 28.9376 24.3106 28.4515 24.5705 28.0444L29.6271 31.2741C30.0467 30.6172 30.2515 29.8396 30.2009 29.0501L24.2132 29.4341ZM24.5501 28.0769C24.7634 27.7333 25.0575 27.461 25.3945 27.2768L28.2729 32.5412C28.8283 32.2376 29.3052 31.7932 29.6476 31.2416L24.5501 28.0769ZM25.3945 27.2768C25.7309 27.0928 26.1037 26.9998 26.4776 27L26.4736 33C27.0985 33.0004 27.7181 32.8446 28.2729 32.5412L25.3945 27.2768ZM3.20986 1.47537C1.99129 1.4767 0.803342 1.94422 -0.0883694 2.80607L4.08143 7.12033C3.83511 7.35839 3.52222 7.47504 3.21637 7.47537L3.20986 1.47537ZM-0.0883694 2.80607C-0.983535 3.67126 -1.50672 4.86647 -1.50819 6.13556L4.4918 6.14253C4.49135 6.52947 4.3312 6.87892 4.08143 7.12033L-0.0883694 2.80607ZM-1.5082 6.13905V22.3005H4.4918V6.13905H-1.5082ZM-1.50819 22.304C-1.50672 23.5731 -0.983537 24.7683 -0.088371 25.6335L4.08143 21.3192C4.3312 21.5606 4.49135 21.9101 4.4918 22.297L-1.50819 22.304ZM-0.088371 25.6335C0.803342 26.4953 1.99129 26.9628 3.20987 26.9642L3.21636 20.9642C3.52221 20.9645 3.83511 21.0811 4.08143 21.3192L-0.088371 25.6335ZM3.21311 26.9642H19.2957V20.9642H3.21311V26.9642ZM19.3045 26.9641C19.1574 26.9646 19.0038 26.9196 18.8667 26.821L22.3679 21.9486C21.4668 21.301 20.3859 20.9609 19.2868 20.9642L19.3045 26.9641ZM18.8667 26.821C18.728 26.7214 18.6084 26.5673 18.5475 26.3693L24.282 24.6044C23.9497 23.5245 23.2706 22.5972 22.3679 21.9486L18.8667 26.821ZM18.5507 26.3799C18.7972 27.1704 19.1589 27.9195 19.6227 28.6048L24.5917 25.242C24.4541 25.0386 24.3493 24.8202 24.2788 24.5939L18.5507 26.3799ZM19.6256 28.6091C21.4225 31.2545 24.1929 32.1502 25.8668 32.4674L26.9841 26.5724C25.9828 26.3826 25.0833 25.9657 24.5888 25.2377L19.6256 28.6091ZM25.8138 32.4569C26.4596 32.5913 27.1338 32.5262 27.7452 32.266L25.3953 26.7453C25.9156 26.5238 26.4886 26.4687 27.0371 26.5829L25.8138 32.4569ZM27.7452 32.266C28.3577 32.0053 28.8882 31.556 29.246 30.9643L24.1116 27.8598C24.4192 27.351 24.8738 26.9673 25.3953 26.7453L27.7452 32.266ZM29.1891 31.0548C29.5685 30.4749 29.7555 29.7821 29.7098 29.0771L23.7224 29.4656C23.6831 28.8597 23.844 28.2653 24.1686 27.7693L29.1891 31.0548ZM29.7098 29.0771C29.6641 28.3725 29.3897 27.7129 28.9438 27.1899L24.3781 31.0828C23.9974 30.6363 23.7617 30.0712 23.7224 29.4656L29.7098 29.0771ZM28.9736 27.2255C28.6656 26.8527 28.4771 26.4162 28.4161 25.9654L22.4703 26.7698C22.6834 28.345 23.3371 29.8234 24.3482 31.0472L28.9736 27.2255ZM28.4165 25.9684C28.4352 26.1074 28.4226 26.248 28.3813 26.3789L22.6596 24.5728C22.4361 25.2808 22.3709 26.0295 22.4699 26.7668L28.4165 25.9684ZM28.3813 26.3789C28.3401 26.5096 28.2728 26.6227 28.1904 26.7132L23.7523 22.6754C23.2578 23.219 22.883 23.8651 22.6596 24.5728L28.3813 26.3789ZM28.1922 26.7112C28.1126 26.7989 28.0208 26.8624 27.9269 26.9035L25.5209 21.407C24.8516 21.7 24.2468 22.131 23.7506 22.6774L28.1922 26.7112ZM27.9269 26.9035C27.8331 26.9445 27.7356 26.9641 27.6398 26.9642L27.6391 20.9642C26.9118 20.9642 26.19 21.1141 25.5209 21.407L27.9269 26.9035ZM27.6394 26.9642H28.7869V20.9642H27.6394V26.9642ZM28.7901 26.9642C30.0087 26.9628 31.1967 26.4953 32.0884 25.6335L27.9186 21.3192C28.1649 21.0811 28.4778 20.9645 28.7836 20.9642L28.7901 26.9642ZM32.0884 25.6335C32.9835 24.7683 33.5067 23.5731 33.5082 22.304L27.5082 22.297C27.5086 21.9101 27.6688 21.5606 27.9186 21.3192L32.0884 25.6335ZM33.5082 22.3005V6.13905H27.5082V22.3005H33.5082ZM33.5082 6.13557C33.5067 4.86647 32.9835 3.67127 32.0884 2.80608L27.9186 7.12033C27.6688 6.87892 27.5086 6.52947 27.5082 6.14254L33.5082 6.13557ZM32.0884 2.80608C31.1967 1.94422 30.0087 1.4767 28.7901 1.47538L28.7836 7.47538C28.4778 7.47504 28.1649 7.3584 27.9186 7.12033L32.0884 2.80608ZM28.7869 1.47538L3.21312 1.47537L3.21311 7.47537L28.7869 7.47538V1.47538Z" fill="#FF6969" mask="url(#path-3-inside-2_214_666)"/>
</g>
<path id="Vector_3" d="M5.51684 18.0776L5.51604 18.0776L4.5551 18.0776C4.38454 18.0776 4.21564 18.044 4.05805 17.9787C3.90047 17.9135 3.75728 17.8178 3.63667 17.6972C3.51606 17.5766 3.42039 17.4334 3.35512 17.2758C3.28984 17.1182 3.25625 16.9493 3.25625 16.7787V2.7635V2.7635C3.25625 2.59293 3.28984 2.42403 3.35511 2.26644C3.42039 2.10886 3.51606 1.96567 3.63667 1.84506C3.75728 1.72444 3.90046 1.62877 4.05805 1.5635C4.21564 1.49822 4.38453 1.46462 4.5551 1.46462H25.9902C26.1608 1.46462 26.3297 1.49822 26.4872 1.56349L26.6212 1.24014L26.4872 1.5635C26.6448 1.62877 26.788 1.72444 26.9086 1.84506C27.0292 1.96567 27.1249 2.10886 27.1902 2.26644C27.2554 2.42403 27.289 2.59293 27.289 2.7635V16.7787C27.289 17.1232 27.1522 17.4536 26.9086 17.6972C26.665 17.9408 26.3347 18.0776 25.9902 18.0776H12.5103H12.5099C12.0804 18.078 11.6625 18.2166 11.3179 18.4729C10.9733 18.7292 10.7203 19.0896 10.5963 19.5008L10.5963 19.5009C10.4675 19.9284 10.2779 20.3353 10.0334 20.7089C9.09668 22.1357 7.58314 22.6869 6.50798 22.898C6.49564 22.9002 6.48291 22.8987 6.47146 22.8936L6.32858 23.2131L6.47146 22.8936C6.45986 22.8884 6.45013 22.8798 6.44358 22.8689C6.43703 22.858 6.43398 22.8454 6.43484 22.8327C6.4357 22.82 6.44043 22.8079 6.44839 22.798L6.44927 22.7969C6.87367 22.264 7.1855 21.6505 7.36589 20.9936L7.36601 20.9931C7.42601 20.7736 7.47091 20.5501 7.5004 20.3244L7.5006 20.3228C7.53606 20.0415 7.51116 19.7559 7.42758 19.485C7.344 19.214 7.20365 18.964 7.01587 18.7516C6.8281 18.5392 6.59721 18.3692 6.3386 18.253L6.19514 18.5722M5.51684 18.0776V18.4276C5.75064 18.4271 5.98187 18.4764 6.19514 18.5722M5.51684 18.0776C5.80009 18.0771 6.08022 18.1368 6.3386 18.2529L6.19514 18.5722M5.51684 18.0776L6.19514 18.5722" fill="white" stroke="#FF6969" stroke-width="0.7"/>
<path id="Vector_4" d="M6.49211 23.4919C6.38078 23.492 6.27133 23.4632 6.17443 23.4084C6.07752 23.3536 5.99646 23.2746 5.93915 23.1792C5.8684 23.0645 5.83489 22.9308 5.84323 22.7964C5.85156 22.662 5.90133 22.5334 5.98569 22.4284C6.48809 21.7998 6.80886 21.0456 6.91324 20.2477C6.93861 20.0514 6.92183 19.8521 6.86403 19.6629C6.80623 19.4737 6.70873 19.299 6.57805 19.1504C6.44553 18.9994 6.28232 18.8785 6.09933 18.7956C5.91634 18.7127 5.71777 18.6698 5.51688 18.6698H4.55509C4.05373 18.6692 3.57306 18.4698 3.21855 18.1153C2.86404 17.7608 2.66463 17.2801 2.66406 16.7787V2.7635C2.66462 2.26214 2.86403 1.78147 3.21855 1.42695C3.57306 1.07243 4.05372 0.873009 4.55509 0.872437H25.9902C26.4916 0.873012 26.9722 1.07244 27.3267 1.42696C27.6813 1.78148 27.8807 2.26214 27.8812 2.7635V16.7787C27.8807 17.2801 27.6812 17.7608 27.3267 18.1153C26.9722 18.4698 26.4916 18.6692 25.9902 18.6698H12.5103C12.2076 18.669 11.9128 18.7662 11.67 18.9469C11.4272 19.1276 11.2494 19.382 11.1632 19.6721C11.0178 20.154 10.8041 20.6126 10.5285 21.0338C9.48274 22.6268 7.82616 23.243 6.6206 23.4794C6.57828 23.4877 6.53525 23.4919 6.49211 23.4919ZM4.55509 1.35681C4.18214 1.35724 3.8246 1.50558 3.56089 1.76929C3.29718 2.03301 3.14885 2.39056 3.14844 2.7635V16.7787C3.14885 17.1517 3.29719 17.5092 3.56089 17.7729C3.8246 18.0367 4.18214 18.185 4.55509 18.1854H5.51686C5.78665 18.1854 6.05333 18.243 6.29909 18.3543C6.54486 18.4656 6.76404 18.6281 6.94202 18.8309C7.11819 19.0312 7.24958 19.2668 7.32743 19.5219C7.40528 19.7771 7.42779 20.0459 7.39346 20.3104C7.27776 21.1954 6.92221 22.0318 6.36529 22.7293C6.34265 22.7567 6.32925 22.7906 6.32701 22.8262C6.32477 22.8617 6.3338 22.8971 6.35281 22.9272C6.36986 22.957 6.39602 22.9805 6.42745 22.9944C6.45888 23.0082 6.49392 23.0116 6.52742 23.004C7.64174 22.7855 9.17025 22.2202 10.1236 20.768C10.3738 20.3855 10.5678 19.9691 10.6997 19.5315C10.8157 19.1417 11.0547 18.7999 11.3811 18.5573C11.7074 18.3146 12.1036 18.1842 12.5103 18.1854H25.9902C26.3632 18.185 26.7207 18.0367 26.9844 17.7729C27.2481 17.5092 27.3964 17.1517 27.3969 16.7787V2.7635C27.3964 2.39056 27.2481 2.03301 26.9844 1.7693C26.7207 1.50558 26.3632 1.35724 25.9902 1.35681H4.55509Z" fill="#FF6969"/>
<g id="Vector_5">
<mask id="path-7-inside-3_214_666" fill="white">
<path d="M17.4375 14.7734H8.71875C8.39759 14.7734 8.08958 14.6459 7.86249 14.4188C7.63539 14.1917 7.50781 13.8837 7.50781 13.5625C7.50781 13.2413 7.63539 12.9333 7.86249 12.7062C8.08958 12.4791 8.39759 12.3516 8.71875 12.3516H17.4375C17.7587 12.3516 18.0667 12.4791 18.2938 12.7062C18.5209 12.9333 18.6484 13.2413 18.6484 13.5625C18.6484 13.8837 18.5209 14.1917 18.2938 14.4188C18.0667 14.6459 17.7587 14.7734 17.4375 14.7734ZM8.71875 12.8359C8.52605 12.8359 8.34125 12.9125 8.20499 13.0487C8.06874 13.185 7.99219 13.3698 7.99219 13.5625C7.99219 13.7552 8.06874 13.94 8.20499 14.0763C8.34125 14.2125 8.52605 14.2891 8.71875 14.2891H17.4375C17.6302 14.2891 17.815 14.2125 17.9513 14.0763C18.0875 13.94 18.1641 13.7552 18.1641 13.5625C18.1641 13.3698 18.0875 13.185 17.9513 13.0487C17.815 12.9125 17.6302 12.8359 17.4375 12.8359H8.71875Z"/>
</mask>
<path d="M17.4375 14.7734H8.71875C8.39759 14.7734 8.08958 14.6459 7.86249 14.4188C7.63539 14.1917 7.50781 13.8837 7.50781 13.5625C7.50781 13.2413 7.63539 12.9333 7.86249 12.7062C8.08958 12.4791 8.39759 12.3516 8.71875 12.3516H17.4375C17.7587 12.3516 18.0667 12.4791 18.2938 12.7062C18.5209 12.9333 18.6484 13.2413 18.6484 13.5625C18.6484 13.8837 18.5209 14.1917 18.2938 14.4188C18.0667 14.6459 17.7587 14.7734 17.4375 14.7734ZM8.71875 12.8359C8.52605 12.8359 8.34125 12.9125 8.20499 13.0487C8.06874 13.185 7.99219 13.3698 7.99219 13.5625C7.99219 13.7552 8.06874 13.94 8.20499 14.0763C8.34125 14.2125 8.52605 14.2891 8.71875 14.2891H17.4375C17.6302 14.2891 17.815 14.2125 17.9513 14.0763C18.0875 13.94 18.1641 13.7552 18.1641 13.5625C18.1641 13.3698 18.0875 13.185 17.9513 13.0487C17.815 12.9125 17.6302 12.8359 17.4375 12.8359H8.71875Z" fill="#FF6969"/>
<path d="M8.71875 14.7734V13.7734V14.7734ZM8.71875 12.3516V11.3516V12.3516ZM17.4375 12.3516V11.3516V12.3516ZM8.71875 12.8359V13.8359V12.8359ZM17.4375 14.2891V15.2891V14.2891ZM17.4375 13.7734H8.71875V15.7734H17.4375V13.7734ZM8.71875 13.7734C8.66281 13.7734 8.60915 13.7512 8.56959 13.7117L7.15538 15.1259C7.57001 15.5405 8.13237 15.7734 8.71875 15.7734V13.7734ZM8.56959 13.7117C8.53004 13.6721 8.50781 13.6184 8.50781 13.5625H6.50781C6.50781 14.1489 6.74075 14.7112 7.15538 15.1259L8.56959 13.7117ZM8.50781 13.5625C8.50781 13.5066 8.53004 13.4529 8.56959 13.4133L7.15538 11.9991C6.74075 12.4138 6.50781 12.9761 6.50781 13.5625H8.50781ZM8.56959 13.4133C8.60915 13.3738 8.66281 13.3516 8.71875 13.3516V11.3516C8.13237 11.3516 7.57001 11.5845 7.15538 11.9991L8.56959 13.4133ZM8.71875 13.3516H17.4375V11.3516H8.71875V13.3516ZM17.4375 13.3516C17.4934 13.3516 17.5471 13.3738 17.5867 13.4133L19.0009 11.9991C18.5862 11.5845 18.0239 11.3516 17.4375 11.3516V13.3516ZM17.5867 13.4133C17.6262 13.4529 17.6484 13.5066 17.6484 13.5625H19.6484C19.6484 12.9761 19.4155 12.4138 19.0009 11.9991L17.5867 13.4133ZM17.6484 13.5625C17.6484 13.6184 17.6262 13.6721 17.5867 13.7117L19.0009 15.1259C19.4155 14.7112 19.6484 14.1489 19.6484 13.5625H17.6484ZM17.5867 13.7117C17.5471 13.7512 17.4934 13.7734 17.4375 13.7734V15.7734C18.0239 15.7734 18.5862 15.5405 19.0009 15.1259L17.5867 13.7117ZM8.71875 11.8359C8.26084 11.8359 7.82168 12.0178 7.49789 12.3416L8.9121 13.7558C8.86082 13.8071 8.79127 13.8359 8.71875 13.8359V11.8359ZM7.49789 12.3416C7.17409 12.6654 6.99219 13.1046 6.99219 13.5625H8.99219C8.99219 13.635 8.96338 13.7046 8.9121 13.7558L7.49789 12.3416ZM6.99219 13.5625C6.99219 14.0204 7.17409 14.4596 7.49789 14.7834L8.9121 13.3692C8.96338 13.4204 8.99219 13.49 8.99219 13.5625H6.99219ZM7.49789 14.7834C7.82168 15.1072 8.26084 15.2891 8.71875 15.2891V13.2891C8.79127 13.2891 8.86082 13.3179 8.9121 13.3692L7.49789 14.7834ZM8.71875 15.2891H17.4375V13.2891H8.71875V15.2891ZM17.4375 15.2891C17.8954 15.2891 18.3346 15.1072 18.6584 14.7834L17.2442 13.3692C17.2954 13.3179 17.365 13.2891 17.4375 13.2891V15.2891ZM18.6584 14.7834C18.9822 14.4596 19.1641 14.0204 19.1641 13.5625H17.1641C17.1641 13.49 17.1929 13.4204 17.2442 13.3692L18.6584 14.7834ZM19.1641 13.5625C19.1641 13.1046 18.9822 12.6654 18.6584 12.3416L17.2442 13.7558C17.1929 13.7046 17.1641 13.635 17.1641 13.5625H19.1641ZM18.6584 12.3416C18.3346 12.0178 17.8954 11.8359 17.4375 11.8359V13.8359C17.365 13.8359 17.2954 13.8071 17.2442 13.7558L18.6584 12.3416ZM17.4375 11.8359H8.71875V13.8359H17.4375V11.8359Z" fill="#FF6969" mask="url(#path-7-inside-3_214_666)"/>
</g>
<g id="Vector_6">
<mask id="path-9-inside-4_214_666" fill="white">
<path d="M22.2812 10.8984H8.71875C8.39759 10.8984 8.08958 10.7709 7.86249 10.5438C7.63539 10.3167 7.50781 10.0087 7.50781 9.6875C7.50781 9.36634 7.63539 9.05833 7.86249 8.83124C8.08958 8.60414 8.39759 8.47656 8.71875 8.47656H22.2812C22.6024 8.47656 22.9104 8.60414 23.1375 8.83124C23.3646 9.05833 23.4922 9.36634 23.4922 9.6875C23.4922 10.0087 23.3646 10.3167 23.1375 10.5438C22.9104 10.7709 22.6024 10.8984 22.2812 10.8984ZM8.71875 8.96094C8.52605 8.96094 8.34125 9.03749 8.20499 9.17374C8.06874 9.31 7.99219 9.4948 7.99219 9.6875C7.99219 9.8802 8.06874 10.065 8.20499 10.2013C8.34125 10.3375 8.52605 10.4141 8.71875 10.4141H22.2812C22.4739 10.4141 22.6588 10.3375 22.795 10.2013C22.9313 10.065 23.0078 9.8802 23.0078 9.6875C23.0078 9.4948 22.9313 9.31 22.795 9.17374C22.6588 9.03749 22.4739 8.96094 22.2812 8.96094H8.71875Z"/>
</mask>
<path d="M22.2812 10.8984H8.71875C8.39759 10.8984 8.08958 10.7709 7.86249 10.5438C7.63539 10.3167 7.50781 10.0087 7.50781 9.6875C7.50781 9.36634 7.63539 9.05833 7.86249 8.83124C8.08958 8.60414 8.39759 8.47656 8.71875 8.47656H22.2812C22.6024 8.47656 22.9104 8.60414 23.1375 8.83124C23.3646 9.05833 23.4922 9.36634 23.4922 9.6875C23.4922 10.0087 23.3646 10.3167 23.1375 10.5438C22.9104 10.7709 22.6024 10.8984 22.2812 10.8984ZM8.71875 8.96094C8.52605 8.96094 8.34125 9.03749 8.20499 9.17374C8.06874 9.31 7.99219 9.4948 7.99219 9.6875C7.99219 9.8802 8.06874 10.065 8.20499 10.2013C8.34125 10.3375 8.52605 10.4141 8.71875 10.4141H22.2812C22.4739 10.4141 22.6588 10.3375 22.795 10.2013C22.9313 10.065 23.0078 9.8802 23.0078 9.6875C23.0078 9.4948 22.9313 9.31 22.795 9.17374C22.6588 9.03749 22.4739 8.96094 22.2812 8.96094H8.71875Z" fill="#FF6969"/>
<path d="M8.71875 8.47656V7.47656V8.47656ZM22.2812 9.89844H8.71875V11.8984H22.2812V9.89844ZM8.71875 9.89844C8.66281 9.89844 8.60915 9.87621 8.56959 9.83666L7.15538 11.2509C7.57001 11.6655 8.13237 11.8984 8.71875 11.8984V9.89844ZM8.56959 9.83666C8.53004 9.7971 8.50781 9.74344 8.50781 9.6875H6.50781C6.50781 10.2739 6.74075 10.8362 7.15538 11.2509L8.56959 9.83666ZM8.50781 9.6875C8.50781 9.63156 8.53004 9.5779 8.56959 9.53834L7.15538 8.12413C6.74075 8.53876 6.50781 9.10112 6.50781 9.6875H8.50781ZM8.56959 9.53834C8.60915 9.49879 8.66281 9.47656 8.71875 9.47656V7.47656C8.13237 7.47656 7.57001 7.7095 7.15538 8.12413L8.56959 9.53834ZM8.71875 9.47656H22.2812V7.47656H8.71875V9.47656ZM22.2812 9.47656C22.3372 9.47656 22.3908 9.49879 22.4304 9.53834L23.8446 8.12413C23.43 7.7095 22.8676 7.47656 22.2812 7.47656V9.47656ZM22.4304 9.53834C22.47 9.5779 22.4922 9.63155 22.4922 9.6875H24.4922C24.4922 9.10112 24.2593 8.53876 23.8446 8.12413L22.4304 9.53834ZM22.4922 9.6875C22.4922 9.74345 22.47 9.7971 22.4304 9.83666L23.8446 11.2509C24.2593 10.8362 24.4922 10.2739 24.4922 9.6875H22.4922ZM22.4304 9.83666C22.3908 9.87621 22.3372 9.89844 22.2812 9.89844V11.8984C22.8676 11.8984 23.43 11.6655 23.8446 11.2509L22.4304 9.83666ZM8.71875 7.96094C8.26084 7.96094 7.82168 8.14284 7.49789 8.46664L8.9121 9.88085C8.86082 9.93213 8.79127 9.96094 8.71875 9.96094V7.96094ZM7.49789 8.46664C7.17409 8.79043 6.99219 9.22959 6.99219 9.6875H8.99219C8.99219 9.76002 8.96338 9.82957 8.9121 9.88085L7.49789 8.46664ZM6.99219 9.6875C6.99219 10.1454 7.17409 10.5846 7.49789 10.9084L8.9121 9.49415C8.96338 9.54543 8.99219 9.61498 8.99219 9.6875H6.99219ZM7.49789 10.9084C7.82168 11.2322 8.26084 11.4141 8.71875 11.4141V9.41406C8.79127 9.41406 8.86082 9.44287 8.9121 9.49415L7.49789 10.9084ZM8.71875 11.4141H22.2812V9.41406H8.71875V11.4141ZM22.2812 11.4141C22.7392 11.4141 23.1783 11.2322 23.5021 10.9084L22.0879 9.49415C22.1392 9.44287 22.2087 9.41406 22.2812 9.41406V11.4141ZM23.5021 10.9084C23.8259 10.5846 24.0078 10.1454 24.0078 9.6875H22.0078C22.0078 9.61498 22.0366 9.54543 22.0879 9.49415L23.5021 10.9084ZM24.0078 9.6875C24.0078 9.22959 23.8259 8.79043 23.5021 8.46664L22.0879 9.88085C22.0366 9.82957 22.0078 9.76002 22.0078 9.6875H24.0078ZM23.5021 8.46664C23.1783 8.14284 22.7392 7.96094 22.2812 7.96094V9.96094C22.2087 9.96094 22.1392 9.93213 22.0879 9.88085L23.5021 8.46664ZM22.2812 7.96094H8.71875V9.96094H22.2812V7.96094Z" fill="#FF6969" mask="url(#path-9-inside-4_214_666)"/>
</g>
<g id="Vector_7">
<mask id="path-11-inside-5_214_666" fill="white">
<path d="M22.2812 7.02344H8.71875C8.39759 7.02344 8.08958 6.89586 7.86249 6.66876C7.63539 6.44167 7.50781 6.13366 7.50781 5.8125C7.50781 5.49134 7.63539 5.18333 7.86249 4.95624C8.08958 4.72914 8.39759 4.60156 8.71875 4.60156H22.2812C22.6024 4.60156 22.9104 4.72914 23.1375 4.95624C23.3646 5.18333 23.4922 5.49134 23.4922 5.8125C23.4922 6.13366 23.3646 6.44167 23.1375 6.66876C22.9104 6.89586 22.6024 7.02344 22.2812 7.02344ZM8.71875 5.08594C8.52605 5.08594 8.34125 5.16249 8.20499 5.29874C8.06874 5.435 7.99219 5.6198 7.99219 5.8125C7.99219 6.0052 8.06874 6.19 8.20499 6.32626C8.34125 6.46251 8.52605 6.53906 8.71875 6.53906H22.2812C22.4739 6.53906 22.6588 6.46251 22.795 6.32626C22.9313 6.19 23.0078 6.0052 23.0078 5.8125C23.0078 5.6198 22.9313 5.435 22.795 5.29874C22.6588 5.16249 22.4739 5.08594 22.2812 5.08594H8.71875Z"/>
</mask>
<path d="M22.2812 7.02344H8.71875C8.39759 7.02344 8.08958 6.89586 7.86249 6.66876C7.63539 6.44167 7.50781 6.13366 7.50781 5.8125C7.50781 5.49134 7.63539 5.18333 7.86249 4.95624C8.08958 4.72914 8.39759 4.60156 8.71875 4.60156H22.2812C22.6024 4.60156 22.9104 4.72914 23.1375 4.95624C23.3646 5.18333 23.4922 5.49134 23.4922 5.8125C23.4922 6.13366 23.3646 6.44167 23.1375 6.66876C22.9104 6.89586 22.6024 7.02344 22.2812 7.02344ZM8.71875 5.08594C8.52605 5.08594 8.34125 5.16249 8.20499 5.29874C8.06874 5.435 7.99219 5.6198 7.99219 5.8125C7.99219 6.0052 8.06874 6.19 8.20499 6.32626C8.34125 6.46251 8.52605 6.53906 8.71875 6.53906H22.2812C22.4739 6.53906 22.6588 6.46251 22.795 6.32626C22.9313 6.19 23.0078 6.0052 23.0078 5.8125C23.0078 5.6198 22.9313 5.435 22.795 5.29874C22.6588 5.16249 22.4739 5.08594 22.2812 5.08594H8.71875Z" fill="#FF6969"/>
<path d="M8.71875 7.02344V6.02344V7.02344ZM8.71875 4.60156V5.60156V4.60156ZM22.2812 4.60156V3.60156V4.60156ZM8.71875 5.08594V4.08594V5.08594ZM22.2812 6.53906V7.53906V6.53906ZM22.2812 5.08594V4.08594V5.08594ZM22.2812 6.02344H8.71875V8.02344H22.2812V6.02344ZM8.71875 6.02344C8.66281 6.02344 8.60915 6.00121 8.56959 5.96166L7.15538 7.37587C7.57001 7.7905 8.13237 8.02344 8.71875 8.02344V6.02344ZM8.56959 5.96166C8.53004 5.9221 8.50781 5.86844 8.50781 5.8125H6.50781C6.50781 6.39888 6.74075 6.96124 7.15538 7.37587L8.56959 5.96166ZM8.50781 5.8125C8.50781 5.75656 8.53004 5.7029 8.56959 5.66334L7.15538 4.24913C6.74075 4.66376 6.50781 5.22612 6.50781 5.8125H8.50781ZM8.56959 5.66334C8.60915 5.62379 8.66281 5.60156 8.71875 5.60156V3.60156C8.13237 3.60156 7.57001 3.8345 7.15538 4.24913L8.56959 5.66334ZM8.71875 5.60156H22.2812V3.60156H8.71875V5.60156ZM22.2812 5.60156C22.3372 5.60156 22.3908 5.62379 22.4304 5.66334L23.8446 4.24913C23.43 3.8345 22.8676 3.60156 22.2812 3.60156V5.60156ZM22.4304 5.66334C22.47 5.7029 22.4922 5.75655 22.4922 5.8125H24.4922C24.4922 5.22612 24.2593 4.66376 23.8446 4.24913L22.4304 5.66334ZM22.4922 5.8125C22.4922 5.86845 22.47 5.9221 22.4304 5.96166L23.8446 7.37587C24.2593 6.96124 24.4922 6.39888 24.4922 5.8125H22.4922ZM22.4304 5.96166C22.3908 6.00121 22.3372 6.02344 22.2812 6.02344V8.02344C22.8676 8.02344 23.43 7.7905 23.8446 7.37587L22.4304 5.96166ZM8.71875 4.08594C8.26084 4.08594 7.82168 4.26784 7.49789 4.59164L8.9121 6.00585C8.86082 6.05713 8.79127 6.08594 8.71875 6.08594V4.08594ZM7.49789 4.59164C7.17409 4.91543 6.99219 5.35459 6.99219 5.8125H8.99219C8.99219 5.88502 8.96338 5.95457 8.9121 6.00585L7.49789 4.59164ZM6.99219 5.8125C6.99219 6.27041 7.17409 6.70957 7.49789 7.03336L8.9121 5.61915C8.96338 5.67043 8.99219 5.73998 8.99219 5.8125H6.99219ZM7.49789 7.03336C7.82168 7.35716 8.26084 7.53906 8.71875 7.53906V5.53906C8.79127 5.53906 8.86082 5.56787 8.9121 5.61915L7.49789 7.03336ZM8.71875 7.53906H22.2812V5.53906H8.71875V7.53906ZM22.2812 7.53906C22.7392 7.53906 23.1783 7.35716 23.5021 7.03336L22.0879 5.61915C22.1392 5.56787 22.2087 5.53906 22.2812 5.53906V7.53906ZM23.5021 7.03336C23.8259 6.70957 24.0078 6.27041 24.0078 5.8125H22.0078C22.0078 5.73998 22.0366 5.67043 22.0879 5.61915L23.5021 7.03336ZM24.0078 5.8125C24.0078 5.35459 23.8259 4.91543 23.5021 4.59164L22.0879 6.00585C22.0366 5.95457 22.0078 5.88502 22.0078 5.8125H24.0078ZM23.5021 4.59164C23.1783 4.26784 22.7392 4.08594 22.2812 4.08594V6.08594C22.2087 6.08594 22.1392 6.05713 22.0879 6.00585L23.5021 4.59164ZM22.2812 4.08594H8.71875V6.08594H22.2812V4.08594Z" fill="#FF6969" mask="url(#path-11-inside-5_214_666)"/>
</g>
</g>
</svg>
