<svg width="73" height="73" viewBox="0 0 73 73" fill="none" xmlns="http://www.w3.org/2000/svg">
<circle cx="36.5" cy="36.5" r="36" stroke="#A3A3A6"/>
<circle cx="36.5" cy="36.5" r="23" stroke="#A3A3A6"/>
<path d="M33.4507 37.6868L42.4462 28.7738C42.7257 28.4969 43.0815 28.3584 43.5135 28.3584C43.9454 28.3584 44.3012 28.4969 44.5807 28.7738C44.8602 29.0508 45 29.4033 45 29.8313C45 30.2593 44.8602 30.6118 44.5807 30.8888L34.5179 40.8592C34.213 41.1613 33.8572 41.3124 33.4507 41.3124C33.0441 41.3124 32.6883 41.1613 32.3834 40.8592L28.4193 36.9315C28.1398 36.6545 28 36.302 28 35.874C28 35.446 28.1398 35.0935 28.4193 34.8165C28.6988 34.5396 29.0546 34.4011 29.4865 34.4011C29.9185 34.4011 30.2743 34.5396 30.5538 34.8165L33.4507 37.6868Z" fill="#FF6969"/>
</svg>
