<svg width="106" height="55" viewBox="0 0 106 55" fill="none" xmlns="http://www.w3.org/2000/svg">
<line x1="15" y1="15" x2="37" y2="15" stroke="#A7A7A7" stroke-width="2"/>
<line y1="27" x2="22" y2="27" stroke="#A7A7A7" stroke-width="2"/>
<line x1="15" y1="39" x2="37" y2="39" stroke="#A7A7A7" stroke-width="2"/>
<g clip-path="url(#clip0_75_1881)">
<path d="M98.1544 6.875H56.9044C53.1077 6.875 50.0294 9.95328 50.0294 13.75V41.25C50.0294 45.0467 53.1077 48.125 56.9044 48.125H98.1544C101.951 48.125 105.029 45.0467 105.029 41.25V13.75C105.029 9.95328 101.951 6.875 98.1544 6.875ZM86.8382 25.2206L101.391 12.7496C101.491 13.0718 101.592 13.3941 101.592 13.75V41.25C101.592 41.4884 101.501 41.6999 101.454 41.9247L86.8382 25.2206ZM98.1544 10.3125C98.3827 10.3125 98.5841 10.3998 98.799 10.4434L77.5294 28.675L56.2599 10.4434C56.4747 10.3998 56.6761 10.3125 56.9044 10.3125H98.1544ZM53.6029 41.9214C53.5559 41.6964 53.4669 41.4884 53.4669 41.25V13.75C53.4669 13.3941 53.5693 13.0718 53.6701 12.7496L68.2173 25.2173L53.6029 41.9214ZM56.9044 44.6875C56.557 44.6875 56.2414 44.5867 55.9242 44.4894L70.829 27.4563L76.4116 32.2399C76.7321 32.5186 77.1316 32.6562 77.5294 32.6562C77.9272 32.6562 78.3267 32.5186 78.6473 32.24L84.2299 27.4564L99.1346 44.4895C98.8191 44.5867 98.5035 44.6875 98.1544 44.6875H56.9044Z" fill="#A7A7A7"/>
</g>
<defs>
<clipPath id="clip0_75_1881">
<rect width="55" height="55" fill="white" transform="translate(50.0294)"/>
</clipPath>
</defs>
</svg>
