<svg width="18" height="18" viewBox="0 0 18 18" fill="none" xmlns="http://www.w3.org/2000/svg">
<path d="M3.1 17.5C2.26 16.08 1.69 14.59 1.39 13.03C1.09 11.45 1.06 9.89 1.3 8.35C1.54 6.81 2.04 5.34 2.8 3.94C3.56 2.52 4.57 1.25 5.83 0.129999L7.45 1.15C7.75 1.35 7.88 1.6 7.84 1.9C7.82 2.18 7.73 2.4 7.57 2.56C7.05 3.2 6.6 3.98 6.22 4.9C5.86 5.82 5.63 6.81 5.53 7.87C5.43 8.91 5.48 9.99 5.68 11.11C5.88 12.23 6.29 13.31 6.91 14.35C7.17 14.77 7.24 15.15 7.12 15.49C7.02 15.81 6.78 16.05 6.4 16.21L3.1 17.5ZM12.22 17.5C11.38 16.08 10.81 14.59 10.51 13.03C10.21 11.45 10.18 9.89 10.42 8.35C10.66 6.81 11.16 5.34 11.92 3.94C12.68 2.52 13.69 1.25 14.95 0.129999L16.57 1.15C16.87 1.35 17 1.6 16.96 1.9C16.94 2.18 16.85 2.4 16.69 2.56C16.17 3.2 15.72 3.98 15.34 4.9C14.98 5.82 14.75 6.81 14.65 7.87C14.55 8.91 14.6 9.99 14.8 11.11C15 12.23 15.41 13.31 16.03 14.35C16.29 14.77 16.36 15.15 16.24 15.49C16.14 15.81 15.9 16.05 15.52 16.21L12.22 17.5Z" fill="#FF6969"/>
</svg>
