<svg width="18" height="19" viewBox="0 0 18 19" fill="none" xmlns="http://www.w3.org/2000/svg">
<path d="M4.21875 7.1903C4.21875 9.93432 6.37031 12.1794 9 12.1794C11.6297 12.1794 13.7812 9.93432 13.7812 7.1903C13.7812 4.44628 11.6297 2.20117 9 2.20117C6.37031 2.20117 4.21875 4.44628 4.21875 7.1903ZM12.6562 7.1903C12.6562 9.28867 11.0109 11.0055 9 11.0055C6.98906 11.0055 5.34375 9.28867 5.34375 7.1903C5.34375 5.09193 6.98906 3.37508 9 3.37508C11.0109 3.37508 12.6562 5.09193 12.6562 7.1903Z" fill="#171920"/>
<path d="M3.4312 17.5206C4.92183 15.9652 6.89058 15.1141 8.99995 15.1141C11.1093 15.1141 13.0781 15.9652 14.5687 17.5206L15.3703 16.6842C13.6687 14.9233 11.4046 13.9402 8.99995 13.9402C6.59526 13.9402 4.3312 14.9233 2.62964 16.6842L3.4312 17.5206Z" fill="#171920"/>
</svg>
