<svg width="26" height="26" viewBox="0 0 26 26" fill="none" xmlns="http://www.w3.org/2000/svg">
<g id="2849824-basket-buy-market-multimedia-shop-shopping-store_107977 1">
<g id="1">
<path id="Vector" d="M20.1998 16.0469H9.78301C9.61017 16.0472 9.44237 15.9887 9.30717 15.881C9.17198 15.7733 9.07744 15.6228 9.03906 15.4543L7.28508 7.81272C7.25942 7.70109 7.25927 7.58512 7.28463 7.47342C7.30999 7.36173 7.36022 7.2572 7.43157 7.1676C7.50291 7.078 7.59355 7.00564 7.69672 6.95591C7.7999 6.90618 7.91297 6.88036 8.0275 6.88037H21.9553C22.0699 6.88013 22.1832 6.90579 22.2865 6.95542C22.3899 7.00505 22.4807 7.07737 22.5523 7.167C22.6238 7.25663 22.6741 7.36125 22.6996 7.47305C22.725 7.58486 22.7249 7.70097 22.6992 7.81272L20.9422 15.4543C20.9039 15.6226 20.8096 15.7728 20.6747 15.8805C20.5398 15.9882 20.3723 16.0468 20.1998 16.0469ZM10.3893 14.5235H19.5934L20.9986 8.40533H8.98371L10.3893 14.5235Z" fill="white"/>
<path id="Vector_2" d="M11.2734 22.8515C10.6961 22.8515 10.1318 22.6803 9.65178 22.3596C9.17177 22.0388 8.79765 21.583 8.57672 21.0496C8.35579 20.5162 8.29799 19.9293 8.41062 19.3631C8.52324 18.7969 8.80124 18.2768 9.20946 17.8686C9.61768 17.4604 10.1378 17.1824 10.704 17.0698C11.2702 16.9571 11.8571 17.0149 12.3905 17.2359C12.9238 17.4568 13.3797 17.8309 13.7004 18.3109C14.0212 18.7909 14.1923 19.3553 14.1923 19.9326C14.1915 20.7065 13.8838 21.4484 13.3365 21.9957C12.7893 22.5429 12.0473 22.8507 11.2734 22.8515ZM11.2734 18.5376C10.9974 18.5376 10.7276 18.6195 10.4981 18.7728C10.2686 18.9262 10.0897 19.1442 9.98414 19.3992C9.87854 19.6542 9.85093 19.9348 9.90482 20.2055C9.95871 20.4762 10.0917 20.7249 10.2869 20.92C10.4821 21.1152 10.7308 21.248 11.0015 21.3018C11.2722 21.3556 11.5528 21.3279 11.8078 21.2222C12.0628 21.1165 12.2807 20.9375 12.434 20.708C12.5872 20.4784 12.669 20.2086 12.6689 19.9326C12.6685 19.5626 12.5213 19.208 12.2597 18.9465C11.9981 18.6849 11.6434 18.5379 11.2734 18.5376Z" fill="white"/>
<path id="Vector_3" d="M18.7088 22.8515C18.1315 22.8515 17.5672 22.6803 17.0872 22.3596C16.6072 22.0388 16.233 21.583 16.0121 21.0496C15.7912 20.5162 15.7334 19.9293 15.846 19.3631C15.9586 18.7969 16.2366 18.2768 16.6448 17.8686C17.0531 17.4604 17.5732 17.1824 18.1394 17.0698C18.7056 16.9571 19.2925 17.0149 19.8258 17.2359C20.3592 17.4568 20.8151 17.8309 21.1358 18.3109C21.4565 18.7909 21.6277 19.3553 21.6277 19.9326C21.6269 20.7065 21.3191 21.4484 20.7719 21.9957C20.2247 22.5429 19.4827 22.8507 18.7088 22.8515ZM18.7088 18.5376C18.4328 18.5376 18.163 18.6195 17.9335 18.7728C17.704 18.9262 17.5251 19.1442 17.4195 19.3992C17.3139 19.6542 17.2863 19.9348 17.3402 20.2055C17.3941 20.4762 17.527 20.7249 17.7223 20.92C17.9175 21.1152 18.1662 21.248 18.4369 21.3018C18.7076 21.3556 18.9882 21.3279 19.2432 21.2222C19.4982 21.1165 19.7161 20.9375 19.8694 20.708C20.0226 20.4784 20.1044 20.2086 20.1043 19.9326C20.1039 19.5626 19.9567 19.208 19.6951 18.9465C19.4335 18.6849 19.0788 18.5379 18.7088 18.5376Z" fill="white"/>
<path id="Vector_4" d="M8.0275 8.40379C7.86761 8.40377 7.71178 8.35345 7.58208 8.25993C7.45239 8.16642 7.35541 8.03447 7.30488 7.88277L5.9993 3.96094H3.59023C3.38821 3.96094 3.19447 3.88069 3.05162 3.73784C2.90877 3.59499 2.82851 3.40124 2.82851 3.19922C2.82851 2.9972 2.90877 2.80345 3.05162 2.6606C3.19447 2.51775 3.38821 2.4375 3.59023 2.4375H6.55078C6.71067 2.43751 6.8665 2.48784 6.9962 2.58135C7.12589 2.67487 7.22287 2.80682 7.2734 2.95852L8.75266 7.40137C8.79079 7.51586 8.80117 7.63777 8.78296 7.75706C8.76474 7.87635 8.71844 7.98961 8.64787 8.0875C8.57731 8.18539 8.48449 8.26512 8.37707 8.32011C8.26966 8.3751 8.15071 8.40378 8.03004 8.40379H8.0275Z" fill="white"/>
</g>
</g>
</svg>
