<svg width="23" height="24" viewBox="0 0 23 24" fill="none" xmlns="http://www.w3.org/2000/svg">
<g id="4213460-account-avatar-head-person-profile-user_115386 1">
<g id="Group">
<path id="Vector" d="M5.39062 9.1875C5.39062 12.6937 8.13984 15.5625 11.5 15.5625C14.8602 15.5625 17.6094 12.6937 17.6094 9.1875C17.6094 5.68125 14.8602 2.8125 11.5 2.8125C8.13984 2.8125 5.39062 5.68125 5.39062 9.1875ZM16.1719 9.1875C16.1719 11.8687 14.0695 14.0625 11.5 14.0625C8.93047 14.0625 6.82812 11.8687 6.82812 9.1875C6.82812 6.50625 8.93047 4.3125 11.5 4.3125C14.0695 4.3125 16.1719 6.50625 16.1719 9.1875Z" fill="white"/>
<path id="Vector_2" d="M4.38438 22.3875C6.28906 20.4 8.80469 19.3125 11.5 19.3125C14.1953 19.3125 16.7109 20.4 18.6156 22.3875L19.6398 21.3187C17.4656 19.0687 14.5727 17.8125 11.5 17.8125C8.42734 17.8125 5.53438 19.0687 3.36016 21.3187L4.38438 22.3875Z" fill="white"/>
</g>
</g>
</svg>
