<svg width="20" height="24" viewBox="0 0 20 24" fill="none" xmlns="http://www.w3.org/2000/svg">
<g id="seo-social-web-network-internet_340_icon-icons.com_61497 1" clip-path="url(#clip0_137_298)">
<path id="Vector" d="M7.6033 18.4056C9.35537 18.4056 11.0083 17.6977 12.2479 16.4028C13.4876 15.1078 14.1653 13.3812 14.1653 11.551C14.1653 9.72075 13.4876 7.99413 12.2479 6.69917C11.0083 5.4042 9.35537 4.69629 7.6033 4.69629C5.85124 4.69629 4.19835 5.4042 2.95868 6.69917C0.396694 9.37543 0.396694 13.7265 2.95868 16.4028C4.19835 17.6977 5.85124 18.4056 7.6033 18.4056ZM7.6033 6.69917C8.84297 6.69917 10.0165 7.19989 10.8926 8.11499C12.7107 10.0143 12.7107 13.0877 10.8926 14.9869C10.0165 15.902 8.84297 16.4028 7.6033 16.4028C6.36364 16.4028 5.19008 15.902 4.31405 14.9869C3.43802 14.0718 2.95868 12.8459 2.95868 11.551C2.95868 10.256 3.43802 9.0301 4.31405 8.11499C5.19008 7.19989 6.36364 6.69917 7.6033 6.69917ZM18.7438 21.3064L13.8182 16.161C13.5702 16.5236 13.2893 16.869 12.9917 17.1797C12.6942 17.4905 12.3636 17.7841 12.0165 18.0431L16.9421 23.1884L18.7438 21.3064Z" fill="white"/>
</g>
<defs>
<clipPath id="clip0_137_298">
<rect width="20" height="24" fill="white" transform="matrix(-1 0 0 1 20 0)"/>
</clipPath>
</defs>
</svg>
