<svg width="24" height="24" viewBox="0 0 24 24" fill="none" xmlns="http://www.w3.org/2000/svg">
<g id="heart_icon_125260 1">
<g id="Group">
<path id="Vector" d="M12 21.9599C11.808 21.9599 11.616 21.8879 11.472 21.7439L2.04 12.2639C0.864 11.1119 0.24 9.47991 0.288 7.77591C0.384 6.07191 1.176 4.46391 2.472 3.35991C3.552 2.49591 4.848 2.03991 6.216 2.03991C7.872 2.03991 9.504 2.71191 10.68 3.88791L12 5.20791L13.32 3.91191C15.624 1.60791 19.152 1.39191 21.528 3.43191C22.824 4.46391 23.616 6.02391 23.712 7.72791C23.808 9.43191 23.16 11.1119 21.96 12.3119L12.504 21.7679C12.384 21.8879 12.192 21.9599 12 21.9599ZM6.216 3.23991C5.112 3.23991 4.08 3.59991 3.216 4.29591C2.184 5.18391 1.536 6.45591 1.464 7.82391C1.44 9.19191 1.944 10.4879 2.88 11.3999L12 20.5679L21.12 11.4479C22.08 10.4879 22.584 9.11991 22.512 7.77591C22.44 6.43191 21.816 5.18391 20.76 4.34391C18.864 2.71191 16.032 2.87991 14.16 4.75191L12 6.88791L9.84 4.72791C8.904 3.76791 7.56 3.23991 6.216 3.23991Z" fill="white"/>
</g>
</g>
</svg>
