<svg width="50" height="50" viewBox="0 0 50 50" fill="none" xmlns="http://www.w3.org/2000/svg">
<path d="M42.9688 9.0625L34.6875 0.78125H6.25V49.2188H42.9688V9.0625ZM35.1562 3.4375L40.3125 8.59375H35.1562V3.4375ZM7.8125 47.6562V2.34375H33.5938V10.1562H41.4062V47.6562H7.8125Z" fill="#FF6969"/>
<path d="M34.375 26.0547L36.0938 24.3359L31.5625 19.7266L29.8047 21.4844C29.2969 21.2109 28.75 20.9766 28.2031 20.8203V18.3594H21.7969V20.8203C21.25 21.0156 20.7031 21.2109 20.1953 21.4844L18.4766 19.7656L13.8672 24.2969L15.5859 26.0156C15.3125 26.5234 15.0781 27.0703 14.9219 27.6172H12.5V34.0625H14.9609C15.1562 34.6094 15.3516 35.1563 15.625 35.6641L13.9062 37.3828L18.4766 41.9531L20.1953 40.2344C20.7031 40.5078 21.25 40.7422 21.7969 40.8984V43.3594H28.2422V40.8984C28.7891 40.7031 29.3359 40.5078 29.8438 40.2344L31.5625 41.9531L36.1328 37.3828L34.375 35.6641C34.6484 35.1563 34.8828 34.6094 35.0391 34.0625H37.5V27.6563H35.0391C34.8828 27.0703 34.6484 26.5625 34.375 26.0547ZM35.9375 32.5391H33.8672L33.7109 33.125C33.5156 33.9453 33.1641 34.7266 32.7344 35.4297L32.4219 35.9375L33.9063 37.4219L31.5625 39.7656L30.0781 38.2812L29.5703 38.5938C28.8281 39.0234 28.0469 39.3359 27.2656 39.5703L26.6797 39.7266V41.7969H23.3594V39.7266L22.7734 39.5703C21.9531 39.375 21.1719 39.0234 20.4688 38.5938L19.9219 38.2812L18.4375 39.7656L16.0938 37.4219L17.5781 35.9375L17.2656 35.4297C16.8359 34.6875 16.5234 33.9063 16.2891 33.125L16.1328 32.5391H14.0625V29.2188H16.1328L16.2891 28.6328C16.4844 27.8125 16.8359 27.0313 17.2656 26.3281L17.5781 25.7812L16.0938 24.2969L18.4375 21.9531L19.9219 23.4375L20.4297 23.125C21.1719 22.6953 21.9531 22.3828 22.7344 22.1484L23.3203 21.9922V19.9219H26.6406V21.9922L27.2266 22.1484C28.0469 22.3438 28.8281 22.6953 29.5312 23.125L30.0781 23.4375L31.5625 21.9531L33.9063 24.2969L32.4219 25.7812L32.7344 26.2891C33.1641 27.0313 33.4766 27.8125 33.7109 28.5937L33.8672 29.1797H35.9375V32.5391Z" fill="#FF6969"/>
<path d="M25 25.1953C21.875 25.1953 19.3359 27.7344 19.3359 30.8594C19.3359 33.9844 21.875 36.5234 25 36.5234C28.125 36.5234 30.6641 33.9844 30.6641 30.8594C30.6641 27.7344 28.125 25.1953 25 25.1953ZM25 34.9609C22.7344 34.9609 20.8984 33.125 20.8984 30.8594C20.8984 28.5938 22.7344 26.7578 25 26.7578C27.2656 26.7578 29.1016 28.5938 29.1016 30.8594C29.1016 33.125 27.2656 34.9609 25 34.9609Z" fill="#FF6969"/>
</svg>
