<svg width="34" height="34" viewBox="0 0 34 34" fill="none" xmlns="http://www.w3.org/2000/svg">
<g clip-path="url(#clip0_162_47)">
<path d="M33.3123 17.4565H30.8728V11.1825C30.8728 11.1537 30.8699 11.1256 30.8684 11.0972V6.26577C30.8684 5.93723 30.6021 5.67094 30.2736 5.67094H23.9666L18.514 0.218261C18.4024 0.106741 18.2511 0.0440674 18.0933 0.0440674C17.9356 0.0440674 17.7843 0.106722 17.6727 0.218261L13.5612 4.32975L11.6284 2.39687C11.3961 2.16459 11.0195 2.16459 10.7871 2.39687L7.50921 5.67475C7.48757 5.67235 7.46556 5.67094 7.44325 5.67094H0.687603C0.359069 5.67094 0.0927734 5.93723 0.0927734 6.26577V12.5965C0.0927734 12.6159 0.0938501 12.6351 0.0956823 12.654V32.3415C0.0956823 33.2318 0.819977 33.9561 1.71023 33.9561H29.2582C30.1485 33.9561 30.8728 33.2318 30.8728 32.3415V26.0675H33.3123C33.6408 26.0675 33.9071 25.8012 33.9071 25.4727V18.0514C33.9071 17.7228 33.6408 17.4565 33.3123 17.4565ZM29.6788 6.86061V9.62542C29.5444 9.58906 29.4038 9.5679 29.2582 9.5679H27.8635L25.1562 6.86061H29.6788ZM18.0934 1.48011L26.181 9.5679H24.3756L17.1906 2.38283L18.0934 1.48011ZM16.3493 3.22414L22.693 9.56792H18.7995L14.4025 5.17097L16.3493 3.22414ZM11.2078 3.65872L12.72 5.17095L13.5612 6.01216L17.1169 9.5679H15.4956L10.3971 4.46939L11.2078 3.65872ZM13.813 9.5679H5.29859L9.55579 5.31071L13.813 9.5679ZM3.61606 9.5679H1.71023C1.56193 9.5679 1.41896 9.58964 1.28245 9.62723V6.86061H6.32337L3.61606 9.5679ZM29.6831 32.3415C29.6831 32.5758 29.4925 32.7664 29.2582 32.7664H1.71023C1.47597 32.7664 1.28536 32.5758 1.28536 32.3415V11.1825C1.28536 10.9482 1.47597 10.7576 1.71023 10.7576H29.2582C29.4779 10.7576 29.657 10.9258 29.6788 11.1397V12.5965C29.6788 12.6199 29.6805 12.6428 29.6831 12.6655V17.4565H24.2765C21.9025 17.4565 19.971 19.3879 19.971 21.762C19.971 24.1361 21.9025 26.0676 24.2765 26.0676H29.6831L29.6831 32.3415ZM32.7174 24.8779H30.8728H29.6831H24.2765C22.5585 24.8779 21.1607 23.4801 21.1607 21.7619C21.1607 20.0439 22.5585 18.6462 24.2765 18.6462H29.6831H30.8728H32.7174V24.8779Z" fill="#FF6969"/>
<path d="M24.3046 19.7225C23.1801 19.7225 22.2651 20.6375 22.2651 21.762C22.2651 22.8865 23.1801 23.8014 24.3046 23.8014C25.4291 23.8014 26.344 22.8865 26.344 21.762C26.344 20.6374 25.4291 19.7225 24.3046 19.7225ZM24.3046 22.6117C23.836 22.6117 23.4548 22.2305 23.4548 21.762C23.4548 21.2934 23.836 20.9122 24.3046 20.9122C24.7731 20.9122 25.1543 21.2934 25.1543 21.762C25.1543 22.2305 24.7731 22.6117 24.3046 22.6117Z" fill="#FF6969"/>
</g>
<defs>
<clipPath id="clip0_162_47">
<rect width="34" height="34" fill="white"/>
</clipPath>
</defs>
</svg>
