<svg width="29" height="29" viewBox="0 0 29 29" fill="none" xmlns="http://www.w3.org/2000/svg">
<g id="shopping-cart_icon-icons.com_65051 1" clip-path="url(#clip0_214_683)">
<g id="Group">
<path id="Vector" d="M28.3791 5.18436H5.38596C5.34119 5.18436 5.30087 5.20118 5.25852 5.21046L4.32329 2.10513C4.31275 2.07158 4.29032 2.04673 4.27543 2.01569C4.2499 1.69631 3.9896 1.44336 3.66394 1.44336C3.66336 1.44336 3.6621 1.44336 3.66142 1.44336L0.618943 1.45632C0.275292 1.45825 -0.00125275 1.73789 4.26836e-06 2.08086C0.00126129 2.42326 0.279063 2.6998 0.621457 2.6998C0.622037 2.6998 0.623294 2.6998 0.623971 2.6998L3.20106 2.68859L9.15007 22.4323C8.55907 22.9723 8.18187 23.7416 8.18187 24.6048C8.18187 26.2348 9.503 27.5566 11.1336 27.5566C12.7637 27.5566 14.0854 26.2348 14.0854 24.6048C14.0854 24.1797 13.9922 23.7782 13.8306 23.4135H22.4189C22.2573 23.7783 22.1641 24.1797 22.1641 24.6048C22.1641 26.2348 23.4852 27.5566 25.1159 27.5566C26.746 27.5566 28.0677 26.2348 28.0677 24.6048C28.0677 22.9748 26.7459 21.653 25.1159 21.653C24.497 21.653 23.9234 21.845 23.4486 22.1707H12.8004C12.3256 21.845 11.7526 21.653 11.1336 21.653C10.8261 21.653 10.5352 21.7132 10.2561 21.8003L9.36869 18.8559L25.0252 18.8435C25.2992 18.8435 25.5248 18.6626 25.6069 18.4159C25.6281 18.3767 25.651 18.3388 25.6635 18.294L28.9776 6.07288C28.9987 5.99523 29.0012 5.91749 28.9925 5.84236C28.993 5.82931 28.9999 5.81877 28.9999 5.80629C29.0006 5.46274 28.7222 5.18436 28.3791 5.18436ZM25.1166 22.8953C26.0592 22.8953 26.8255 23.6615 26.8255 24.6043C26.8255 25.547 26.0593 26.3133 25.1166 26.3133C24.1738 26.3133 23.4076 25.5471 23.4076 24.6043C23.4077 23.6615 24.1739 22.8953 25.1166 22.8953ZM11.1343 22.8953C12.0771 22.8953 12.8433 23.6615 12.8433 24.6043C12.8433 25.547 12.0771 26.3133 11.1343 26.3133C10.1916 26.3133 9.42535 25.5471 9.42535 24.6043C9.42535 23.6615 10.1916 22.8953 11.1343 22.8953ZM24.5642 17.6012L8.99536 17.6137L5.62528 6.42784H27.5943L24.5642 17.6012Z" fill="#FF6969"/>
</g>
</g>
<defs>
<clipPath id="clip0_214_683">
<rect width="29" height="29" fill="white"/>
</clipPath>
</defs>
</svg>
