<svg width="17" height="17" viewBox="0 0 17 17" fill="none" xmlns="http://www.w3.org/2000/svg">
<g id="letter_icon-icons.com_67753 1">
<path id="Vector" d="M0 2.4082V3.05732V13.9424V14.5915H17V13.9424V3.05732V2.4082H0ZM10.3771 8.65967L8.83405 10.2101C8.64648 10.3843 8.35295 10.384 8.17332 10.2174L6.62263 8.65967L6.63623 8.64635L1.03332 2.97487H15.9704L10.3635 8.64664L10.3771 8.65967ZM5.81513 8.65089L0.566667 13.7005V3.37805L5.81513 8.65089ZM6.21463 9.05237L7.77948 10.6246C7.98037 10.8119 8.2382 10.9059 8.49717 10.9059C8.75868 10.9059 9.02133 10.8099 9.22845 10.6169L10.7857 9.05237L15.9528 14.0249H1.04437L6.21463 9.05237ZM11.1852 8.65117L16.4333 3.37777V13.7005L11.1852 8.65117Z" fill="#A7A7A7"/>
</g>
</svg>
