<svg width="18" height="18" viewBox="0 0 18 18" fill="none" xmlns="http://www.w3.org/2000/svg">
<g id="38-location-pin_101183 1">
<path id="Vector" fill-rule="evenodd" clip-rule="evenodd" d="M9 17.625C9 17.625 2.25 14.0936 2.25 7.125C2.25 3.39712 5.27213 0.375 9 0.375C12.7279 0.375 15.75 3.39712 15.75 7.125C15.75 14.0936 9 17.625 9 17.625ZM9 1.125C5.69175 1.125 3 3.81675 3 7.125C3 12.6592 7.67325 15.9379 9.00113 16.7576C10.3301 15.9412 15 12.6769 15 7.125C15 3.81675 12.3082 1.125 9 1.125ZM9 10.5C7.13587 10.5 5.625 8.98912 5.625 7.125C5.625 5.26087 7.13587 3.75 9 3.75C10.8641 3.75 12.375 5.26087 12.375 7.125C12.375 8.98912 10.8641 10.5 9 10.5ZM9 4.5C7.55025 4.5 6.375 5.67525 6.375 7.125C6.375 8.57475 7.55025 9.75 9 9.75C10.4497 9.75 11.625 8.57475 11.625 7.125C11.625 5.67525 10.4497 4.5 9 4.5Z" fill="#A7A7A7"/>
</g>
</svg>
