<svg width="47" height="22" viewBox="0 0 47 22" fill="none" xmlns="http://www.w3.org/2000/svg">
<path id="logo2 1 (Traced)" fill-rule="evenodd" clip-rule="evenodd" d="M35.8368 1.91817V3.32365L35.6483 3.1799C34.8343 2.559 33.5765 2.5191 32.6989 3.08636C31.8285 3.64893 31.4287 4.54159 31.4287 5.92256C31.4287 7.12315 31.7124 7.90051 32.3775 8.52267C32.5746 8.70712 32.8733 8.92295 33.0412 9.00241C33.9671 9.4404 35.0463 9.28 35.7938 8.59326L35.9513 8.44865V8.77422V9.09978H36.8386H37.7259V4.80624V0.512695H36.7814H35.8368V1.91817ZM1.83191 5.12253V9.10264L2.76219 9.0869L3.69245 9.07116L3.70786 7.79741L3.72325 6.52366L4.42344 6.52503L5.12364 6.5264L5.97668 7.81309L6.82977 9.09978H7.88628C8.77733 9.09978 8.9379 9.08702 8.91151 9.0182C8.89428 8.97332 8.46647 8.31681 7.96081 7.55926C7.45514 6.80171 7.04142 6.17227 7.04142 6.16054C7.04142 6.14874 7.17979 6.04724 7.34896 5.93498C7.90883 5.56322 8.29908 4.94489 8.42502 4.22993C8.50476 3.77716 8.41713 3.2427 8.1815 2.74436C7.96923 2.2956 7.36418 1.68014 6.92595 1.46718C6.33533 1.18026 5.99236 1.14448 3.82126 1.14339L1.83191 1.14241V5.12253ZM19.321 1.22428C18.4671 1.42001 17.7228 1.84564 17.139 2.47192C16.7201 2.92137 16.4929 3.30379 16.2795 3.91891C16.1403 4.31998 16.1205 4.46224 16.1199 5.06385C16.1192 5.68705 16.1357 5.79742 16.2966 6.25236C16.5467 6.95942 16.7867 7.33617 17.3492 7.9048C17.7771 8.33736 17.9146 8.43634 18.4369 8.68743C19.2201 9.06395 19.5132 9.13018 20.3514 9.12022C21.5142 9.10642 22.5204 8.74451 23.247 8.07866C23.6411 7.71761 23.9418 7.25447 23.8425 7.16185C23.8115 7.13305 23.4611 6.93858 23.0637 6.72969L22.3412 6.34985L22.2695 6.52297C22.1559 6.79707 21.7577 7.15572 21.3532 7.3483C21.0072 7.51306 20.937 7.52548 20.3514 7.52548C19.7707 7.52548 19.6949 7.51237 19.3782 7.35723C18.9135 7.12968 18.4729 6.67748 18.2467 6.19586C18.0881 5.85833 18.0617 5.73382 18.043 5.23559C18.0252 4.76302 18.0428 4.59992 18.1438 4.3008C18.2918 3.8624 18.4588 3.58916 18.7546 3.30121C19.7004 2.38062 21.497 2.544 22.1531 3.61029L22.326 3.89131L22.7985 3.59483C23.0584 3.43179 23.3805 3.23211 23.5143 3.15111C23.6481 3.07004 23.7576 2.97501 23.7576 2.93981C23.7576 2.8513 23.4967 2.46929 23.2797 2.2399C22.9675 1.9101 22.2912 1.49815 21.7949 1.33545C21.3889 1.20235 21.2111 1.17888 20.4945 1.16342C19.9346 1.15135 19.5526 1.17115 19.321 1.22428ZM11.8216 2.62924C10.3307 2.95973 9.44311 4.20571 9.44678 5.96309C9.4509 7.93406 10.6791 9.21428 12.5658 9.21428C13.4943 9.21428 14.1688 8.95729 14.7639 8.37663L15.1301 8.01941L14.8968 7.74382C14.7684 7.59223 14.5509 7.34172 14.4134 7.18715L14.1634 6.90601L13.8935 7.16832C13.5207 7.53058 13.2377 7.62853 12.6369 7.60311C12.2215 7.58554 12.1233 7.56069 11.9246 7.4229C11.7167 7.2788 11.3922 6.80497 11.3922 6.64548C11.3922 6.60117 11.9574 6.57798 13.2957 6.56734L15.1991 6.55228L15.189 5.7961C15.1734 4.64658 14.9631 3.98228 14.4353 3.41639C13.9276 2.87203 13.3882 2.63674 12.5658 2.60096C12.2824 2.58859 11.9475 2.60136 11.8216 2.62924ZM41.2623 2.66262C40.7836 2.77866 40.3812 3.00255 40.0029 3.36344C39.6257 3.72318 39.3972 4.09105 39.213 4.6345C39.0369 5.1543 38.9881 6.39119 39.1225 6.92473C39.4083 8.05805 40.1837 8.84177 41.3016 9.12715C41.7433 9.23992 42.5676 9.23855 43.0085 9.12434C43.6589 8.95581 44.3868 8.48815 44.5901 8.10832C44.6655 7.96732 44.6515 7.94207 44.2202 7.44305C43.9737 7.15778 43.7564 6.92439 43.7374 6.92439C43.7184 6.92439 43.6038 7.02583 43.4827 7.14983C43.1412 7.49961 42.7862 7.62647 42.2157 7.60254C41.7995 7.58508 41.7137 7.56206 41.4973 7.41002C41.342 7.30079 41.1913 7.12189 41.0876 6.92341L40.9236 6.60953L42.8455 6.59447L44.7674 6.57936L44.7664 5.87888C44.7647 4.72901 44.537 3.98577 44.0068 3.39927C43.3956 2.72313 42.2647 2.4196 41.2623 2.66262ZM26.3703 2.77883C24.853 3.14613 23.8356 4.56494 23.9517 6.15155C24.0221 7.11353 24.2848 7.74806 24.841 8.29947C25.4801 8.93331 26.274 9.23472 27.307 9.2358C28.3264 9.23695 29.1267 8.89741 29.7782 8.18755C30.6844 7.20009 30.8872 5.6551 30.2744 4.40728C30.0564 3.96327 29.4227 3.30728 28.9857 3.07325C28.3166 2.71488 27.1685 2.58568 26.3703 2.77883ZM5.94227 2.82611C6.02728 2.87054 6.16605 2.97999 6.2506 3.06941C6.69633 3.54044 6.60434 4.4323 6.0732 4.79021C5.88863 4.91461 5.82887 4.92073 4.8003 4.92073H3.72107V3.83303V2.74534H4.75439C5.53255 2.74534 5.82583 2.76526 5.94227 2.82611ZM12.8798 4.27682C13.1146 4.39463 13.3363 4.75495 13.3377 5.02092L13.3386 5.20697H12.3654C11.6247 5.20697 11.3923 5.18985 11.3928 5.13541C11.3938 5.01141 11.6574 4.49561 11.7717 4.39423C12.0322 4.16295 12.5447 4.10862 12.8798 4.27682ZM35.1862 4.32118C35.6542 4.59545 35.877 5.24046 35.8239 6.16781C35.7637 7.21921 35.2593 7.78945 34.4576 7.71239C34.0775 7.67587 33.7836 7.46812 33.5772 7.08995C33.4223 6.80606 33.4068 6.72488 33.385 6.07833C33.3581 5.28236 33.4173 4.9805 33.6686 4.63364C34.0054 4.16868 34.6867 4.02842 35.1862 4.32118ZM42.4536 4.26846C42.6878 4.37963 42.8596 4.64148 42.9116 4.9663L42.9501 5.20697H41.9696C40.88 5.20697 40.9103 5.22008 41.0771 4.82078C41.3142 4.25334 41.9143 4.01256 42.4536 4.26846ZM27.9834 4.44501C28.4826 4.75363 28.7305 5.40058 28.6572 6.2033C28.5718 7.14027 28.0761 7.66442 27.273 7.66734C26.8376 7.66889 26.496 7.50224 26.2351 7.16093C25.9907 6.84121 25.9135 6.54427 25.9131 5.9213C25.9127 5.48164 25.935 5.35816 26.0626 5.09122C26.2192 4.76347 26.2828 4.6752 26.4883 4.50025C26.8538 4.18917 27.5292 4.16421 27.9834 4.44501ZM0 17.4569V21.6942H0.915389H1.83083L1.84566 18.9034L1.86055 16.1126L2.39546 18.1448C2.68959 19.2626 3.02186 20.5184 3.13373 20.9357L3.33711 21.6942H4.24272C5.04807 21.6942 5.15368 21.6831 5.19771 21.594C5.2249 21.5389 5.55431 20.3219 5.92962 18.8895L6.61206 16.2852L6.64069 18.9754L6.66931 21.6656L7.59957 21.6813L8.52985 21.697V17.4583V13.2196L7.11418 13.2349L5.69856 13.2502L5.0278 15.6832C4.6589 17.0214 4.34153 18.1772 4.32252 18.2518C4.30351 18.3263 4.2762 18.3756 4.26184 18.3612C4.24747 18.3468 3.91709 17.191 3.52769 15.7926L2.81967 13.2502L1.40983 13.2349L0 13.2196V17.4569ZM32.1157 14.1764C31.9425 14.1861 31.6913 14.2086 31.5576 14.2265L31.3143 14.2591V14.7994V15.3397H30.799H30.2838V15.8836V16.4274H30.799H31.3143V18.3062C31.3143 19.807 31.3315 20.243 31.3998 20.4732C31.6534 21.3271 32.7479 21.8623 34.0907 21.7892C34.4056 21.772 34.7984 21.7286 34.9638 21.6927L35.2643 21.6274V21.1163V20.6051L35.021 20.6487C34.8872 20.6727 34.5587 20.6909 34.2911 20.6891C33.9089 20.6866 33.7538 20.6595 33.5684 20.5629C33.1638 20.3519 33.1462 20.2533 33.1462 18.2022V16.4299L34.2195 16.4144L35.2929 16.3988L35.3094 15.8693L35.3258 15.3397H34.236H33.1462V14.7386V14.1375L32.7884 14.1481C32.5916 14.154 32.2889 14.1667 32.1157 14.1764ZM38.0846 15.0845C37.071 15.3575 36.3355 16.1585 36.039 17.3125C35.9219 17.7679 35.9219 18.9223 36.0389 19.378C36.3894 20.743 37.5765 21.6349 39.0426 21.6349C39.5263 21.6349 40.0959 21.5119 40.5022 21.3197C40.856 21.1523 41.5767 20.5195 41.5497 20.3999C41.5404 20.3589 41.3326 20.0943 41.0879 19.8117L40.6429 19.2979L40.3689 19.5718C40.0185 19.9223 39.6466 20.0552 39.1026 20.0244C38.5699 19.9943 38.2242 19.7823 37.9963 19.3462L37.8322 19.0322L39.7542 19.0171L41.676 19.002V18.3495C41.676 17.1722 41.4296 16.3664 40.8945 15.7944C40.5571 15.4337 40.2297 15.2374 39.7378 15.101C39.285 14.9755 38.518 14.9678 38.0846 15.0845ZM11.9361 15.2051C10.7432 15.4583 9.84534 16.3118 9.53059 17.4918C9.41426 17.9279 9.41397 18.8198 9.52995 19.3198C9.729 20.1783 10.3345 20.9543 11.0762 21.3013C12.7126 22.067 14.5435 21.6718 15.4873 20.3491C15.8708 19.8117 16.0407 19.2887 16.0735 18.5449C16.1188 17.5179 15.8419 16.758 15.1773 16.0849C14.3739 15.2713 13.1674 14.9438 11.9361 15.2051ZM19.8792 15.4246C19.4933 15.5331 19.1741 15.697 18.9286 15.9125C18.8212 16.0068 18.7174 16.0839 18.698 16.0839C18.6785 16.0839 18.6626 15.9423 18.6626 15.7691V15.4542H17.7753H16.8879V18.5742V21.6942H17.8325H18.7771L18.7776 20.1056C18.7778 19.2319 18.8025 18.3032 18.8326 18.0421C18.9271 17.2194 19.2303 16.8807 19.9108 16.8374C20.3524 16.8093 20.5846 16.906 20.7561 17.1895C20.8585 17.3587 20.8687 17.5284 20.8952 19.5188L20.9239 21.6656H21.8684H22.813L22.8296 19.7478C22.8486 17.5417 22.7957 16.8292 22.58 16.3866C22.3971 16.0113 22.0258 15.6811 21.5982 15.5134C21.1702 15.3456 20.3169 15.3015 19.8792 15.4246ZM25.7393 15.4336C25.2359 15.5415 24.9143 15.6939 24.5928 15.9769C24.013 16.4873 23.8382 17.3551 24.1765 18.044C24.4889 18.6801 25.0118 18.9549 26.6662 19.3524C27.8821 19.6447 27.8117 19.6213 27.8843 19.757C27.9912 19.9566 27.8981 20.1456 27.6341 20.2655C27.3393 20.3992 26.5437 20.4189 26.2577 20.2994C26.028 20.2035 25.7935 19.9331 25.7036 19.6606C25.6376 19.4605 25.631 19.4569 25.3982 19.4915C25.2673 19.5109 24.851 19.5713 24.4732 19.6257L23.7862 19.7245L23.7983 19.8883C23.833 20.3619 24.4054 21.0777 25.0032 21.3954C25.5543 21.6882 25.9757 21.7732 26.8776 21.7732C28.0506 21.7732 28.7004 21.5659 29.2489 21.0168C29.6697 20.5956 29.7974 20.2794 29.7962 19.6619C29.795 19.048 29.6914 18.8034 29.2784 18.44C28.9414 18.1433 28.364 17.9187 27.2661 17.6572C26.1847 17.3997 25.8876 17.3007 25.8207 17.1757C25.6742 16.902 26.2479 16.6692 26.9189 16.73C27.3506 16.7692 27.5936 16.9136 27.7363 17.2156C27.8247 17.4028 27.8768 17.4524 27.9653 17.4341C28.0283 17.421 28.434 17.3508 28.8669 17.278C29.3393 17.1984 29.6541 17.1195 29.6541 17.0804C29.6541 17.0446 29.5627 16.8326 29.451 16.6093C29.229 16.1656 28.8932 15.826 28.4885 15.6358C27.8839 15.3516 26.5718 15.2551 25.7393 15.4336ZM45.3263 15.393C45.0858 15.4712 44.7877 15.6712 44.6266 15.8625L44.4811 16.0355V15.7449V15.4542H43.5938H42.7065V18.5742V21.6942H43.651H44.5956L44.5965 20.4204C44.5978 18.6748 44.6696 17.8575 44.855 17.4781C45.0935 16.9901 45.5053 16.8782 46.0793 17.1454C46.2499 17.2248 46.4077 17.2697 46.43 17.245C46.4732 17.1973 47 15.7851 47 15.7172C47 15.695 46.8569 15.6114 46.682 15.5313C46.3356 15.3727 45.6152 15.2992 45.3263 15.393ZM39.3834 16.6837C39.5811 16.7859 39.7594 17.0668 39.8111 17.3577L39.8493 17.5724H38.8663H37.8834L37.9193 17.3929C37.971 17.1344 38.1728 16.8333 38.3783 16.708C38.597 16.5746 39.1468 16.5613 39.3834 16.6837ZM13.0863 16.7311C13.7179 16.8949 14.0823 17.4074 14.1279 18.196C14.1771 19.0457 13.9316 19.6539 13.4181 19.9549C13.1933 20.0867 13.0791 20.1146 12.7696 20.1134C11.8814 20.1099 11.3922 19.5017 11.3922 18.4011C11.3922 17.3357 11.8355 16.7637 12.7394 16.663C12.7719 16.6594 12.928 16.69 13.0863 16.7311Z" fill="#636363"/>
</svg>
