<svg width="84" height="14" viewBox="0 0 84 14" fill="none" xmlns="http://www.w3.org/2000/svg">
<g clip-path="url(#clip0_84_369)">
<path d="M6.70587 10.5737L10.8501 13.0756L9.75035 8.36137L13.4118 5.18948L8.59081 4.78099L6.70587 0.336121L4.82095 4.78099L0 5.18948L3.66142 8.36137L2.56167 13.0756L6.70587 10.5737Z" fill="#FBB03B"/>
</g>
<g clip-path="url(#clip1_84_369)">
<path d="M24.353 10.5737L28.4972 13.0756L27.3974 8.36137L31.0589 5.18948L26.2379 4.78099L24.353 0.336121L22.468 4.78099L17.6471 5.18948L21.3085 8.36137L20.2088 13.0756L24.353 10.5737Z" fill="#FBB03B"/>
</g>
<g clip-path="url(#clip2_84_369)">
<path d="M42 10.5737L46.1442 13.0756L45.0445 8.36137L48.7059 5.18948L43.8849 4.78099L42 0.336121L40.1151 4.78099L35.2941 5.18948L38.9555 8.36137L37.8558 13.0756L42 10.5737Z" fill="#FBB03B"/>
</g>
<g clip-path="url(#clip3_84_369)">
<path d="M59.647 10.5737L63.7913 13.0756L62.6915 8.36137L66.3529 5.18948L61.532 4.78099L59.647 0.336121L57.7621 4.78099L52.9412 5.18948L56.6026 8.36137L55.5028 13.0756L59.647 10.5737Z" fill="#FBB03B"/>
</g>
<g clip-path="url(#clip4_84_369)">
<path d="M77.2941 10.5737L81.4384 13.0756L80.3386 8.36137L84 5.18948L79.1791 4.78099L77.2941 0.336121L75.4092 4.78099L70.5883 5.18948L74.2497 8.36137L73.1499 13.0756L77.2941 10.5737Z" fill="#DADADA"/>
</g>
<defs>
<clipPath id="clip0_84_369">
<rect width="13.4118" height="13.4118" fill="white"/>
</clipPath>
<clipPath id="clip1_84_369">
<rect width="13.4118" height="13.4118" fill="white" transform="translate(17.6471)"/>
</clipPath>
<clipPath id="clip2_84_369">
<rect width="13.4118" height="13.4118" fill="white" transform="translate(35.2941)"/>
</clipPath>
<clipPath id="clip3_84_369">
<rect width="13.4118" height="13.4118" fill="white" transform="translate(52.9412)"/>
</clipPath>
<clipPath id="clip4_84_369">
<rect width="13.4118" height="13.4118" fill="white" transform="translate(70.5883)"/>
</clipPath>
</defs>
</svg>
