<svg width="40" height="40" viewBox="0 0 40 40" fill="none" xmlns="http://www.w3.org/2000/svg">
<path d="M37.1651 5.62525C35.2751 3.77969 32.6638 2.8573 29.3301 2.8573C28.4075 2.8573 27.466 3.01726 26.5064 3.33702C25.5464 3.65702 24.6533 4.08874 23.8282 4.63187C23.002 5.17485 22.2919 5.68475 21.6962 6.1608C21.1013 6.63701 20.5356 7.14308 20 7.67862C19.4641 7.14308 18.8986 6.63701 18.3036 6.1608C17.7082 5.68475 16.9978 5.17516 16.1717 4.63187C15.3458 4.08851 14.4529 3.6571 13.4931 3.33702C12.5335 3.01734 11.5921 2.8573 10.6695 2.8573C7.33606 2.8573 4.72462 3.77992 2.8348 5.62525C0.944987 7.47043 0 10.0298 0 13.3036C0 14.3006 0.175128 15.3276 0.52468 16.3838C0.874232 17.4403 1.27257 18.3408 1.71891 19.0847C2.16518 19.8285 2.67125 20.5542 3.23674 21.261C3.80223 21.9679 4.2155 22.4549 4.47561 22.7229C4.73596 22.9905 4.94064 23.1841 5.08942 23.303L19.0178 36.7406C19.2857 37.0087 19.6131 37.1427 19.9999 37.1427C20.3868 37.1427 20.7143 37.0087 20.9821 36.7411L34.8884 23.348C38.2962 19.9406 39.9999 16.5923 39.9999 13.3036C40 10.0298 39.0549 7.47043 37.1651 5.62525Z" fill="#FF6969"/>
</svg>
