<svg width="32" height="32" viewBox="0 0 32 32" fill="none" xmlns="http://www.w3.org/2000/svg">
<g id="2849824-basket-buy-market-multimedia-shop-shopping-store_107977 1">
<g id="1">
<path id="Vector" d="M24.8613 19.75H12.0406C11.8279 19.7504 11.6214 19.6783 11.455 19.5458C11.2886 19.4133 11.1722 19.2281 11.125 19.0206L8.96627 9.61564C8.93469 9.47826 8.9345 9.33552 8.96572 9.19805C8.99693 9.06058 9.05874 8.93192 9.14656 8.82165C9.23437 8.71137 9.34592 8.62232 9.47291 8.56111C9.59989 8.49991 9.73905 8.46813 9.88002 8.46814H27.0219C27.163 8.46785 27.3024 8.49942 27.4296 8.5605C27.5568 8.62158 27.6686 8.7106 27.7566 8.82091C27.8447 8.93123 27.9066 9.05999 27.938 9.19759C27.9693 9.3352 27.9691 9.4781 27.9375 9.61564L25.775 19.0206C25.7279 19.2277 25.6118 19.4127 25.4458 19.5452C25.2798 19.6777 25.0737 19.7499 24.8613 19.75ZM12.7869 17.875H24.115L25.8444 10.345H11.0569L12.7869 17.875Z" fill="#FF6969"/>
<path id="Vector_2" d="M13.875 28.1249C13.1645 28.1249 12.4699 27.9142 11.8791 27.5195C11.2884 27.1247 10.8279 26.5637 10.556 25.9072C10.2841 25.2508 10.2129 24.5285 10.3516 23.8316C10.4902 23.1347 10.8323 22.4946 11.3348 21.9922C11.8372 21.4897 12.4773 21.1476 13.1742 21.009C13.871 20.8704 14.5934 20.9415 15.2498 21.2134C15.9063 21.4853 16.4673 21.9458 16.8621 22.5366C17.2568 23.1273 17.4675 23.8219 17.4675 24.5324C17.4665 25.4849 17.0877 26.3981 16.4142 27.0716C15.7407 27.7451 14.8275 28.124 13.875 28.1249ZM13.875 22.8156C13.5353 22.8156 13.2032 22.9163 12.9208 23.1051C12.6383 23.2938 12.4182 23.5621 12.2882 23.876C12.1582 24.1898 12.1243 24.5352 12.1906 24.8684C12.2569 25.2015 12.4205 25.5076 12.6608 25.7477C12.9011 25.9879 13.2071 26.1514 13.5403 26.2176C13.8736 26.2838 14.2189 26.2497 14.5327 26.1197C14.8465 25.9896 15.1147 25.7693 15.3034 25.4868C15.492 25.2043 15.5927 24.8722 15.5925 24.5324C15.592 24.0771 15.4109 23.6406 15.0889 23.3188C14.7669 22.9969 14.3303 22.8159 13.875 22.8156Z" fill="#FF6969"/>
<path id="Vector_3" d="M23.0263 28.1249C22.3158 28.1249 21.6212 27.9142 21.0304 27.5195C20.4396 27.1247 19.9791 26.5637 19.7072 25.9072C19.4353 25.2508 19.3642 24.5285 19.5028 23.8316C19.6414 23.1347 19.9836 22.4946 20.486 21.9922C20.9884 21.4897 21.6285 21.1476 22.3254 21.009C23.0223 20.8704 23.7446 20.9415 24.4011 21.2134C25.0575 21.4853 25.6186 21.9458 26.0133 22.5366C26.4081 23.1273 26.6188 23.8219 26.6188 24.5324C26.6178 25.4849 26.239 26.3981 25.5655 27.0716C24.892 27.7451 23.9788 28.124 23.0263 28.1249ZM23.0263 22.8156C22.6866 22.8156 22.3545 22.9163 22.072 23.1051C21.7896 23.2938 21.5694 23.5621 21.4395 23.876C21.3095 24.1898 21.2755 24.5352 21.3418 24.8684C21.4081 25.2015 21.5718 25.5076 21.812 25.7477C22.0523 25.9879 22.3584 26.1514 22.6916 26.2176C23.0248 26.2838 23.3702 26.2497 23.684 26.1197C23.9978 25.9896 24.266 25.7693 24.4546 25.4868C24.6433 25.2043 24.7439 24.8722 24.7438 24.5324C24.7433 24.0771 24.5622 23.6406 24.2401 23.3188C23.9181 22.9969 23.4816 22.8159 23.0263 22.8156Z" fill="#FF6969"/>
<path id="Vector_4" d="M9.88001 10.3431C9.68323 10.3431 9.49143 10.2812 9.33181 10.1661C9.17218 10.051 9.05282 9.88858 8.99064 9.70187L7.38376 4.875H4.41876C4.17012 4.875 3.93167 4.77623 3.75585 4.60041C3.58003 4.4246 3.48126 4.18614 3.48126 3.9375C3.48126 3.68886 3.58003 3.4504 3.75585 3.27459C3.93167 3.09877 4.17012 3 4.41876 3H8.06251C8.2593 3.00002 8.4511 3.06196 8.61072 3.17705C8.77034 3.29214 8.8897 3.45455 8.95189 3.64125L10.7725 9.10937C10.8194 9.25029 10.8322 9.40033 10.8098 9.54715C10.7874 9.69397 10.7304 9.83337 10.6436 9.95385C10.5567 10.0743 10.4425 10.1725 10.3103 10.2401C10.1781 10.3078 10.0317 10.3431 9.88314 10.3431H9.88001Z" fill="#FF6969"/>
</g>
</g>
</svg>
