<svg width="24" height="24" viewBox="0 0 24 24" fill="none" xmlns="http://www.w3.org/2000/svg">
<path d="M12 21.96C11.808 21.96 11.616 21.888 11.472 21.744L2.03998 12.264C0.863977 11.112 0.239977 9.48001 0.287977 7.77601C0.383977 6.07201 1.17598 4.46401 2.47198 3.36001C3.55198 2.49601 4.84798 2.04001 6.21598 2.04001C7.87198 2.04001 9.50398 2.71201 10.68 3.88801L12 5.20801L13.32 3.91201C15.624 1.60801 19.152 1.39201 21.528 3.43201C22.824 4.46401 23.616 6.02401 23.712 7.72801C23.808 9.43201 23.16 11.112 21.96 12.312L12.504 21.768C12.384 21.888 12.192 21.96 12 21.96ZM6.21598 3.24001C5.11198 3.24001 4.07998 3.60001 3.21598 4.29601C2.18398 5.18401 1.53598 6.45601 1.46398 7.82401C1.43998 9.19201 1.94398 10.488 2.87998 11.4L12 20.568L21.12 11.448C22.08 10.488 22.584 9.12001 22.512 7.77601C22.44 6.43201 21.816 5.18401 20.76 4.34401C18.864 2.71201 16.032 2.88001 14.16 4.75201L12 6.88801L9.83998 4.72801C8.90398 3.76801 7.55998 3.24001 6.21598 3.24001Z" fill="#FF6969"/>
</svg>
