<svg width="39" height="39" viewBox="0 0 39 39" fill="none" xmlns="http://www.w3.org/2000/svg">
<g id="Black">
<path id="Vector" d="M7.09912 0.203953C6.38036 0.470631 5.71512 1.14114 5.47043 1.8345C5.40926 2.02498 5.35574 2.39071 5.35574 2.65739V3.13741H3.26062H1.17314L0.96669 3.33551L0.767883 3.54124V20.662V37.7827L0.96669 37.9884L1.17314 38.1865H19.8839H38.5947L38.8012 37.9884L39 37.7827V20.662V3.54124L38.8012 3.33551L38.5947 3.13741H36.5149H34.4274L34.3969 2.5431C34.351 1.57544 33.8081 0.752548 32.9211 0.318245C32.5923 0.15062 32.4317 0.127758 31.7359 0.127758C31.0401 0.127758 30.8795 0.15062 30.5507 0.318245C29.6637 0.752548 29.1208 1.57544 29.0749 2.5431L29.0444 3.13741H19.8839H10.7235L10.6929 2.5431C10.6624 1.82688 10.4483 1.34686 9.94359 0.851601C9.40069 0.303005 8.9725 0.127758 8.10845 0.112522C7.62673 0.0972824 7.28264 0.127758 7.09912 0.203953ZM8.58253 1.81926C8.70487 1.89545 8.88074 2.07832 8.9725 2.22309C9.13307 2.47453 9.14072 2.5812 9.14072 3.89935C9.14072 5.2175 9.13307 5.32417 8.9725 5.57561C8.7584 5.9261 8.4296 6.10897 8.03199 6.10897C7.63437 6.10897 7.30558 5.9261 7.09148 5.57561C6.9309 5.32417 6.92325 5.2175 6.92325 3.89935C6.92325 2.59644 6.93855 2.46691 7.08383 2.23833C7.42027 1.71259 8.07786 1.52972 8.58253 1.81926ZM32.2864 1.81926C32.4088 1.89545 32.5847 2.07832 32.6764 2.22309C32.837 2.47453 32.8446 2.5812 32.8446 3.89935C32.8446 5.2175 32.837 5.32417 32.6764 5.57561C32.4623 5.9261 32.1335 6.10897 31.7359 6.10897C31.3383 6.10897 31.0095 5.9261 30.7954 5.57561C30.6348 5.32417 30.6272 5.2175 30.6272 3.89935C30.6272 2.59644 30.6425 2.46691 30.7877 2.23833C31.1242 1.71259 31.7818 1.52972 32.2864 1.81926ZM5.37103 5.24798C5.41691 6.22326 5.9598 7.04615 6.84679 7.48045C7.17559 7.64808 7.33616 7.67094 8.03199 7.67094C8.72781 7.67094 8.88838 7.64808 9.21718 7.48045C10.1042 7.04615 10.6471 6.22326 10.6929 5.24798L10.7235 4.66129H19.8839H29.0444L29.0749 5.24798C29.1208 6.22326 29.6637 7.04615 30.5507 7.48045C30.8871 7.64808 31.0324 7.67094 31.7359 7.67094C32.4317 7.67094 32.5923 7.64046 32.9211 7.48045C33.8004 7.05377 34.3433 6.23088 34.3969 5.24798L34.4274 4.66129H35.9491H37.4707V6.9471V9.23291H19.8839H2.29717V6.9471V4.66129H3.81881H5.34044L5.37103 5.24798ZM37.4707 23.7097V36.6626H19.8839H2.29717V23.7097V10.7568H19.8839H37.4707V23.7097Z" fill="#FF6969"/>
<path id="Vector_2" d="M10.9071 14.0024C10.7465 14.1624 10.7083 14.2767 10.7083 14.5662C10.7083 14.8557 10.7465 14.97 10.9071 15.13C11.0982 15.3205 11.1517 15.3281 11.8552 15.3281C12.5587 15.3281 12.6122 15.3205 12.8034 15.13C13.0863 14.8405 13.0863 14.2919 12.8034 14.0024C12.6122 13.8119 12.5587 13.8043 11.8552 13.8043C11.1517 13.8043 11.0982 13.8119 10.9071 14.0024Z" fill="#FF6969"/>
<path id="Vector_3" d="M16.2595 14.0024C16.099 14.1624 16.0607 14.2767 16.0607 14.5662C16.0607 14.8557 16.099 14.97 16.2595 15.13C16.4507 15.3205 16.5042 15.3281 17.2077 15.3281C17.9112 15.3281 17.9647 15.3205 18.1558 15.13C18.4388 14.8405 18.4388 14.2919 18.1558 14.0024C17.9647 13.8119 17.9112 13.8043 17.2077 13.8043C16.5042 13.8043 16.4507 13.8119 16.2595 14.0024Z" fill="#FF6969"/>
<path id="Vector_4" d="M21.612 14.0024C21.4514 14.1624 21.4132 14.2767 21.4132 14.5662C21.4132 14.8557 21.4514 14.97 21.612 15.13C21.8032 15.3205 21.8567 15.3281 22.5602 15.3281C23.2636 15.3281 23.3172 15.3205 23.5083 15.13C23.6689 14.97 23.7071 14.8557 23.7071 14.5662C23.7071 14.2767 23.6689 14.1624 23.5083 14.0024C23.3172 13.8119 23.2636 13.8043 22.5602 13.8043C21.8567 13.8043 21.8032 13.8119 21.612 14.0024Z" fill="#FF6969"/>
<path id="Vector_5" d="M26.9646 14.0024C26.804 14.1624 26.7657 14.2767 26.7657 14.5662C26.7657 14.8557 26.804 14.97 26.9646 15.13C27.1557 15.3205 27.2092 15.3281 27.9127 15.3281C28.6162 15.3281 28.6697 15.3205 28.8609 15.13C29.0214 14.97 29.0597 14.8557 29.0597 14.5662C29.0597 14.2767 29.0214 14.1624 28.8609 14.0024C28.6697 13.8119 28.6162 13.8043 27.9127 13.8043C27.2092 13.8043 27.1557 13.8119 26.9646 14.0024Z" fill="#FF6969"/>
<path id="Vector_6" d="M32.317 14.0024C32.1564 14.1624 32.1182 14.2767 32.1182 14.5662C32.1182 14.8557 32.1564 14.97 32.317 15.13C32.5082 15.3205 32.5617 15.3281 33.2652 15.3281C33.9686 15.3281 34.0222 15.3205 34.2133 15.13C34.3739 14.97 34.4121 14.8557 34.4121 14.5662C34.4121 14.2767 34.3739 14.1624 34.2133 14.0024C34.0222 13.8119 33.9686 13.8043 33.2652 13.8043C32.5617 13.8043 32.5082 13.8119 32.317 14.0024Z" fill="#FF6969"/>
<path id="Vector_7" d="M5.55456 18.5746C5.27165 18.8642 5.27165 19.4128 5.55456 19.7023C5.74573 19.8928 5.79925 19.9004 6.50272 19.9004C7.20619 19.9004 7.25972 19.8928 7.45088 19.7023C7.7338 19.4128 7.7338 18.8642 7.45088 18.5746C7.25972 18.3841 7.20619 18.3765 6.50272 18.3765C5.79925 18.3765 5.74573 18.3841 5.55456 18.5746Z" fill="#FF6969"/>
<path id="Vector_8" d="M10.9071 18.5746C10.7465 18.7346 10.7083 18.8489 10.7083 19.1385C10.7083 19.428 10.7465 19.5423 10.9071 19.7023C11.0982 19.8928 11.1517 19.9004 11.8552 19.9004C12.5587 19.9004 12.6122 19.8928 12.8034 19.7023C13.0863 19.4128 13.0863 18.8642 12.8034 18.5746C12.6122 18.3841 12.5587 18.3765 11.8552 18.3765C11.1517 18.3765 11.0982 18.3841 10.9071 18.5746Z" fill="#FF6969"/>
<path id="Vector_9" d="M16.2595 18.5746C16.099 18.7346 16.0607 18.8489 16.0607 19.1385C16.0607 19.428 16.099 19.5423 16.2595 19.7023C16.4507 19.8928 16.5042 19.9004 17.2077 19.9004C17.9112 19.9004 17.9647 19.8928 18.1558 19.7023C18.4388 19.4128 18.4388 18.8642 18.1558 18.5746C17.9647 18.3841 17.9112 18.3765 17.2077 18.3765C16.5042 18.3765 16.4507 18.3841 16.2595 18.5746Z" fill="#FF6969"/>
<path id="Vector_10" d="M21.612 18.5746C21.4514 18.7346 21.4132 18.8489 21.4132 19.1385C21.4132 19.428 21.4514 19.5423 21.612 19.7023C21.8032 19.8928 21.8567 19.9004 22.5602 19.9004C23.2636 19.9004 23.3172 19.8928 23.5083 19.7023C23.6689 19.5423 23.7071 19.428 23.7071 19.1385C23.7071 18.8489 23.6689 18.7346 23.5083 18.5746C23.3172 18.3841 23.2636 18.3765 22.5602 18.3765C21.8567 18.3765 21.8032 18.3841 21.612 18.5746Z" fill="#FF6969"/>
<path id="Vector_11" d="M26.9646 18.5746C26.804 18.7346 26.7657 18.8489 26.7657 19.1385C26.7657 19.428 26.804 19.5423 26.9646 19.7023C27.1557 19.8928 27.2092 19.9004 27.9127 19.9004C28.6162 19.9004 28.6697 19.8928 28.8609 19.7023C29.0214 19.5423 29.0597 19.428 29.0597 19.1385C29.0597 18.8489 29.0214 18.7346 28.8609 18.5746C28.6697 18.3841 28.6162 18.3765 27.9127 18.3765C27.2092 18.3765 27.1557 18.3841 26.9646 18.5746Z" fill="#FF6969"/>
<path id="Vector_12" d="M32.317 18.5746C32.1564 18.7346 32.1182 18.8489 32.1182 19.1385C32.1182 19.428 32.1564 19.5423 32.317 19.7023C32.5082 19.8928 32.5617 19.9004 33.2652 19.9004C33.9686 19.9004 34.0222 19.8928 34.2133 19.7023C34.3739 19.5423 34.4121 19.428 34.4121 19.1385C34.4121 18.8489 34.3739 18.7346 34.2133 18.5746C34.0222 18.3841 33.9686 18.3765 33.2652 18.3765C32.5617 18.3765 32.5082 18.3841 32.317 18.5746Z" fill="#FF6969"/>
<path id="Vector_13" d="M5.55456 23.1459C5.27165 23.4354 5.27165 23.984 5.55456 24.2736C5.74573 24.4641 5.79925 24.4717 6.50272 24.4717C7.20619 24.4717 7.25972 24.4641 7.45088 24.2736C7.7338 23.984 7.7338 23.4354 7.45088 23.1459C7.25972 22.9554 7.20619 22.9478 6.50272 22.9478C5.79925 22.9478 5.74573 22.9554 5.55456 23.1459Z" fill="#FF6969"/>
<path id="Vector_14" d="M10.9071 23.1459C10.7465 23.3059 10.7083 23.4202 10.7083 23.7097C10.7083 23.9993 10.7465 24.1136 10.9071 24.2736C11.0982 24.4641 11.1517 24.4717 11.8552 24.4717C12.5587 24.4717 12.6122 24.4641 12.8034 24.2736C13.0863 23.984 13.0863 23.4354 12.8034 23.1459C12.6122 22.9554 12.5587 22.9478 11.8552 22.9478C11.1517 22.9478 11.0982 22.9554 10.9071 23.1459Z" fill="#FF6969"/>
<path id="Vector_15" d="M16.2595 23.1459C16.099 23.3059 16.0607 23.4202 16.0607 23.7097C16.0607 23.9993 16.099 24.1136 16.2595 24.2736C16.4507 24.4641 16.5042 24.4717 17.2077 24.4717C17.9112 24.4717 17.9647 24.4641 18.1558 24.2736C18.4388 23.984 18.4388 23.4354 18.1558 23.1459C17.9647 22.9554 17.9112 22.9478 17.2077 22.9478C16.5042 22.9478 16.4507 22.9554 16.2595 23.1459Z" fill="#FF6969"/>
<path id="Vector_16" d="M21.612 23.1459C21.4514 23.3059 21.4132 23.4202 21.4132 23.7097C21.4132 23.9993 21.4514 24.1136 21.612 24.2736C21.8032 24.4641 21.8567 24.4717 22.5602 24.4717C23.2636 24.4717 23.3172 24.4641 23.5083 24.2736C23.6689 24.1136 23.7071 23.9993 23.7071 23.7097C23.7071 23.4202 23.6689 23.3059 23.5083 23.1459C23.3172 22.9554 23.2636 22.9478 22.5602 22.9478C21.8567 22.9478 21.8032 22.9554 21.612 23.1459Z" fill="#FF6969"/>
<path id="Vector_17" d="M26.9646 23.1459C26.804 23.3059 26.7657 23.4202 26.7657 23.7097C26.7657 23.9993 26.804 24.1136 26.9646 24.2736C27.1557 24.4641 27.2092 24.4717 27.9127 24.4717C28.6162 24.4717 28.6697 24.4641 28.8609 24.2736C29.0214 24.1136 29.0597 23.9993 29.0597 23.7097C29.0597 23.4202 29.0214 23.3059 28.8609 23.1459C28.6697 22.9554 28.6162 22.9478 27.9127 22.9478C27.2092 22.9478 27.1557 22.9554 26.9646 23.1459Z" fill="#FF6969"/>
<path id="Vector_18" d="M32.317 23.1459C32.1564 23.3059 32.1182 23.4202 32.1182 23.7097C32.1182 23.9993 32.1564 24.1136 32.317 24.2736C32.5082 24.4641 32.5617 24.4717 33.2652 24.4717C33.9686 24.4717 34.0222 24.4641 34.2133 24.2736C34.3739 24.1136 34.4121 23.9993 34.4121 23.7097C34.4121 23.4202 34.3739 23.3059 34.2133 23.1459C34.0222 22.9554 33.9686 22.9478 33.2652 22.9478C32.5617 22.9478 32.5082 22.9554 32.317 23.1459Z" fill="#FF6969"/>
<path id="Vector_19" d="M5.55456 27.7172C5.27165 28.0067 5.27165 28.5553 5.55456 28.8449C5.74573 29.0353 5.79925 29.043 6.50272 29.043C7.20619 29.043 7.25972 29.0353 7.45088 28.8449C7.7338 28.5553 7.7338 28.0067 7.45088 27.7172C7.25972 27.5267 7.20619 27.5191 6.50272 27.5191C5.79925 27.5191 5.74573 27.5267 5.55456 27.7172Z" fill="#FF6969"/>
<path id="Vector_20" d="M10.9071 27.7172C10.7465 27.8772 10.7083 27.9915 10.7083 28.281C10.7083 28.5706 10.7465 28.6849 10.9071 28.8449C11.0982 29.0353 11.1517 29.043 11.8552 29.043C12.5587 29.043 12.6122 29.0353 12.8034 28.8449C13.0863 28.5553 13.0863 28.0067 12.8034 27.7172C12.6122 27.5267 12.5587 27.5191 11.8552 27.5191C11.1517 27.5191 11.0982 27.5267 10.9071 27.7172Z" fill="#FF6969"/>
<path id="Vector_21" d="M16.2595 27.7172C16.099 27.8772 16.0607 27.9915 16.0607 28.281C16.0607 28.5706 16.099 28.6849 16.2595 28.8449C16.4507 29.0353 16.5042 29.043 17.2077 29.043C17.9112 29.043 17.9647 29.0353 18.1558 28.8449C18.4388 28.5553 18.4388 28.0067 18.1558 27.7172C17.9647 27.5267 17.9112 27.5191 17.2077 27.5191C16.5042 27.5191 16.4507 27.5267 16.2595 27.7172Z" fill="#FF6969"/>
<path id="Vector_22" d="M21.612 27.7172C21.4514 27.8772 21.4132 27.9915 21.4132 28.281C21.4132 28.5706 21.4514 28.6849 21.612 28.8449C21.8032 29.0353 21.8567 29.043 22.5602 29.043C23.2636 29.043 23.3172 29.0353 23.5083 28.8449C23.6689 28.6849 23.7071 28.5706 23.7071 28.281C23.7071 27.9915 23.6689 27.8772 23.5083 27.7172C23.3172 27.5267 23.2636 27.5191 22.5602 27.5191C21.8567 27.5191 21.8032 27.5267 21.612 27.7172Z" fill="#FF6969"/>
<path id="Vector_23" d="M26.9646 27.7172C26.804 27.8772 26.7657 27.9915 26.7657 28.281C26.7657 28.5706 26.804 28.6849 26.9646 28.8449C27.1557 29.0353 27.2092 29.043 27.9127 29.043C28.6162 29.043 28.6697 29.0353 28.8609 28.8449C29.0214 28.6849 29.0597 28.5706 29.0597 28.281C29.0597 27.9915 29.0214 27.8772 28.8609 27.7172C28.6697 27.5267 28.6162 27.5191 27.9127 27.5191C27.2092 27.5191 27.1557 27.5267 26.9646 27.7172Z" fill="#FF6969"/>
<path id="Vector_24" d="M32.317 27.7172C32.1564 27.8772 32.1182 27.9915 32.1182 28.281C32.1182 28.5706 32.1564 28.6849 32.317 28.8449C32.5082 29.0353 32.5617 29.043 33.2652 29.043C33.9686 29.043 34.0222 29.0353 34.2133 28.8449C34.3739 28.6849 34.4121 28.5706 34.4121 28.281C34.4121 27.9915 34.3739 27.8772 34.2133 27.7172C34.0222 27.5267 33.9686 27.5191 33.2652 27.5191C32.5617 27.5191 32.5082 27.5267 32.317 27.7172Z" fill="#FF6969"/>
<path id="Vector_25" d="M5.55456 32.2895C5.27165 32.579 5.27165 33.1276 5.55456 33.4171C5.74573 33.6076 5.79925 33.6152 6.50272 33.6152C7.20619 33.6152 7.25972 33.6076 7.45088 33.4171C7.7338 33.1276 7.7338 32.579 7.45088 32.2895C7.25972 32.099 7.20619 32.0914 6.50272 32.0914C5.79925 32.0914 5.74573 32.099 5.55456 32.2895Z" fill="#FF6969"/>
<path id="Vector_26" d="M10.9071 32.2895C10.7465 32.4495 10.7083 32.5638 10.7083 32.8533C10.7083 33.1428 10.7465 33.2571 10.9071 33.4171C11.0982 33.6076 11.1517 33.6152 11.8552 33.6152C12.5587 33.6152 12.6122 33.6076 12.8034 33.4171C13.0863 33.1276 13.0863 32.579 12.8034 32.2895C12.6122 32.099 12.5587 32.0914 11.8552 32.0914C11.1517 32.0914 11.0982 32.099 10.9071 32.2895Z" fill="#FF6969"/>
<path id="Vector_27" d="M16.2595 32.2895C16.099 32.4495 16.0607 32.5638 16.0607 32.8533C16.0607 33.1428 16.099 33.2571 16.2595 33.4171C16.4507 33.6076 16.5042 33.6152 17.2077 33.6152C17.9112 33.6152 17.9647 33.6076 18.1558 33.4171C18.4388 33.1276 18.4388 32.579 18.1558 32.2895C17.9647 32.099 17.9112 32.0914 17.2077 32.0914C16.5042 32.0914 16.4507 32.099 16.2595 32.2895Z" fill="#FF6969"/>
<path id="Vector_28" d="M21.612 32.2895C21.4514 32.4495 21.4132 32.5638 21.4132 32.8533C21.4132 33.1428 21.4514 33.2571 21.612 33.4171C21.8032 33.6076 21.8567 33.6152 22.5602 33.6152C23.2636 33.6152 23.3172 33.6076 23.5083 33.4171C23.6689 33.2571 23.7071 33.1428 23.7071 32.8533C23.7071 32.5638 23.6689 32.4495 23.5083 32.2895C23.3172 32.099 23.2636 32.0914 22.5602 32.0914C21.8567 32.0914 21.8032 32.099 21.612 32.2895Z" fill="#FF6969"/>
</g>
</svg>
