<svg width="52" height="52" viewBox="0 0 52 52" fill="none" xmlns="http://www.w3.org/2000/svg">
<g clip-path="url(#clip0_213_462)">
<path d="M26.0078 52.0156C40.3715 52.0156 52.0156 40.3715 52.0156 26.0078C52.0156 11.6441 40.3715 0 26.0078 0C11.6441 0 0 11.6441 0 26.0078C0 40.3715 11.6441 52.0156 26.0078 52.0156Z" fill="#FBB03B"/>
<path fill-rule="evenodd" clip-rule="evenodd" d="M25.399 9.48575C23.4956 9.73538 22.2163 10.141 20.7654 11.2643C20.1257 11.7636 19.6889 12.216 19.1896 12.8713C18.7372 13.4485 18.3159 14.2286 18.0351 14.9307C16.9118 17.8638 17.5203 20.8125 19.2988 23.2619C20.0789 24.3228 21.7483 25.5554 22.9808 25.9766C24.2133 26.3978 25.2118 26.6007 26.6472 26.5227C32.6694 26.1482 36.4449 19.5956 33.6055 14.057C33.3402 13.5422 33.075 13.1833 32.763 12.7621C31.1872 10.6091 27.9889 9.14252 25.399 9.48575ZM25.4302 14.5251C23.4332 14.9307 22.2319 16.6781 22.5284 18.5659C22.8092 20.2976 24.4941 21.8734 26.6316 21.499C29.7363 20.9529 30.5476 17.0057 28.2073 15.2271C27.5521 14.7279 26.4911 14.3066 25.4302 14.5251Z" fill="white"/>
<path fill-rule="evenodd" clip-rule="evenodd" d="M21.6548 41.4846C22.0293 41.1101 25.8048 37.3189 26.0233 37.1785C26.2573 37.3189 26.5849 37.6934 26.8033 37.9118L30.5633 41.6874C31.0782 42.2178 31.6866 42.5923 32.7943 42.5455C33.6368 42.327 34.2609 41.9994 34.6509 41.2661C34.7757 41.0477 34.885 40.7825 34.9318 40.5017C35.197 39.0507 34.2453 38.2862 33.668 37.6934C33.3716 37.3969 29.6584 33.7618 29.518 33.5278C31.1718 33.1221 32.5447 32.5449 33.8708 31.796C34.5885 31.4059 35.119 31.0783 35.3998 30.267C36.0395 28.5041 34.6821 26.8347 32.9972 26.8815C32.0143 26.9127 31.5774 27.4119 30.8597 27.7552C27.5834 29.2685 24.2603 29.2841 21.0308 27.6616C20.3599 27.3183 19.767 26.7879 18.7997 26.8503C16.9432 26.9439 15.9915 28.8785 16.6467 30.3762C16.99 31.1407 17.5048 31.4215 18.2225 31.8272C19.5018 32.5761 20.9528 33.1377 22.5441 33.5278C22.4037 33.7462 18.6281 37.4594 18.3317 37.7558C17.7232 38.3486 16.8027 39.0975 17.0992 40.5953C17.5516 42.9355 20.0011 43.1539 21.6548 41.4846Z" fill="white"/>
</g>
<defs>
<clipPath id="clip0_213_462">
<rect width="52" height="52" fill="white"/>
</clipPath>
</defs>
</svg>
