<svg width="15" height="15" viewBox="0 0 15 15" fill="none" xmlns="http://www.w3.org/2000/svg">
<g clip-path="url(#clip0_75_3268)">
<path d="M14.9325 11.9556L14.8579 11.7306C14.681 11.205 14.1014 10.6569 13.569 10.5125L11.5983 9.97412C11.0639 9.82873 10.3015 10.0242 9.91054 10.4152L9.19732 11.1284C6.6053 10.428 4.57276 8.39543 3.8733 5.80392L4.58656 5.09066C4.97757 4.69965 5.17304 3.93833 5.02764 3.40392L4.49027 1.43226C4.34488 0.898823 3.79572 0.319232 3.27114 0.144353L3.04618 0.0687169C2.5206 -0.106163 1.77104 0.0706974 1.38006 0.46167L0.313179 1.52953C0.122581 1.71912 0.000765536 2.2614 0.000765536 2.26338C-0.0365493 5.65063 1.29163 8.91409 3.68764 11.3101C6.07777 13.7003 9.32901 15.0265 12.7064 14.998C12.7241 14.998 13.2821 14.8781 13.4727 14.6885L14.5396 13.6216C14.9305 13.2307 15.1074 12.4812 14.9325 11.9556Z" fill="#171920"/>
</g>
<defs>
<clipPath id="clip0_75_3268">
<rect width="15" height="15" fill="white"/>
</clipPath>
</defs>
</svg>
