<svg width="16" height="16" viewBox="0 0 16 16" fill="none" xmlns="http://www.w3.org/2000/svg">
<g id="phone-call-auricular-symbol-in-black_icon-icons.com_56483 1" clip-path="url(#clip0_75_1149)">
<g id="Group">
<path id="Vector" d="M15.928 12.7525L15.8484 12.5126C15.6598 11.952 15.0415 11.3673 14.4736 11.2132L12.3715 10.639C11.8015 10.4839 10.9883 10.6924 10.5712 11.1095L9.81047 11.8702C7.04566 11.1232 4.87761 8.95504 4.13152 6.19076L4.89233 5.42996C5.3094 5.01288 5.5179 4.20081 5.36282 3.63076L4.78962 1.52767C4.63454 0.958663 4.04877 0.340433 3.48922 0.153895L3.24926 0.0732167C2.68864 -0.113322 1.8891 0.0753292 1.47207 0.492367L0.334058 1.63142C0.130753 1.83365 0.000816572 2.41207 0.000816572 2.41419C-0.0389859 6.02726 1.37774 9.50829 3.93348 12.0641C6.48296 14.6135 9.95094 16.0282 13.5535 15.9978C13.5724 15.9978 14.1676 15.8699 14.3709 15.6677L15.5089 14.5297C15.9259 14.1127 16.1145 13.3132 15.928 12.7525Z" fill="white"/>
</g>
</g>
<defs>
<clipPath id="clip0_75_1149">
<rect width="16" height="16" fill="white"/>
</clipPath>
</defs>
</svg>
