<svg width="12" height="12" viewBox="0 0 12 12" fill="none" xmlns="http://www.w3.org/2000/svg">
<g id="phone-call-auricular-symbol-in-black_icon-icons.com_56483 1" clip-path="url(#clip0_75_1911)">
<g id="Group">
<path id="Vector" d="M11.946 9.56447L11.8863 9.3845C11.7448 8.96404 11.2811 8.52551 10.8552 8.40998L9.27862 7.9793C8.85109 7.86299 8.24122 8.01939 7.92842 8.33217L7.35784 8.90275C5.28423 8.34243 3.65819 6.71634 3.09863 4.64313L3.66923 4.07253C3.98204 3.75972 4.13841 3.15067 4.0221 2.72313L3.5922 1.14581C3.47589 0.719058 3.03656 0.255386 2.6169 0.115482L2.43693 0.0549736C2.01647 -0.0849304 1.41681 0.0565579 1.10404 0.369336L0.250528 1.22362C0.0980496 1.3753 0.00059717 1.80912 0.00059717 1.8107C-0.0292547 4.52051 1.03329 7.13128 2.9501 9.04811C4.8622 10.9602 7.46319 12.0212 10.1651 11.9984C10.1793 11.9984 10.6257 11.9025 10.7781 11.7508L11.6316 10.8973C11.9444 10.5846 12.0859 9.98493 11.946 9.56447Z" fill="#A7A7A7"/>
</g>
</g>
<defs>
<clipPath id="clip0_75_1911">
<rect width="12" height="12" fill="white"/>
</clipPath>
</defs>
</svg>
