<svg width="25" height="25" viewBox="0 0 25 25" fill="none" xmlns="http://www.w3.org/2000/svg">
<g id="searchmagnifierinterfacesymbol_79894 1" clip-path="url(#clip0_214_692)">
<g id="Group">
<path id="Vector" d="M10.0849 0C4.73836 0 0.40332 4.33508 0.40332 9.68155C0.40332 15.0281 4.73836 19.3631 10.0849 19.3631C12.1408 19.3631 14.0475 18.7218 15.6147 17.6295L22.9362 24.9499C23.0023 25.016 23.1094 25.016 23.172 24.9544L24.5514 23.5751C24.6151 23.5113 24.6095 23.402 24.5468 23.3393L17.3209 16.1134C18.8426 14.4038 19.7664 12.1509 19.7664 9.68151C19.7664 4.33508 15.4314 0 10.0849 0ZM10.0849 18.2241C5.36712 18.2241 1.54232 14.3993 1.54232 9.68155C1.54232 4.9638 5.36708 1.13904 10.0849 1.13904C14.8027 1.13904 18.6274 4.9638 18.6274 9.68155C18.6274 14.3993 14.8026 18.2241 10.0849 18.2241Z" fill="#FF6969"/>
</g>
</g>
<defs>
<clipPath id="clip0_214_692">
<rect width="25" height="25" fill="white"/>
</clipPath>
</defs>
</svg>
