<svg width="34" height="34" viewBox="0 0 34 34" fill="none" xmlns="http://www.w3.org/2000/svg">
<g id="search_magnifier_icon_145939 1" clip-path="url(#clip0_75_1207)">
<g id="Icons1">
<path id="Vector" fill-rule="evenodd" clip-rule="evenodd" d="M21.2181 23.4504C19.4188 24.7822 25.0139 19.0606 23.4217 21.2356C23.4616 21.2324 23.3877 21.353 23.1402 21.6553C23.1402 21.6553 27.3923 25.8787 29.4796 28.0281C30.2042 28.8117 28.8968 30.3757 28.0086 29.5592C26.1184 27.7253 21.6458 23.1677 21.6389 23.1603L21.2181 23.4504Z" fill="black" fill-opacity="0.7"/>
<path id="Vector_2" d="M14.9701 25.586C17.706 25.5595 20.4143 24.4263 22.3619 22.5016C24.675 20.2156 25.866 16.8337 25.4506 13.6047C24.7387 8.07177 20.1902 4.31689 14.9021 4.31689C10.8842 4.31689 6.97956 6.83024 5.26681 10.4746C3.95569 13.2647 3.95303 16.6334 5.26681 19.4283C6.96734 23.0472 10.8083 25.5472 14.8336 25.586C14.8792 25.586 14.9249 25.586 14.9701 25.586ZM14.8447 23.8132C10.7589 23.7739 6.94662 20.614 6.18853 16.5627C5.65409 13.7067 6.66294 10.6159 8.76456 8.58761C11.2179 6.21877 15.0742 5.42561 18.2808 6.76808C21.1496 7.96924 23.2969 10.7583 23.6927 13.831C24.0316 16.465 23.0865 19.2254 21.2293 21.1267C19.5999 22.7948 17.315 23.7904 14.9589 23.8132C14.9207 23.8132 14.883 23.8132 14.8447 23.8132Z" fill="black" fill-opacity="0.7"/>
</g>
</g>
<defs>
<clipPath id="clip0_75_1207">
<rect width="34" height="34" fill="white"/>
</clipPath>
</defs>
</svg>
