<svg width="69" height="82" viewBox="0 0 69 82" fill="none" xmlns="http://www.w3.org/2000/svg">
<path d="M68.5 40.7005C68.5 62.7847 53.2071 80.5494 34.5 80.5494C15.7929 80.5494 0.5 62.7847 0.5 40.7005C0.5 18.6162 15.7929 0.851562 34.5 0.851562C53.2071 0.851562 68.5 18.6162 68.5 40.7005Z" stroke="#56575C"/>
<g clip-path="url(#clip0_614_61)">
<path d="M47.6216 45.8152C47.3197 45.8152 47.0747 45.5288 47.0747 45.1757C47.0747 44.8225 47.3197 44.5361 47.6216 44.5361H50.0391C50.2761 44.5361 50.4936 44.4215 50.6498 44.2376C50.807 44.0537 50.905 43.8006 50.905 43.5234V40.219C50.905 39.9405 50.8082 39.686 50.652 39.5048L50.6508 39.5035L50.6496 39.5048C50.4924 39.3209 50.276 39.2064 50.039 39.2064H47.6215C47.3481 39.2064 47.1213 38.9705 47.0815 38.6627C46.9175 37.7793 46.6872 36.9252 46.3979 36.1098L46.3865 36.0765C46.0915 35.2477 45.7315 34.4536 45.3179 33.7047C45.1755 33.4476 45.2108 33.1145 45.3897 32.9066L45.3885 32.9053L47.0997 30.9039C47.2672 30.7081 47.3503 30.4469 47.3503 30.1885C47.3503 29.9286 47.266 29.6674 47.0997 29.4729L45.1024 27.1372C44.935 26.9413 44.7129 26.8427 44.4895 26.8427C44.2662 26.8427 44.0429 26.9399 43.8778 27.1345L43.8755 27.1332L43.8767 27.1345L42.1666 29.1345C41.9719 29.3623 41.6643 29.381 41.4489 29.1917C40.8109 28.7108 40.1342 28.295 39.4278 27.9539L39.4255 27.9526V27.9539C38.7191 27.6115 37.9775 27.3383 37.2107 27.1478C36.9544 27.0839 36.7778 26.8187 36.7778 26.5229H36.7766V23.6956C36.7766 23.4171 36.6798 23.1626 36.5236 22.9814L36.5214 22.9787C36.3677 22.7962 36.1511 22.683 35.9119 22.683H33.0865C32.8484 22.683 32.6308 22.7962 32.4758 22.9787L32.4736 22.9814C32.3175 23.1626 32.2206 23.4171 32.2206 23.6956V26.523C32.2206 26.8428 32.0178 27.1079 31.7547 27.1546C30.9982 27.3478 30.2668 27.6156 29.5718 27.9527V27.954C28.8507 28.3032 28.1614 28.7282 27.5143 29.2172C27.2967 29.385 27.0119 29.3424 26.8341 29.1332L26.833 29.1346L25.1218 27.1346C24.9543 26.9387 24.731 26.8401 24.51 26.8401C24.289 26.8401 24.0656 26.9387 23.8993 27.1332L23.8982 27.1346L21.8999 29.4717C21.7335 29.6675 21.6481 29.9273 21.6481 30.1872C21.6481 30.447 21.7324 30.7082 21.8999 30.904L21.9283 30.94L23.6112 32.9081C23.7958 33.1252 23.8185 33.4584 23.6818 33.7049C23.2637 34.4603 22.9003 35.2665 22.6018 36.1099C22.3079 36.936 22.0754 37.8021 21.9114 38.6988C21.8567 38.9986 21.6301 39.2051 21.3771 39.2051V39.2065H18.9596C18.7215 39.2065 18.5061 39.3197 18.3489 39.501L18.3466 39.5037C18.1906 39.6875 18.0937 39.9407 18.0937 40.2178V43.5223C18.0937 43.7995 18.1917 44.0538 18.3489 44.2365L18.3717 44.2658C18.5243 44.4323 18.7317 44.5349 18.9584 44.5349H21.376C21.6494 44.5349 21.8761 44.7707 21.9159 45.0785C22.08 45.9619 22.3101 46.8161 22.5995 47.6314L22.6109 47.6647C22.906 48.4936 23.266 49.2877 23.6796 50.0365C23.822 50.2937 23.7867 50.6267 23.6078 50.836L23.609 50.8373L21.8989 52.8373C21.7314 53.0331 21.6471 53.2943 21.6471 53.5542C21.6471 53.814 21.7314 54.0751 21.8989 54.2696L23.8972 56.6054C24.0647 56.8013 24.2868 56.8998 24.509 56.8998C24.7323 56.8998 24.9545 56.8025 25.1208 56.6093L26.8309 54.608C27.0177 54.3867 27.3106 54.3602 27.5224 54.5281C28.1661 55.0144 28.8531 55.4395 29.572 55.7872L29.5925 55.7978C30.2898 56.1336 31.0246 56.4014 31.7845 56.5919C32.0408 56.6559 32.2174 56.9211 32.2174 57.2169H32.2185V60.0443C32.2185 60.3227 32.3154 60.5759 32.4703 60.7597L32.4726 60.7624C32.6298 60.9436 32.8463 61.0568 33.0832 61.0568H35.9087C36.1457 61.0568 36.3632 60.9422 36.5194 60.7583L36.5444 60.7318C36.6867 60.5519 36.7745 60.3094 36.7745 60.0443V57.2169C36.7745 56.8972 36.9761 56.632 37.2393 56.584C37.9947 56.3921 38.725 56.1243 39.421 55.7858C40.1421 55.4354 40.8326 55.0103 41.4786 54.5214C41.6985 54.3534 41.9844 54.3961 42.1633 54.6066L42.1747 54.6199L43.8722 56.6065L43.8734 56.6051C44.0409 56.801 44.263 56.8995 44.4851 56.8995C44.7084 56.8995 44.9319 56.8023 45.0992 56.6078L45.098 56.6064L47.0952 54.2706L47.1191 54.244C47.2706 54.0522 47.3459 53.803 47.3459 53.5539C47.3459 53.294 47.2615 53.0329 47.0952 52.837L46.6679 52.3373L46.2406 51.8376L45.8134 51.3379L45.786 51.3019L45.3907 50.8369C45.2005 50.6157 45.1789 50.2706 45.3258 50.0228L45.4682 49.759H45.467L45.6207 49.4593L45.631 49.4393L45.7563 49.1821L45.8987 48.873L45.9055 48.8597L46.0251 48.5852L46.0239 48.5839L46.1549 48.2668C46.2859 47.9497 46.6118 47.8165 46.8829 47.9697C47.1541 48.123 47.2679 48.5039 47.1369 48.8211L47.0059 49.1382H47.0081L47.0025 49.1515L46.8782 49.4367L46.8611 49.4767L46.7187 49.7858L46.7119 49.7991L46.5718 50.0856L46.5569 50.1176L46.467 50.2921L46.5581 50.3987L46.5901 50.432L47.0174 50.933L47.4446 51.4327L47.8719 51.9324C48.2524 52.3774 48.4438 52.9664 48.4438 53.554C48.4438 54.1189 48.2661 54.6852 47.9107 55.1262L47.8731 55.1755L45.8759 57.5113L45.8747 57.5099L45.8735 57.5113C45.4918 57.9562 44.9894 58.1801 44.4904 58.1801C43.988 58.1801 43.4856 57.9576 43.1039 57.5113L43.1051 57.5099L43.1039 57.5085L41.7015 55.8683C41.1091 56.2867 40.4881 56.6545 39.8445 56.9662C39.2098 57.2741 38.5514 57.5285 37.8735 57.7256V60.0441C37.8735 60.649 37.6684 61.2059 37.3346 61.6163L37.298 61.6629C36.9438 62.0773 36.4515 62.3359 35.9138 62.3359H33.0884C32.5506 62.3359 32.0608 62.0774 31.7053 61.6643L31.703 61.6617C31.3476 61.2459 31.1266 60.673 31.1266 60.0441V57.723C30.4624 57.5297 29.8141 57.2792 29.1875 56.9795L29.1556 56.9662C28.5119 56.653 27.8898 56.2853 27.2985 55.8683L25.8961 57.5085L25.8938 57.5111C25.5122 57.9561 25.0097 58.18 24.5107 58.18C24.0083 58.18 23.5059 57.9575 23.1253 57.5111L21.1274 55.1755C20.7468 54.7305 20.5555 54.1415 20.5555 53.554C20.5555 52.9664 20.7469 52.3774 21.1274 51.9324L22.5321 50.2896C22.1823 49.6101 21.8713 48.8946 21.607 48.1524L21.5945 48.1204C21.3313 47.3769 21.1125 46.6055 20.9439 45.814H18.9596C18.4424 45.814 17.9672 45.5742 17.6152 45.1838L17.5754 45.141C17.221 44.7267 17 44.1524 17 43.5222V40.2177C17 39.5888 17.221 39.0172 17.5753 38.6014L17.5776 38.5988C17.933 38.1843 18.4218 37.9259 18.9596 37.9259H20.9431C21.1117 37.1331 21.3304 36.3616 21.5936 35.6194C21.8602 34.868 22.1747 34.1418 22.5313 33.4489L21.1573 31.8407L21.1266 31.8087C20.746 31.3636 20.5547 30.7734 20.5547 30.1871C20.5547 29.6008 20.7461 29.0119 21.1266 28.5669L23.1249 26.2312L23.126 26.2298C23.5065 25.7834 24.009 25.561 24.5103 25.561C25.0115 25.561 25.5151 25.7835 25.8956 26.2298L25.8968 26.2312L27.3004 27.8727C27.8917 27.4557 28.5126 27.0879 29.1551 26.7761V26.7774L29.1574 26.7761C29.7931 26.4683 30.4528 26.2124 31.1273 26.0166V23.6954C31.1273 23.0678 31.3471 22.4949 31.7026 22.0791L31.7049 22.0765C32.0602 21.661 32.5512 21.4038 33.0867 21.4038H35.9121C36.4487 21.4038 36.9386 21.661 37.294 22.0767L37.2963 22.0793C37.6518 22.495 37.8717 23.068 37.8717 23.6956V26.0155C38.5496 26.2126 39.2093 26.4685 39.8438 26.7763V26.7776C40.4885 27.0908 41.1083 27.4572 41.6973 27.8728L43.1021 26.2313L43.1033 26.2326C43.486 25.785 43.9885 25.5624 44.4875 25.5624C44.9899 25.5624 45.4923 25.785 45.874 26.2313L47.8712 28.567C48.2516 29.0134 48.4431 29.601 48.4431 30.1886C48.4431 30.7748 48.2529 31.3638 47.8712 31.8088L46.4665 33.4517C46.8162 34.1313 47.1273 34.8454 47.3916 35.5889L47.4041 35.6209C47.6674 36.3644 47.8861 37.1359 48.0547 37.9273H50.0393C50.5782 37.9273 51.0692 38.1858 51.4235 38.6002L51.4224 38.6016C51.7778 39.0173 52 39.5916 52 40.2192V43.5236C52 44.1538 51.779 44.7281 51.4235 45.1425C51.0692 45.5569 50.577 45.8154 50.0393 45.8154L47.6216 45.8152ZM29.5948 55.7991L29.8682 56.6213C29.981 56.3055 29.8591 55.9417 29.5948 55.7991ZM45.3271 50.023L45.3886 49.9352C45.3659 49.9618 45.3442 49.9911 45.3271 50.023ZM45.907 48.8599L46.1018 48.6267C46.0232 48.6813 45.956 48.76 45.907 48.8599Z" fill="#FF6969"/>
<path d="M34.4994 33.7954C36.4065 33.7954 38.1337 34.7001 39.3811 36.1605C40.6298 37.6208 41.4033 39.6395 41.4033 41.8699C41.4033 44.0991 40.6298 46.1189 39.3811 47.5793C38.1324 49.0397 36.4054 49.9444 34.4994 49.9444C32.5922 49.9444 30.865 49.0397 29.6164 47.5794C28.3689 46.119 27.5954 44.1003 27.5954 41.8699C27.5954 39.6407 28.3689 37.6195 29.6164 36.1591C30.8662 34.7001 32.5934 33.7954 34.4994 33.7954ZM38.6088 37.0651C37.5584 35.8366 36.1046 35.0744 34.5005 35.0744C32.8964 35.0744 31.4427 35.8353 30.3923 37.0638C29.3419 38.2923 28.6913 39.9925 28.6913 41.8699C28.6913 43.7459 29.3419 45.4447 30.3923 46.6746C31.4427 47.9031 32.8964 48.6652 34.5005 48.6652C36.1046 48.6652 37.5584 47.9031 38.6088 46.6746C39.6592 45.4461 40.3109 43.7459 40.3109 41.8699C40.3097 39.9938 39.6592 38.295 38.6088 37.0651Z" fill="#FF6969"/>
<path d="M34.4994 37.1001C35.6261 37.1001 36.6469 37.6344 37.3829 38.4965C38.12 39.3585 38.5779 40.5524 38.5779 41.8702C38.5779 43.1826 38.1211 44.3752 37.3829 45.2399L37.3817 45.2413L37.3805 45.2427L37.3793 45.2441C36.6399 46.1075 35.6215 46.6404 34.4993 46.6404C33.3726 46.6404 32.3529 46.1062 31.6146 45.2428C30.8775 44.3807 30.4207 43.1869 30.4207 41.8705C30.4207 40.5553 30.8776 39.3615 31.6146 38.4994L31.6169 38.4967C32.3552 37.6344 33.3761 37.1001 34.4994 37.1001ZM36.6105 39.4012C36.0716 38.7709 35.3242 38.3792 34.5004 38.3792C33.6767 38.3792 32.9294 38.7683 32.3893 39.3985L32.387 39.4012C31.8493 40.0327 31.5155 40.9068 31.5155 41.8702C31.5155 42.8335 31.8504 43.7076 32.3893 44.3378C32.9293 44.9694 33.6755 45.3612 34.5003 45.3612C35.3263 45.3612 36.0725 44.9708 36.6104 44.342L36.6127 44.3393C37.1515 43.7104 37.4841 42.8362 37.4841 41.8715C37.4841 40.9068 37.1494 40.0328 36.6105 39.4012Z" fill="#FF6969"/>
</g>
<defs>
<clipPath id="clip0_614_61">
<rect width="35" height="40.9337" fill="white" transform="translate(17 21.4028)"/>
</clipPath>
</defs>
</svg>
