<svg width="39" height="39" viewBox="0 0 39 39" fill="none" xmlns="http://www.w3.org/2000/svg">
<path d="M19.5 19.5C24.8848 19.5 29.25 15.1348 29.25 9.75C29.25 4.36522 24.8848 0 19.5 0C14.1152 0 9.75 4.36522 9.75 9.75C9.75 15.1348 14.1152 19.5 19.5 19.5Z" fill="#EAEAEA"/>
<path d="M19.5001 22.75C15.4978 22.723 11.6264 24.1739 8.62779 26.8247C5.62916 29.4755 3.71425 33.1397 3.25007 37.115C3.21774 37.3483 3.23548 37.5857 3.3021 37.8116C3.36873 38.0374 3.48272 38.2465 3.63647 38.4248C3.79022 38.6032 3.98021 38.7467 4.19378 38.8459C4.40736 38.9451 4.63961 38.9976 4.87507 39H33.9301C34.1655 38.9976 34.3978 38.9451 34.6114 38.8459C34.8249 38.7467 35.0149 38.6032 35.1687 38.4248C35.3224 38.2465 35.4364 38.0374 35.503 37.8116C35.5697 37.5857 35.5874 37.3483 35.5551 37.115C35.0947 33.1731 33.2078 29.5359 30.2502 26.8896C27.2925 24.2433 23.4687 22.7708 19.5001 22.75Z" fill="#EAEAEA"/>
</svg>
