<svg width="50" height="40" viewBox="0 0 50 40" fill="none" xmlns="http://www.w3.org/2000/svg">
<g id="Black">
<path id="Vector" d="M28.4545 0.428719C28.0493 0.553703 27.6344 1.00557 27.5283 1.44783C27.4897 1.65934 27.4415 2.41886 27.4415 3.14954C27.4415 4.12058 27.4125 4.48592 27.3257 4.50515C24.5759 5.32236 22.4822 6.37992 20.5718 7.9182C20.157 8.24508 19.7324 8.62965 19.6263 8.76425C19.3658 9.10074 19.3754 9.51416 19.6745 9.80258C20.0701 10.2064 20.3789 10.1295 21.2279 9.4084C23.3988 7.61054 25.8591 6.40876 28.6957 5.79345C29.593 5.60117 29.9693 5.57232 31.9279 5.58194C33.8576 5.58194 34.2725 5.61078 35.1312 5.79345C41.7693 7.23559 46.6899 12.1485 48.0986 18.7438C48.3012 19.6668 48.3301 20.0706 48.3301 21.8684C48.3301 23.6374 48.3012 24.0893 48.1179 25.0027C47.7995 26.5409 47.3943 27.7043 46.6417 29.2233C45.8312 30.8481 45.0015 32.0307 43.6796 33.4151C42.8981 34.2323 42.6859 34.5111 42.6859 34.7226C42.6955 35.0303 42.8402 35.2514 43.149 35.4149C43.5639 35.636 43.8822 35.4533 44.8374 34.4823C47.3171 31.9249 48.8608 29.0022 49.652 25.3295C49.8449 24.445 49.8642 24.0412 49.8739 21.9646C49.8739 19.8783 49.8449 19.4841 49.652 18.5131C48.3108 11.8985 43.5928 6.67796 37.167 4.70704L36.3179 4.44746V2.88996C36.3179 1.52474 36.2986 1.30361 36.125 1.03441C35.7294 0.371033 35.7776 0.380646 32.0727 0.36142C30.2395 0.351803 28.6089 0.380646 28.4545 0.428719ZM34.7742 3.03417C34.7742 4.13019 34.7646 4.18788 34.5909 4.13019C33.9541 3.92829 30.1912 3.92829 29.265 4.13019L28.9852 4.19749V3.03417V1.87085H31.8797H34.7742V3.03417Z" fill="#FF6969"/>
<path id="Vector_2" d="M30.4903 8.40848C24.4408 9.1007 19.6938 13.4752 18.4974 19.436C18.2466 20.7243 18.2755 23.3297 18.5553 24.6565C19.7228 30.127 23.9488 34.2323 29.5159 35.2994C30.7219 35.5302 33.1533 35.5206 34.3883 35.2898C37.0512 34.7803 39.3572 33.5977 41.3061 31.7422C44.0463 29.1271 45.5128 25.7237 45.5128 21.9645C45.5128 18.3496 44.2585 15.1865 41.7886 12.5811C40.2545 10.9659 38.3344 9.74486 36.2118 9.04302C34.4751 8.46616 32.2174 8.21619 30.4903 8.40848ZM31.1078 11.0139C31.1078 12.0619 31.1078 12.0811 31.3876 12.3599C31.7253 12.6868 32.0437 12.7156 32.4007 12.4368C32.6419 12.2446 32.6516 12.2157 32.6516 11.0908V9.94675H32.9989C33.5971 9.94675 35.2566 10.3313 36.1636 10.6774C37.2152 11.0812 38.1897 11.61 39.0098 12.2253C39.3475 12.4753 39.6852 12.7253 39.7528 12.7829C39.8589 12.8599 39.7142 13.0521 39.1063 13.6578C38.4116 14.3501 38.3248 14.4847 38.3248 14.7923C38.3248 15.2826 38.566 15.523 39.0581 15.523C39.4247 15.523 39.5115 15.4653 40.2159 14.7635L40.9684 14.004L41.2386 14.3116C42.0684 15.2634 42.956 16.8786 43.4095 18.2631C43.6603 19.0514 43.9401 20.4263 43.9401 20.9166V21.1954H42.792C41.6631 21.1954 41.6342 21.205 41.4412 21.4454C41.1711 21.7819 41.1904 22.0895 41.4702 22.4164C41.7017 22.676 41.7307 22.6856 42.8306 22.7144L43.9594 22.7529L43.8919 23.3874C43.6893 25.3103 42.8209 27.435 41.557 29.1175L41.0167 29.8482L40.2255 29.0791C39.5308 28.4157 39.3861 28.3099 39.087 28.3099C38.6142 28.3099 38.3248 28.5695 38.3151 29.0118C38.3055 29.3386 38.373 29.4444 39.0967 30.1655L39.8975 30.9634L39.1063 31.5499C38.1125 32.2902 36.8968 32.9247 35.7873 33.2997C34.7742 33.6362 33.5971 33.8862 33.0375 33.8862H32.6516V32.7517C32.6516 31.723 32.6323 31.5884 32.4586 31.4345C32.1498 31.1557 31.6095 31.1942 31.3394 31.5211C31.1271 31.7614 31.1078 31.8672 31.1078 32.8382V33.8862H30.7798C30.2491 33.8862 28.9852 33.617 28.0975 33.3189C26.988 32.944 25.6565 32.2517 24.711 31.5499L23.9488 30.9923L24.7303 30.1847C25.4153 29.4925 25.5118 29.3482 25.5118 29.0406C25.5118 28.5791 25.2416 28.3099 24.7689 28.3099C24.4408 28.3099 24.325 28.3964 23.6207 29.0887L22.8295 29.877L22.2603 29.1079C21.5753 28.1945 20.8034 26.7236 20.4657 25.6948C20.1859 24.868 19.9157 23.5605 19.9157 23.0702V22.7529L21.0253 22.7144C22.0191 22.6856 22.1542 22.6664 22.3471 22.4741C22.6173 22.2049 22.6269 21.6665 22.3761 21.3877C22.2217 21.2146 22.0866 21.1954 21.0253 21.1954H19.8578L19.935 20.5416C20.2052 18.2919 21.1025 16.1575 22.5594 14.3405L22.8488 13.9751L23.6304 14.7539C24.325 15.4365 24.4408 15.523 24.7689 15.523C25.2416 15.523 25.5118 15.2538 25.5118 14.7923C25.5118 14.4847 25.4153 14.3405 24.7399 13.6482L23.9584 12.8599L24.4698 12.4753C25.5793 11.6292 26.7178 11.0043 27.9239 10.5813C28.7536 10.2833 30.2105 9.96598 30.7508 9.95637L31.1078 9.94675V11.0139Z" fill="#FF6969"/>
<path id="Vector_3" d="M31.3972 15.8116C31.2911 15.9174 31.185 16.1001 31.156 16.2154C31.1271 16.3404 31.1078 17.7056 31.1271 19.2535L31.156 22.0801L31.3876 22.2628C31.6095 22.4454 32.1305 22.5031 32.3138 22.3685C32.3717 22.3301 33.0761 21.6186 33.8962 20.7918C35.3145 19.3401 35.3724 19.2631 35.3145 18.9651C35.2276 18.5036 34.9961 18.3113 34.5523 18.3113C34.2049 18.3113 34.0988 18.3786 33.4138 19.0516L32.6515 19.7823V17.9075C32.6515 16.0808 32.6515 16.0328 32.4296 15.8309C32.1498 15.5617 31.6578 15.552 31.3972 15.8116Z" fill="#FF6969"/>
<path id="Vector_4" d="M17.7545 10.8217C17.6194 10.9274 17.2238 11.437 16.8861 11.9465C13.8179 16.5517 13.0461 22.1857 14.7731 27.5312C15.217 28.9252 16.3458 31.1653 17.1852 32.3383C17.9764 33.4343 19.5684 35.1168 20.6297 35.9628C24.5276 39.0875 29.6702 40.4527 34.6777 39.6932C35.8258 39.5201 37.5432 39.0682 38.5177 38.6837C39.5501 38.2703 41.3061 37.3569 41.6341 37.0493C41.9911 36.7128 42.0104 36.2801 41.6727 35.9532C41.335 35.6071 41.0263 35.6552 40.0904 36.184C32.3814 40.5873 22.5979 38.078 17.8702 30.502C16.0757 27.6177 15.1784 23.9355 15.4775 20.6378C15.7476 17.667 16.6256 15.1673 18.2851 12.6964C19.0763 11.5139 19.1535 11.2158 18.7193 10.8409C18.4009 10.5717 18.0922 10.5621 17.7545 10.8217Z" fill="#FF6969"/>
<path id="Vector_5" d="M6.14756 12.9275C5.64585 13.1294 5.52042 13.7832 5.89671 14.1966C6.04143 14.36 6.34053 14.3696 9.45695 14.3696H12.8628L13.0558 14.1197C13.4031 13.687 13.2488 13.1102 12.747 12.9275C12.39 12.8121 6.45631 12.8025 6.14756 12.9275Z" fill="#FF6969"/>
<path id="Vector_6" d="M3.89945 17.1286C3.39773 17.3113 3.23371 18.0324 3.60999 18.4073C3.79331 18.59 3.92839 18.5996 7.84562 18.5996H11.8979L12.0909 18.3496C12.4189 17.9362 12.2935 17.369 11.84 17.1671C11.5988 17.0613 4.1889 17.0229 3.89945 17.1286Z" fill="#FF6969"/>
<path id="Vector_7" d="M0.77339 21.4937C0.454994 21.7437 0.416401 22.3398 0.7155 22.6378C0.898819 22.8205 1.0339 22.8301 5.87737 22.8301H10.8559L11.0875 22.5897C11.4638 22.2244 11.348 21.6091 10.8752 21.3976C10.7208 21.3206 9.15781 21.2918 5.83878 21.2918C1.12073 21.2918 1.02425 21.2918 0.77339 21.4937Z" fill="#FF6969"/>
<path id="Vector_8" d="M3.60997 25.426C3.31087 25.724 3.34946 26.3201 3.66786 26.5701C3.91872 26.7624 4.02485 26.772 7.76841 26.772C10.3735 26.772 11.6856 26.7335 11.84 26.6662C12.3128 26.4547 12.4286 25.8394 12.0523 25.4741L11.8207 25.2337H7.807C3.92837 25.2337 3.79329 25.2433 3.60997 25.426Z" fill="#FF6969"/>
<path id="Vector_9" d="M5.93525 29.6271C5.82912 29.7233 5.70369 29.9348 5.67474 30.1078C5.6265 30.3674 5.6651 30.4636 5.90631 30.7135L6.19576 31.002H9.38936C12.7566 31.002 12.9593 30.9827 13.1522 30.5501C13.3066 30.2136 13.2873 30.0021 13.0557 29.7136L12.8628 29.4637H9.49549C6.43696 29.4637 6.11857 29.4829 5.93525 29.6271Z" fill="#FF6969"/>
</g>
</svg>
