<svg width="53" height="53" viewBox="0 0 53 53" fill="none" xmlns="http://www.w3.org/2000/svg">
<g clip-path="url(#clip0_213_457)">
<path d="M26.5003 52.9995C41.1357 52.9995 53 41.1352 53 26.4998C53 11.8643 41.1357 0 26.5003 0C11.8648 0 0.000488281 11.8643 0.000488281 26.4998C0.000488281 41.1352 11.8648 52.9995 26.5003 52.9995Z" fill="#55ACEE"/>
<path d="M42.7324 19.0446C41.5968 19.5482 40.3752 19.8888 39.0941 20.0409C40.4022 19.2572 41.406 18.0172 41.8798 16.5372C40.6558 17.2633 39.2996 17.79 37.8574 18.0739C36.702 16.8433 35.0557 16.0743 33.2328 16.0743C29.7353 16.0743 26.8986 18.9109 26.8986 22.4085C26.8986 22.9049 26.9548 23.3882 27.0635 23.8521C21.7992 23.588 17.1316 21.0664 14.0073 17.233C13.4621 18.1683 13.1494 19.2572 13.1494 20.4178C13.1494 22.6149 14.2685 24.5545 15.9672 25.6901C14.9294 25.6575 13.952 25.3727 13.0984 24.897C13.0979 24.9239 13.0979 24.9508 13.0979 24.9773C13.0979 28.0463 15.2822 30.6062 18.1794 31.1877C17.6484 31.3332 17.0877 31.4102 16.5109 31.4102C16.1018 31.4102 15.7055 31.371 15.3191 31.2973C16.125 33.8132 18.4637 35.6446 21.2362 35.6961C19.0679 37.3953 16.3371 38.4076 13.3686 38.4076C12.8584 38.4076 12.353 38.3778 11.8584 38.3188C14.6601 40.1167 17.9904 41.1649 21.5673 41.1649C33.2182 41.1649 39.5897 31.5132 39.5897 23.1421C39.5897 22.8676 39.5835 22.5941 39.5712 22.323C40.8098 21.4301 41.8836 20.3149 42.7324 19.0446Z" fill="#F1F2F2"/>
</g>
<defs>
<clipPath id="clip0_213_457">
<rect width="53" height="53" fill="white"/>
</clipPath>
</defs>
</svg>
