<svg width="26" height="26" viewBox="0 0 26 26" fill="none" xmlns="http://www.w3.org/2000/svg">
<g id="viber_logo_icon_147211 1" clip-path="url(#clip0_213_97)">
<path id="Vector" d="M13.2093 0C20.2734 0 26 5.72661 26 12.7907C26 19.8548 20.2734 25.5814 13.2093 25.5814C6.14521 25.5814 0.418602 19.8548 0.418602 12.7907C0.418602 5.72661 6.14521 0 13.2093 0Z" fill="#7F4DA0"/>
<path id="Vector_2" d="M16.617 11.1697C16.5548 10.6644 16.3995 10.2675 16.1236 9.91599C15.7654 9.46336 15.3076 9.19236 14.6299 9.03157C14.1882 8.92439 14.0097 8.9367 13.85 9.08262C13.7012 9.21932 13.6722 9.49336 13.7858 9.67089C13.8658 9.7997 13.9581 9.8458 14.2146 9.89617C14.5563 9.95905 14.7925 10.0406 15.0072 10.1634C15.4631 10.4267 15.6755 10.8386 15.6982 11.5056C15.7088 11.8187 15.7359 11.9149 15.8452 12.026C16.0479 12.229 16.4087 12.1895 16.5617 11.9466C16.6179 11.855 16.6264 11.8151 16.6324 11.6026C16.6363 11.4709 16.6306 11.2749 16.617 11.1697Z" fill="white"/>
<path id="Vector_3" d="M18.4026 11.7396C18.3126 10.1912 17.707 8.94542 16.6231 8.06894C16.0124 7.57639 15.2742 7.23776 14.4651 7.07308C14.1687 7.01414 13.623 6.96644 13.5293 6.99372C13.441 7.01904 13.316 7.11465 13.2604 7.2012C13.2014 7.295 13.1881 7.50445 13.2384 7.62558C13.3195 7.8281 13.4703 7.89968 13.8929 7.93667C14.5442 7.99364 15.2159 8.22243 15.7235 8.56122C16.303 8.94692 16.7637 9.47448 17.0616 10.0944C17.3192 10.6271 17.4775 11.3947 17.4731 12.0821C17.4716 12.3306 17.5101 12.4711 17.61 12.5737C17.7609 12.7315 17.9809 12.7661 18.1751 12.6612C18.3902 12.5481 18.4405 12.3495 18.4026 11.7396Z" fill="white"/>
<path id="Vector_4" d="M20.3786 17.7026C20.3483 17.614 20.2777 17.4775 20.2272 17.3991C19.9091 16.9188 18.2001 15.5814 17.3468 15.144C16.8596 14.8937 16.4986 14.8103 16.2311 14.8886C15.9433 14.9696 15.7918 15.1035 15.3096 15.7027C15.1153 15.9429 14.9158 16.1679 14.8628 16.2033C14.7316 16.2943 14.474 16.3677 14.2923 16.3677C13.8707 16.3651 13.1059 16.0921 12.5176 15.733C12.0608 15.455 11.4751 14.9569 11.0257 14.4639C10.4956 13.885 10.1346 13.3742 9.84934 12.7978C9.48081 12.0571 9.38739 11.6045 9.54136 11.2733C9.57925 11.1898 9.62977 11.1014 9.65242 11.0736C9.67518 11.0483 9.9125 10.8536 10.175 10.6412C10.69 10.2317 10.7733 10.1381 10.8692 9.85748C10.9904 9.50099 10.9576 9.13694 10.7708 8.77038C10.6269 8.49224 10.2508 7.88548 9.9781 7.4936C9.61714 6.97787 8.71843 5.87558 8.53915 5.72635C8.21608 5.46345 7.80209 5.41794 7.34514 5.59493C6.86304 5.78199 5.95927 6.51016 5.57301 7.01832C5.22465 7.47847 5.0909 7.80457 5.07068 8.23434C5.05302 8.58832 5.08331 8.73494 5.27011 9.18752C6.73172 12.7371 8.9128 15.5712 11.9093 17.8214C13.4744 18.997 15.0976 19.892 16.7814 20.5039C17.7633 20.8603 18.1899 20.878 18.6923 20.5848C18.9044 20.4583 19.4294 19.9198 19.7223 19.5279C20.2069 18.8756 20.3862 18.5748 20.4367 18.3346C20.472 18.1703 20.4443 17.8846 20.3786 17.7026Z" fill="white"/>
<path id="Vector_5" d="M20.2205 12.0951C20.1881 11.2192 20.0406 10.5008 19.7331 9.6998C19.4296 8.91194 19.1223 8.39776 18.5421 7.70237C17.9935 7.05036 17.5674 6.67805 16.8916 6.26368C15.9487 5.68629 14.8013 5.30418 13.5154 5.14348C13.0769 5.08732 12.9777 5.09133 12.8432 5.1811C12.5824 5.35117 12.5859 5.77529 12.8474 5.94279C12.934 5.99609 13.0108 6.01554 13.3616 6.06143C13.9001 6.13391 14.2464 6.20223 14.6572 6.31436C16.2683 6.75474 17.5072 7.65499 18.3355 8.99135C19.0287 10.1052 19.3164 11.2191 19.2756 12.6418C19.2614 13.1227 19.2717 13.2074 19.3452 13.323C19.486 13.5383 19.8573 13.581 20.0478 13.4022C20.1663 13.2933 20.1886 13.2115 20.212 12.7999C20.2232 12.5851 20.2256 12.2681 20.2205 12.0951Z" fill="white"/>
</g>
<defs>
<clipPath id="clip0_213_97">
<rect width="25.5814" height="25.5814" fill="white" transform="translate(0.418602)"/>
</clipPath>
</defs>
</svg>
