<svg width="197" height="95" viewBox="0 0 197 95" fill="none" xmlns="http://www.w3.org/2000/svg">
<path fill-rule="evenodd" clip-rule="evenodd" d="M130.552 45.1843C131.291 45.4307 132.079 45.7263 132.917 46.1205L133.656 44.1496C132.178 43.4105 130.897 42.9177 129.665 42.5728C127.842 38.9265 124.097 36.4136 119.711 36.4136C114.291 36.4136 109.807 40.3062 108.822 45.4307C108.083 45.1843 107.344 44.8887 106.506 44.4945L105.767 46.4654C106.802 46.9582 107.738 47.3524 108.625 47.648C108.625 48.3871 108.723 49.077 108.871 49.8161C108.132 49.5697 107.344 49.274 106.506 48.8799L105.767 50.8508C107.245 51.5899 108.576 52.0827 109.758 52.4276C111.581 56.0738 115.326 58.5868 119.662 58.5868C125.033 58.5868 129.566 54.7434 130.552 49.619C131.291 49.8653 132.03 50.161 132.868 50.5552L133.607 48.5842C132.572 48.0915 131.636 47.6973 130.749 47.4016C130.798 46.6133 130.7 45.8742 130.552 45.1843ZM119.711 38.7787C122.471 38.7787 124.984 40.1091 126.561 42.1293C120.5 42.0308 117.888 47.0567 111.187 45.9727C111.877 41.9322 115.425 38.7787 119.711 38.7787ZM111.089 48.2886C118.332 49.5204 120.845 43.6076 127.94 44.5438C128.187 45.2336 128.334 45.9234 128.384 46.6625C121.14 45.4307 118.627 51.2943 111.581 50.4074C111.335 49.7668 111.138 49.0277 111.089 48.2886ZM119.711 56.1724C116.952 56.1724 114.488 54.8913 112.912 52.871C118.923 52.9203 121.584 47.9437 128.285 49.0277C127.546 53.0681 123.998 56.1724 119.711 56.1724Z" fill="#27733D"/>
<path fill-rule="evenodd" clip-rule="evenodd" d="M141.737 43.0161L138.879 51.1956H141.983L142.525 49.4217H144.989L145.531 51.1956H148.832L145.925 43.0161H141.737ZM143.806 44.9378L144.644 47.5H142.919L143.806 44.9378Z" fill="white"/>
<path fill-rule="evenodd" clip-rule="evenodd" d="M155.878 43.1643C154.893 42.9672 154.006 42.8687 153.168 42.8687C149.719 42.8687 148.98 44.3961 148.98 45.5294C148.98 47.5497 150.754 47.8946 151.937 48.141C152.528 48.2888 153.267 48.338 153.267 48.8308C153.267 49.3235 152.429 49.4221 151.887 49.4221C151.247 49.4221 150.261 49.3235 149.079 48.8801V50.9988C150.36 51.3438 151.641 51.393 152.429 51.393C155.977 51.393 156.42 49.5699 156.42 48.6337C156.42 46.5642 154.597 46.2685 153.119 46.0222C152.577 45.9236 152.084 45.8251 152.084 45.4309C152.084 44.8889 152.823 44.8889 153.415 44.8889C154.548 44.8889 155.336 45.086 155.829 45.3323V43.1643H155.878Z" fill="white"/>
<path fill-rule="evenodd" clip-rule="evenodd" d="M163.91 43.1643C162.925 42.9672 162.038 42.8687 161.2 42.8687C157.751 42.8687 157.012 44.3961 157.012 45.5294C157.012 47.5497 158.786 47.8946 159.968 48.141C160.559 48.2888 161.299 48.338 161.299 48.8308C161.299 49.3235 160.461 49.4221 159.919 49.4221C159.278 49.4221 158.293 49.3235 157.11 48.8801V50.9988C158.391 51.3438 159.673 51.393 160.461 51.393C164.009 51.393 164.452 49.5699 164.452 48.6337C164.452 46.5642 162.629 46.2685 161.151 46.0222C160.609 45.9236 160.116 45.8251 160.116 45.4309C160.116 44.8889 160.855 44.8889 161.446 44.8889C162.58 44.8889 163.368 45.086 163.861 45.3323V43.1643H163.91Z" fill="white"/>
<path fill-rule="evenodd" clip-rule="evenodd" d="M165.388 43.0161V51.1956H168.493V43.0161H165.388Z" fill="white"/>
<path fill-rule="evenodd" clip-rule="evenodd" d="M176.327 43.1643C175.342 42.9672 174.455 42.8687 173.617 42.8687C170.168 42.8687 169.429 44.3961 169.429 45.5294C169.429 47.5497 171.203 47.8946 172.385 48.141C172.976 48.2888 173.716 48.338 173.716 48.8308C173.716 49.3235 172.878 49.4221 172.336 49.4221C171.695 49.4221 170.71 49.3235 169.527 48.8801V50.9988C170.808 51.3438 172.09 51.393 172.878 51.393C176.426 51.393 176.869 49.5699 176.869 48.6337C176.869 46.5642 175.046 46.2685 173.568 46.0222C173.026 45.9236 172.533 45.8251 172.533 45.4309C172.533 44.8889 173.272 44.8889 173.863 44.8889C174.997 44.8889 175.785 45.086 176.278 45.3323V43.1643H176.327Z" fill="white"/>
<path fill-rule="evenodd" clip-rule="evenodd" d="M177.313 43.0161V45.4305H180.023V51.1956H183.176V45.4305H185.936V43.0161H177.313Z" fill="white"/>
<path fill-rule="evenodd" clip-rule="evenodd" d="M188.695 43.0654V43.2132H189.286V44.9871H189.483V43.2132H190.025V43.0654H188.695Z" fill="white"/>
<path fill-rule="evenodd" clip-rule="evenodd" d="M191.405 44.8393L191.306 44.5929L190.666 43.0654H190.37V44.9871H190.567V43.5089V43.2132L190.666 43.5089L191.306 44.9871H191.503L192.144 43.5089L192.243 43.2132V43.5089V44.9871H192.44V43.0654H192.144L191.454 44.5929L191.405 44.8393Z" fill="white"/>
<g clip-path="url(#clip0_200_4)">
<path d="M72.6357 55.7224H68.2651L71.0136 38.6177H75.3842L72.6357 55.7224Z" fill="#005CA9"/>
<path d="M64.5704 38.6175L60.3801 50.3713L59.8844 47.8559L58.3976 40.1267C58.3976 40.1267 58.2173 38.5718 56.3249 38.5718H49.4312L49.3411 38.8919C49.3411 38.8919 51.4588 39.3493 53.9369 40.8585L57.7668 55.7222H62.3175L69.3014 38.6175H64.5704Z" fill="#005CA9"/>
<path d="M99.0392 55.7224H103.049L99.5348 38.6177H96.0203C94.3983 38.6177 93.9927 39.8982 93.9927 39.8982L87.5045 55.7224H92.0553L92.9564 53.1612H98.5435L99.0392 55.7224ZM94.218 49.6397L96.516 43.2369L97.8226 49.6397H94.218Z" fill="#005CA9"/>
<path d="M87.8199 42.7338L88.4507 39.075C88.4507 39.075 86.5133 38.3433 84.4857 38.3433C82.323 38.3433 77.1414 39.3037 77.1414 44.0143C77.1414 48.4506 83.2241 48.4963 83.2241 50.8288C83.2241 53.1612 77.7722 52.7496 75.9699 51.2861L75.3391 55.1278C75.3391 55.1278 77.2766 56.0882 80.2954 56.0882C83.2692 56.0882 87.8199 54.5333 87.8199 50.2342C87.8199 45.798 81.6922 45.3864 81.6922 43.4198C81.6922 41.4075 85.9275 41.6819 87.8199 42.7338Z" fill="#005CA9"/>
<path d="M59.8844 47.8101L58.3976 40.1267C58.3976 40.1267 58.2173 38.5718 56.3249 38.5718H49.4312L49.3411 38.8919C49.3411 38.8919 52.6753 39.5779 55.8293 42.2305C58.8932 44.7002 59.8844 47.8101 59.8844 47.8101Z" fill="#F7A823"/>
</g>
<g clip-path="url(#clip1_200_4)">
<path d="M33.0659 46.4079C33.0659 52.5114 28.1265 57.4608 22.0354 57.4608C15.9443 57.4608 11.0049 52.5114 11.0049 46.4079C11.0049 40.3044 15.9443 35.355 22.0354 35.355C28.1521 35.355 33.0659 40.3044 33.0659 46.4079Z" fill="#E40520"/>
<path d="M36.8536 35.355C34.0128 35.355 31.4024 36.4321 29.4573 38.2272C29.0478 38.5862 28.6895 38.9709 28.3568 39.4069H30.5834C30.8905 39.7659 31.172 40.1762 31.428 40.5865H27.5123C27.2819 40.9712 27.0772 41.3559 26.8724 41.7662H32.0422C32.2213 42.1509 32.3749 42.5355 32.5029 42.9459H26.3862C26.2582 43.3305 26.1558 43.7152 26.0535 44.1255H32.81C32.9635 44.8692 33.0659 45.6642 33.0659 46.4592C33.0659 47.6901 32.8612 48.8698 32.5029 49.9725H26.3862C26.5141 50.3829 26.6677 50.7675 26.8468 51.1522H32.0166C31.8374 51.5625 31.6071 51.9472 31.3768 52.3319H27.4611C27.717 52.7422 27.9985 53.1269 28.3056 53.5115H30.5322C30.1995 53.9218 29.8156 54.3322 29.4061 54.6912C31.3512 56.4607 33.9617 57.5378 36.8025 57.5378C42.8936 57.5378 47.833 52.5883 47.833 46.4848C47.8842 40.3044 42.9447 35.355 36.8536 35.355Z" fill="#FAB31E"/>
<path d="M46.3998 52.5626C46.3998 52.3575 46.5533 52.2036 46.7581 52.2036C46.9628 52.2036 47.1164 52.3575 47.1164 52.5626C47.1164 52.7678 46.9628 52.9217 46.7581 52.9217C46.5789 52.9217 46.3998 52.7422 46.3998 52.5626ZM46.7581 52.8191C46.9116 52.8191 47.0396 52.6909 47.0396 52.537C47.0396 52.3831 46.9116 52.2549 46.7581 52.2549C46.6045 52.2549 46.4766 52.3831 46.4766 52.537C46.5022 52.7165 46.6045 52.8191 46.7581 52.8191ZM46.7069 52.7165H46.6301V52.4088H46.7581C46.7837 52.4088 46.8093 52.4088 46.8349 52.4344C46.8605 52.4601 46.886 52.4857 46.886 52.5114C46.886 52.537 46.8605 52.5883 46.8349 52.5883L46.886 52.7165H46.8093L46.7581 52.5883H46.7069V52.7165ZM46.7069 52.537H46.7581C46.7837 52.537 46.7837 52.537 46.8093 52.537L46.8349 52.5114C46.8349 52.5114 46.8349 52.4857 46.8093 52.4857C46.7837 52.4857 46.7837 52.4857 46.7581 52.4857H46.7069V52.537Z" fill="#FAB31E"/>
<path d="M19.4761 47.6129C19.3481 47.5872 19.2969 47.5872 19.2201 47.5872C18.5291 47.5872 18.1964 47.818 18.1964 48.2796C18.1964 48.5617 18.3756 48.7412 18.6315 48.7412C19.0922 48.7412 19.4505 48.2796 19.4761 47.6129ZM20.3462 49.6388C20.1927 49.6388 19.3481 49.6388 19.3481 49.6388L19.3737 49.1772C19.0666 49.5619 18.6571 49.7157 18.1197 49.7157C17.4798 49.7157 17.0192 49.2028 17.0192 48.4591C17.0192 47.3564 17.7869 46.6897 19.1178 46.6897C19.2457 46.6897 19.4249 46.6896 19.604 46.7153C19.6296 46.5614 19.6552 46.5101 19.6552 46.4076C19.6552 46.0998 19.4505 45.9972 18.8874 45.9972C18.2988 45.9972 17.8125 46.1255 17.6078 46.2024C17.6078 46.1255 17.7614 45.1766 17.7614 45.1766C18.35 44.9971 18.7595 44.9458 19.1946 44.9458C20.2183 44.9458 20.7557 45.4074 20.7557 46.2793C20.7557 46.5101 20.7301 46.7922 20.6533 47.1769C20.6022 47.8693 20.3718 49.3054 20.3462 49.6388Z" fill="#06326E"/>
<path d="M16.5329 49.6392H15.33L16.021 45.3308L14.4855 49.6392H13.6665L13.5641 45.3565L12.8475 49.6392H11.7214L12.6684 44.0229H14.3831L14.4855 47.1773L15.5348 44.0229H17.4542L16.5329 49.6392Z" fill="#06326E"/>
<path d="M38.338 47.6129C38.2101 47.5872 38.1589 47.5872 38.0821 47.5872C37.3911 47.5872 37.0584 47.818 37.0584 48.2796C37.0584 48.5617 37.2375 48.7412 37.4935 48.7412C37.9541 48.7412 38.3124 48.2796 38.338 47.6129ZM39.2082 49.6388C39.0546 49.6388 38.2101 49.6388 38.2101 49.6388L38.2356 49.1772C37.9285 49.5619 37.519 49.7157 36.9816 49.7157C36.3418 49.7157 35.8811 49.2028 35.8811 48.4591C35.8811 47.3564 36.6489 46.6897 37.9797 46.6897C38.1077 46.6897 38.2868 46.6896 38.466 46.7153C38.4916 46.5614 38.5172 46.5101 38.5172 46.4076C38.5172 46.0998 38.3124 45.9972 37.7494 45.9972C37.1607 45.9972 36.6745 46.1255 36.4697 46.2024C36.4953 46.1255 36.6489 45.1766 36.6489 45.1766C37.2375 44.9971 37.647 44.9458 38.0821 44.9458C39.1058 44.9458 39.6433 45.4074 39.6433 46.2793C39.6433 46.5101 39.6177 46.7922 39.5409 47.1769C39.4641 47.8693 39.2338 49.3054 39.2082 49.6388Z" fill="#06326E"/>
<path d="M25.6695 49.5623C25.3368 49.6649 25.0809 49.7162 24.7994 49.7162C24.1851 49.7162 23.8524 49.3572 23.8524 48.716C23.8524 48.5109 23.9292 47.9723 24.006 47.5107C24.0828 47.0748 24.5178 44.4077 24.5178 44.4077H25.6951L25.5927 45.0745H26.3093L26.1558 46.1772H25.4392C25.3112 47.0491 25.1065 48.1262 25.1065 48.2544C25.1065 48.4852 25.2344 48.5878 25.516 48.5878C25.6439 48.5878 25.7463 48.5622 25.8487 48.5365L25.6695 49.5623Z" fill="#06326E"/>
<path d="M29.3038 49.5367C28.8943 49.6649 28.5104 49.7162 28.0753 49.7162C26.7445 49.7162 26.0535 49.0238 26.0535 47.6903C26.0535 46.1259 26.9492 44.9976 28.1265 44.9976C29.099 44.9976 29.7388 45.6387 29.7388 46.6388C29.7388 46.9722 29.6876 47.3056 29.5853 47.7672H27.2051C27.1284 48.434 27.5379 48.7161 28.2289 48.7161C28.6639 48.7161 29.0478 48.6391 29.4573 48.434L29.3038 49.5367ZM28.6383 46.8183C28.6383 46.7158 28.7663 45.9977 28.0753 45.9977C27.6914 45.9977 27.4355 46.2798 27.3075 46.8183H28.6383Z" fill="#06326E"/>
<path d="M21.0628 46.5103C21.0628 47.0745 21.3443 47.4848 21.9841 47.7925C22.4704 48.0233 22.5471 48.1003 22.5471 48.3054C22.5471 48.5875 22.3424 48.7157 21.8561 48.7157C21.4978 48.7157 21.1651 48.6645 20.7812 48.5362C20.7812 48.5362 20.6277 49.5364 20.6277 49.5877C20.9092 49.639 21.1395 49.6903 21.8817 49.7159C23.1358 49.7159 23.7244 49.2286 23.7244 48.2029C23.7244 47.5874 23.4685 47.2027 22.8799 46.9206C22.368 46.6898 22.3168 46.6385 22.3168 46.4334C22.3168 46.1769 22.5216 46.0487 22.9054 46.0487C23.1358 46.0487 23.4685 46.0743 23.7756 46.1256L23.9548 45.0742C23.6476 45.0229 23.187 44.9972 22.9054 44.9972C21.5234 44.9716 21.0628 45.6897 21.0628 46.5103Z" fill="#06326E"/>
<path d="M35.1389 45.0999C35.4717 45.0999 35.7788 45.1768 36.2138 45.4076L36.4186 44.2023C36.2394 44.1254 35.6252 43.7407 35.1133 43.7407C34.32 43.7407 33.629 44.151 33.1683 44.7922C32.4773 44.5614 32.1958 45.023 31.8375 45.4846L31.5304 45.5615C31.5559 45.4076 31.5815 45.2538 31.5559 45.0999H30.4555C30.3019 46.5104 30.046 47.9465 29.8412 49.3569L29.79 49.6647H30.9929C31.1976 48.3568 31.3 47.5362 31.3768 46.972L31.8375 46.7155C31.9142 46.4591 32.119 46.3821 32.5285 46.3821C32.4773 46.6899 32.4517 46.9976 32.4517 47.3054C32.4517 48.7928 33.2451 49.716 34.5503 49.716C34.883 49.716 35.1645 49.6647 35.5996 49.5621L35.8044 48.2799C35.3949 48.485 35.0878 48.5619 34.7806 48.5619C34.0896 48.5619 33.6546 48.0491 33.6546 47.2028C33.629 45.9718 34.2432 45.0999 35.1389 45.0999Z" fill="#06326E"/>
<path d="M45.2737 44.0229L45.0178 45.6386C44.6851 45.2026 44.3268 44.8949 43.8661 44.8949C43.2519 44.8949 42.7144 45.3565 42.3561 46.0232C41.8443 45.9207 41.3324 45.7412 41.3324 45.7412C41.3836 45.3565 41.3836 45.1257 41.3836 45.0487H40.2831C40.1295 46.4592 39.8736 47.8953 39.6689 49.3058L39.6177 49.6135H40.8205C40.9741 48.5621 41.1021 47.6902 41.2044 46.9977C41.6139 46.6387 41.8187 46.3053 42.2281 46.331C42.049 46.7669 41.9466 47.2798 41.9466 47.8184C41.9466 48.9468 42.5097 49.7161 43.3798 49.7161C43.8149 49.7161 44.1476 49.5622 44.4803 49.2032L44.4291 49.6392H45.5552L46.4766 44.0229H45.2737ZM43.7637 48.5877C43.3542 48.5877 43.1495 48.28 43.1495 47.6902C43.1495 46.7926 43.5334 46.1515 44.0708 46.1515C44.4803 46.1515 44.7107 46.4592 44.7107 47.049C44.7107 47.9466 44.3268 48.5877 43.7637 48.5877Z" fill="#06326E"/>
<path d="M16.8656 49.3057H15.6883L16.3537 44.9973L14.8437 49.3057H14.0248L13.9224 45.023L13.2058 49.3057H12.0797L13.0011 43.6895H14.7414L14.767 47.1772L15.9442 43.6895H17.7869L16.8656 49.3057Z" fill="white"/>
<path d="M19.8087 47.2796C19.6808 47.254 19.6296 47.254 19.5528 47.254C18.8618 47.254 18.5291 47.4848 18.5291 47.9464C18.5291 48.2285 18.7082 48.408 18.9642 48.408C19.4504 48.408 19.8087 47.9464 19.8087 47.2796ZM20.6789 49.3055C20.5253 49.3055 19.6808 49.3055 19.6808 49.3055L19.7063 48.8439C19.3992 49.2286 18.9897 49.3825 18.4523 49.3825C17.8125 49.3825 17.3518 48.8696 17.3518 48.1259C17.3518 47.0232 18.1196 46.382 19.4504 46.382C19.5784 46.382 19.7575 46.382 19.9367 46.4077C19.9623 46.2538 19.9879 46.2025 19.9879 46.0999C19.9879 45.7922 19.7831 45.6896 19.2201 45.6896C18.6314 45.6896 18.1452 45.8178 17.9404 45.8948C17.9404 45.8178 18.094 44.869 18.094 44.869C18.6826 44.6895 19.0921 44.6382 19.5272 44.6382C20.5509 44.6382 21.0884 45.0998 21.0884 45.9717C21.0884 46.2025 21.0628 46.4846 20.986 46.8693C20.9348 47.536 20.7301 48.9722 20.6789 49.3055Z" fill="white"/>
<path d="M36.7513 43.8434L36.5465 45.0487C36.1115 44.8435 35.8043 44.741 35.4716 44.741C34.5759 44.741 33.9617 45.6129 33.9617 46.8438C33.9617 47.6901 34.3711 48.203 35.0877 48.203C35.3949 48.203 35.702 48.1004 36.1115 47.9209L35.9067 49.2032C35.4716 49.3314 35.1901 49.357 34.8574 49.357C33.5778 49.357 32.7588 48.4338 32.7588 46.9464C32.7588 44.9461 33.8593 43.5356 35.446 43.5356C35.9579 43.5613 36.5721 43.7921 36.7513 43.8434Z" fill="white"/>
<path d="M38.6707 47.2796C38.5427 47.254 38.4915 47.254 38.4147 47.254C37.7237 47.254 37.391 47.4848 37.391 47.9464C37.391 48.2285 37.5702 48.408 37.8261 48.408C38.3124 48.408 38.6451 47.9464 38.6707 47.2796ZM39.5408 49.3055C39.3873 49.3055 38.5427 49.3055 38.5427 49.3055L38.5683 48.8439C38.2612 49.2286 37.8517 49.3825 37.3142 49.3825C36.6744 49.3825 36.2137 48.8696 36.2137 48.1259C36.2137 47.0232 36.9815 46.382 38.3124 46.382C38.4403 46.382 38.6195 46.382 38.7986 46.4077C38.8242 46.2538 38.8498 46.2025 38.8498 46.0999C38.8498 45.7922 38.6451 45.6896 38.082 45.6896C37.4934 45.6896 37.0071 45.8178 36.8024 45.8948C36.8024 45.8178 36.9559 44.869 36.9559 44.869C37.5446 44.6895 37.9541 44.6382 38.3891 44.6382C39.4129 44.6382 39.9503 45.0998 39.9503 45.9717C39.9503 46.2025 39.9247 46.4846 39.8479 46.8693C39.7967 47.536 39.5664 48.9722 39.5408 49.3055Z" fill="white"/>
<path d="M26.0023 49.2288C25.6696 49.3314 25.4136 49.3827 25.1321 49.3827C24.5179 49.3827 24.1852 49.0237 24.1852 48.3826C24.1852 48.1774 24.262 47.6388 24.3387 47.1772C24.4155 46.7413 24.8506 44.0742 24.8506 44.0742H26.0279L25.8999 44.7666H26.5141L26.3606 45.8694H25.7463C25.6184 46.7413 25.4136 47.8184 25.4136 47.9466C25.4136 48.1774 25.5416 48.28 25.8231 48.28C25.9511 48.28 26.0535 48.2543 26.1558 48.2287L26.0023 49.2288Z" fill="white"/>
<path d="M29.662 49.2032C29.2526 49.3314 28.8687 49.3827 28.4336 49.3827C27.1028 49.3827 26.4117 48.6903 26.4117 47.3568C26.4117 45.7924 27.3075 44.6641 28.4848 44.6641C29.4573 44.6641 30.0971 45.3052 30.0971 46.3053C30.0971 46.6387 30.0459 46.9721 29.9436 47.4337H27.5634C27.4866 48.1005 27.8961 48.3826 28.5871 48.3826C29.0222 48.3826 29.4061 48.3056 29.8156 48.1005L29.662 49.2032ZM28.9966 46.5105C28.9966 46.4079 29.1246 45.6899 28.4336 45.6899C28.0497 45.6899 27.7938 45.9719 27.6658 46.5105H28.9966Z" fill="white"/>
<path d="M21.421 46.1773C21.421 46.7415 21.7026 47.1518 22.3424 47.4595C22.8286 47.6903 22.9054 47.7673 22.9054 47.9724C22.9054 48.2545 22.7007 48.3827 22.2144 48.3827C21.8561 48.3827 21.5234 48.3315 21.1395 48.2032C21.1395 48.2032 20.986 49.2034 20.986 49.2547C21.2675 49.306 21.4978 49.3572 22.24 49.3829C23.4941 49.3829 24.0827 48.8956 24.0827 47.8698C24.0827 47.2544 23.8268 46.8697 23.2381 46.5876C22.7263 46.3568 22.6751 46.3055 22.6751 46.1004C22.6751 45.8439 22.8798 45.7157 23.2637 45.7157C23.4941 45.7157 23.8268 45.7413 24.1339 45.7926L24.313 44.7412C24.0059 44.6899 23.5452 44.6642 23.2637 44.6642C21.8561 44.6386 21.3954 45.3567 21.421 46.1773Z" fill="white"/>
<path d="M45.8879 49.3057H44.7618L44.813 48.8697C44.4803 49.2287 44.1476 49.3826 43.7125 49.3826C42.8423 49.3826 42.2793 48.6389 42.2793 47.4849C42.2793 45.9718 43.175 44.6896 44.2244 44.6896C44.685 44.6896 45.0433 44.8691 45.376 45.3051L45.632 43.6895H46.8092L45.8879 49.3057ZM44.122 48.2542C44.685 48.2542 45.0689 47.6131 45.0689 46.7155C45.0689 46.1257 44.8386 45.818 44.4291 45.818C43.8916 45.818 43.5078 46.4591 43.5078 47.3567C43.5078 47.9465 43.7125 48.2542 44.122 48.2542Z" fill="white"/>
<path d="M40.6157 44.7408C40.4622 46.1513 40.2062 47.5874 40.0015 48.9979L39.9503 49.3056H41.1532C41.5883 46.5103 41.6906 45.9718 42.356 46.0487C42.4584 45.4845 42.6632 44.9716 42.8167 44.7152C42.3049 44.6126 42.0233 44.8947 41.665 45.4332C41.6906 45.2024 41.7418 44.9716 41.7418 44.7408H40.6157Z" fill="white"/>
<path d="M30.7625 44.7408C30.6089 46.1513 30.353 47.5874 30.1482 48.9979L30.097 49.3056H31.2999C31.735 46.5103 31.8374 45.9718 32.5028 46.0487C32.6051 45.4845 32.8099 44.9716 32.9634 44.7152C32.4516 44.6126 32.1701 44.8947 31.8118 45.4332C31.8374 45.2024 31.8885 44.9716 31.8885 44.7408H30.7625Z" fill="white"/>
<path d="M46.3997 48.9469C46.3997 48.7418 46.5532 48.5879 46.758 48.5879C46.9627 48.5879 47.1163 48.7418 47.1163 48.9469C47.1163 49.1521 46.9627 49.3059 46.758 49.3059C46.5788 49.3059 46.3997 49.1521 46.3997 48.9469ZM46.758 49.229C46.9115 49.229 47.0395 49.1008 47.0395 48.9469C47.0395 48.793 46.9115 48.6648 46.758 48.6648C46.6044 48.6648 46.4764 48.793 46.4764 48.9469C46.502 49.1008 46.6044 49.229 46.758 49.229ZM46.7068 49.1008H46.63V48.7931H46.758C46.7835 48.7931 46.8091 48.793 46.8347 48.8187C46.8603 48.8443 46.8859 48.87 46.8859 48.8956C46.8859 48.9213 46.8603 48.9726 46.8347 48.9726L46.8859 49.1008H46.8091L46.758 48.9726H46.7068V49.1008ZM46.7068 48.9213H46.758C46.7835 48.9213 46.7835 48.9213 46.8091 48.9213L46.8347 48.8956C46.8347 48.8956 46.8347 48.87 46.8091 48.87C46.8091 48.87 46.7835 48.87 46.758 48.87H46.7068V48.9213Z" fill="white"/>
</g>
<defs>
<clipPath id="clip0_200_4">
<rect width="57.4419" height="18.9138" fill="white" transform="translate(48.6046 37.5581)"/>
</clipPath>
<clipPath id="clip1_200_4">
<rect width="58.9147" height="44.186" fill="white" transform="translate(0 24.3022)"/>
</clipPath>
</defs>
</svg>
