<svg width="60" height="60" viewBox="0 0 60 60" fill="none" xmlns="http://www.w3.org/2000/svg">
<g clip-path="url(#clip0_213_428)">
<path d="M28.2423 4.69336C22.172 5.14454 16.6349 7.64062 12.2872 11.8887C6.56847 17.4668 3.82628 25.3652 4.83995 33.2988C6.10558 43.2188 13.1017 51.4805 22.7111 54.4043C30.1407 56.666 38.4083 55.3242 44.7071 50.8418C52.4474 45.3281 56.4728 36.1817 55.2775 26.8184C54.0118 16.8984 47.0157 8.63672 37.4064 5.71289C34.547 4.83985 31.213 4.47071 28.2423 4.69336ZM30.1818 20.4492C31.4825 20.5781 32.1329 20.7832 32.4259 21.1641C32.5021 21.2695 32.6251 21.5273 32.6954 21.7383C32.8478 22.1836 32.8536 22.6934 32.7599 26.502C32.7013 28.8809 32.7364 29.6133 32.9298 30.1406C33.1583 30.7441 33.6622 31.0195 34.1075 30.791C34.5118 30.5801 35.4552 29.543 36.0704 28.6231C37.4943 26.5137 38.3614 24.8789 39.4044 22.3535C39.6153 21.8555 39.8966 21.5273 40.1896 21.4512C40.3068 21.416 41.965 21.3867 44.004 21.3809L47.6075 21.3691L47.9122 21.4981C48.3048 21.6738 48.4571 21.9023 48.4571 22.3184C48.4571 23.1094 47.631 24.7324 46.213 26.7188C46.0196 26.9941 45.2872 27.9668 44.59 28.8867C43.0489 30.9141 42.715 31.3887 42.4806 31.8809C42.1876 32.502 42.2579 33.0117 42.7208 33.6152C42.8556 33.7852 43.5353 34.4707 44.2325 35.1387C46.1837 37.0078 47.0685 37.9922 47.7892 39.0703C48.3048 39.8496 48.504 40.4238 48.422 40.916C48.381 41.1856 48.1114 41.5078 47.8068 41.666C47.4435 41.8477 46.8868 41.8828 43.8224 41.9238L40.922 41.9649L40.4532 41.8067C39.2579 41.4082 38.4611 40.7461 36.6505 38.6484C35.6486 37.4883 34.9044 36.9199 34.3888 36.9141C33.9142 36.9141 33.3107 37.5469 33.0528 38.332C32.8771 38.8594 32.8126 39.2637 32.7599 40.1777C32.6954 41.2559 32.5665 41.5078 31.9044 41.7832C31.6642 41.8887 28.6759 41.9238 27.8849 41.8418C26.297 41.666 24.8263 41.168 23.3673 40.3067C21.2521 39.0645 19.9571 37.9512 18.5685 36.1817C16.1544 33.0996 14.5079 30.4746 12.5099 26.5137C11.7364 24.9727 10.8282 22.9805 10.6818 22.5059C10.5353 22.0137 10.7462 21.6094 11.2267 21.457C11.3907 21.4043 12.3048 21.375 14.4142 21.3457L17.3732 21.3164L17.7189 21.4453C18.2638 21.6563 18.4923 21.9258 18.8614 22.8223C19.1778 23.5781 20.8829 27 21.4161 27.9551C21.9611 28.9219 22.5411 29.7305 23.0392 30.2109C23.6544 30.8145 23.9298 30.9609 24.3634 30.9258C24.7325 30.8906 24.8321 30.8086 25.0607 30.3106C25.6173 29.1094 25.7052 25.0488 25.2071 23.4551C24.92 22.5469 24.4923 22.2012 23.3087 21.9492C23.1036 21.9023 23.1036 21.832 23.2911 21.5566C23.7482 20.9004 24.5626 20.584 26.1153 20.4551C26.965 20.3848 29.4845 20.3789 30.1818 20.4492Z" fill="#45668E"/>
</g>
<defs>
<clipPath id="clip0_213_428">
<rect width="60" height="60" fill="white"/>
</clipPath>
</defs>
</svg>
