<svg width="27" height="27" viewBox="0 0 27 27" fill="none" xmlns="http://www.w3.org/2000/svg">
<g id="whatsapp_logo_icon_186881 1" clip-path="url(#clip0_213_93)">
<circle id="Ellipse 54" cx="13.2248" cy="13.5659" r="10.4651" fill="white"/>
<path id="Vector" d="M13.5745 7.16455C12.4815 7.16461 11.4092 7.46236 10.4726 8.02583C9.53606 8.5893 8.77065 9.39722 8.25856 10.3628C7.74648 11.3285 7.50705 12.4153 7.566 13.5067C7.62495 14.5981 7.98004 15.6529 8.59315 16.5577L8.00513 18.8263L10.3695 18.2747C11.1588 18.7713 12.0528 19.0778 12.9809 19.1697C13.9089 19.2616 14.8457 19.1366 15.7171 18.8044C16.5886 18.4723 17.3709 17.9421 18.0023 17.2558C18.6338 16.5694 19.097 15.7457 19.3555 14.8496C19.614 13.9536 19.6607 13.0097 19.4919 12.0925C19.323 11.1753 18.9433 10.3099 18.3827 9.56457C17.822 8.81928 17.0958 8.21451 16.2614 7.79799C15.427 7.38148 14.5071 7.16463 13.5745 7.16455ZM16.5334 16.4671C15.6917 16.8618 13.9346 16.6558 12.0834 15.0716C10.2322 13.4874 9.75731 11.783 10.0171 10.8905C10.2769 9.99809 11.2977 9.83321 11.4902 9.87583C11.6828 9.91845 12.6457 11.445 12.5145 11.6231C12.3833 11.8011 11.7495 12.435 11.7495 12.435C11.7495 12.435 11.7228 13.0835 12.9129 14.102C14.1029 15.1204 14.7395 14.9939 14.7395 14.9939C14.7395 14.9939 15.2678 14.2694 15.4235 14.1125C15.5791 13.9557 17.2362 14.6712 17.308 14.8549C17.3799 15.0385 17.3747 16.0725 16.5331 16.4671H16.5334Z" fill="url(#paint0_linear_213_93)"/>
<path id="Vector_2" d="M13.2248 0.775146C6.1607 0.775146 0.434113 6.50173 0.434113 13.5658C0.434113 20.63 6.1607 26.3565 13.2248 26.3565C20.2889 26.3565 26.0155 20.63 26.0155 13.5658C26.0155 6.50173 20.2889 0.775146 13.2248 0.775146ZM13.5746 20.4584C12.3739 20.4601 11.1916 20.1634 10.1341 19.5949L6.26487 20.5608L7.24491 16.7735C6.45519 15.3823 6.14586 13.7697 6.36477 12.185C6.58369 10.6003 7.31865 9.13192 8.45597 8.00693C9.59329 6.88193 11.0696 6.16303 12.6566 5.9614C14.2435 5.75978 15.8527 6.08667 17.2352 6.89151C18.6178 7.69635 19.6966 8.9343 20.3048 10.4139C20.913 11.8935 21.0168 13.5322 20.6 15.0767C20.1833 16.6212 19.2693 17.9854 17.9993 18.9582C16.7294 19.931 15.1743 20.4582 13.5746 20.4584Z" fill="url(#paint1_linear_213_93)"/>
</g>
<defs>
<linearGradient id="paint0_linear_213_93" x1="1.12114" y1="25.6347" x2="25.4282" y2="1.32765" gradientUnits="userSpaceOnUse">
<stop stop-color="#209142"/>
<stop offset="1" stop-color="#56D263"/>
</linearGradient>
<linearGradient id="paint1_linear_213_93" x1="1.1386" y1="25.6521" x2="25.4457" y2="1.34498" gradientUnits="userSpaceOnUse">
<stop stop-color="#209142"/>
<stop offset="1" stop-color="#56D263"/>
</linearGradient>
<clipPath id="clip0_213_93">
<rect width="25.5814" height="25.5814" fill="white" transform="translate(0.434113 0.775146)"/>
</clipPath>
</defs>
</svg>
