<svg width="30" height="30" viewBox="0 0 30 30" fill="none" xmlns="http://www.w3.org/2000/svg">
<g clip-path="url(#clip0_75_1859)">
<path d="M8.50001 17H17.5C17.777 17 18 17.223 18 17.5C18 17.777 17.777 18 17.5 18H8.50001C8.22301 18 8.00001 17.777 8.00001 17.5C8.00001 17.223 8.22301 17 8.50001 17ZM13 19C11.9 19 11 19.9 11 21C11 22.1 11.9 23 13 23C14.1 23 15 22.1 15 21C15 19.9 14.1 19 13 19ZM13 20C13.558 20 14 20.442 14 21C14 21.558 13.558 22 13 22C12.442 22 12 21.558 12 21C12 20.442 12.442 20 13 20ZM13 12C11.9 12 11 12.9 11 14C11 15.1 11.9 16 13 16C14.1 16 15 15.1 15 14C15 12.9 14.1 12 13 12ZM13 13C13.558 13 14 13.442 14 14C14 14.558 13.558 15 13 15C12.442 15 12 14.558 12 14C12 13.442 12.442 13 13 13ZM25 3C23.9 3 23 3.9 23 5C23 6.1 23.9 7 25 7C26.1 7 27 6.1 27 5C27 3.9 26.1 3 25 3ZM25 4C25.558 4 26 4.442 26 5C26 5.558 25.558 6 25 6C24.442 6 24 5.558 24 5C24 4.442 24.442 4 25 4ZM0.446014 15.67C-0.140986 16.25 -0.136986 17.212 0.446014 17.794L12.206 29.554C12.786 30.136 13.748 30.141 14.329 29.554L28.855 14.85C29.102 14.6 29.387 14.37 29.623 13.994C29.858 13.618 29.999 13.124 29.999 12.45V1.5C29.999 0.677 29.321 0 28.499 0H17.499C16.341 0 15.675 0.624 15.149 1.145L0.446014 15.67ZM1.14901 16.382L15.85 1.856C16.383 1.33 16.658 1 17.5 1H28.5C28.785 1 29 1.214 29 1.5V12.452C29 12.999 28.907 13.257 28.776 13.465C28.646 13.675 28.432 13.859 28.146 14.149L13.616 28.849C13.419 29.049 13.116 29.049 12.913 28.847L1.15301 17.087C0.950014 16.884 0.948014 16.58 1.14901 16.382Z" fill="#FF6969"/>
</g>
<defs>
<clipPath id="clip0_75_1859">
<rect width="30" height="30" fill="white"/>
</clipPath>
</defs>
</svg>
