<svg width="137" height="137" viewBox="0 0 137 137" fill="none" xmlns="http://www.w3.org/2000/svg">
<g filter="url(#filter0_d_75_1866)">
<circle cx="68.5" cy="64.5" r="43.5" fill="white"/>
</g>
<circle cx="68.5" cy="64.5" r="34" stroke="#56575C"/>
<g clip-path="url(#clip0_75_1866)">
<path d="M81.6216 68.8738C81.3197 68.8738 81.0747 68.6289 81.0747 68.3269C81.0747 68.025 81.3197 67.78 81.6216 67.78H84.0391C84.2761 67.78 84.4936 67.6821 84.6498 67.5248C84.807 67.3676 84.905 67.1512 84.905 66.9141V64.0887C84.905 63.8506 84.8082 63.6331 84.652 63.4781L84.6508 63.4769L84.6496 63.4781C84.4924 63.3209 84.276 63.2229 84.039 63.2229H81.6215C81.3481 63.2229 81.1213 63.0212 81.0815 62.7581C80.9175 62.0027 80.6872 61.2725 80.3979 60.5752L80.3865 60.5467C80.0915 59.8381 79.7315 59.1591 79.3179 58.5188C79.1755 58.2989 79.2108 58.0141 79.3897 57.8363L79.3885 57.8352L81.0997 56.124C81.2672 55.9565 81.3503 55.7332 81.3503 55.5122C81.3503 55.29 81.266 55.0667 81.0997 54.9004L79.1024 52.9032C78.935 52.7357 78.7129 52.6514 78.4895 52.6514C78.2662 52.6514 78.0429 52.7346 77.8778 52.901L77.8755 52.8998L77.8767 52.901L76.1666 54.611C75.9719 54.8058 75.6643 54.8218 75.4489 54.66C74.8109 54.2487 74.1342 53.8933 73.4278 53.6016L73.4255 53.6004V53.6016C72.7191 53.3088 71.9775 53.0752 71.2107 52.9123C70.9544 52.8577 70.7778 52.631 70.7778 52.378H70.7766V49.9606C70.7766 49.7224 70.6798 49.5048 70.5236 49.3499L70.5214 49.3476C70.3677 49.1915 70.1511 49.0947 69.9119 49.0947H67.0865C66.8484 49.0947 66.6308 49.1915 66.4758 49.3476L66.4736 49.3499C66.3175 49.5048 66.2206 49.7224 66.2206 49.9606V52.3781C66.2206 52.6515 66.0178 52.8783 65.7547 52.9181C64.9982 53.0833 64.2668 53.3123 63.5718 53.6006V53.6017C62.8507 53.9002 62.1614 54.2636 61.5143 54.6817C61.2967 54.8253 61.0119 54.7888 60.8341 54.61L60.833 54.6111L59.1218 52.901C58.9543 52.7336 58.731 52.6493 58.51 52.6493C58.289 52.6493 58.0656 52.7336 57.8993 52.8999L57.8982 52.901L55.8999 54.8993C55.7335 55.0668 55.6481 55.289 55.6481 55.5111C55.6481 55.7333 55.7324 55.9566 55.8999 56.124L55.9283 56.1548L57.6112 57.8376C57.7958 58.0233 57.8185 58.3082 57.6818 58.5189C57.2637 59.1649 56.9003 59.8542 56.6018 60.5753C56.3079 61.2817 56.0754 62.0222 55.9114 62.7889C55.8567 63.0453 55.6301 63.2219 55.3771 63.2219V63.223H52.9596C52.7215 63.223 52.5061 63.3198 52.3489 63.4748L52.3466 63.4771C52.1906 63.6343 52.0937 63.8508 52.0937 64.0878V66.9132C52.0937 67.1502 52.1917 67.3677 52.3489 67.5239L52.3717 67.5489C52.5243 67.6913 52.7317 67.779 52.9584 67.779H55.376C55.6494 67.779 55.8761 67.9806 55.9159 68.2438C56.08 68.9992 56.3101 69.7296 56.5995 70.4267L56.6109 70.4552C56.906 71.1639 57.266 71.8429 57.6796 72.4831C57.822 72.703 57.7867 72.9878 57.6078 73.1667L57.609 73.1678L55.8989 74.8779C55.7314 75.0454 55.6471 75.2687 55.6471 75.4909C55.6471 75.7131 55.7314 75.9363 55.8989 76.1026L57.8972 78.0998C58.0647 78.2674 58.2868 78.3515 58.509 78.3515C58.7323 78.3515 58.9545 78.2684 59.1208 78.1032L60.8309 76.3919C61.0177 76.2028 61.3106 76.1801 61.5224 76.3236C62.1661 76.7394 62.8531 77.1029 63.572 77.4003L63.5925 77.4093C64.2898 77.6964 65.0246 77.9254 65.7845 78.0883C66.0408 78.143 66.2174 78.3698 66.2174 78.6227H66.2185V81.0402C66.2185 81.2783 66.3154 81.4947 66.4703 81.6519L66.4726 81.6542C66.6298 81.8092 66.8463 81.906 67.0832 81.906H69.9087C70.1457 81.906 70.3632 81.808 70.5194 81.6507L70.5444 81.628C70.6867 81.4743 70.7745 81.2669 70.7745 81.0402V78.6227C70.7745 78.3493 70.9761 78.1226 71.2393 78.0815C71.9947 77.9175 72.725 77.6885 73.421 77.399C74.1421 77.0994 74.8326 76.7359 75.4786 76.3179C75.6985 76.1743 75.9844 76.2108 76.1633 76.3907L76.1747 76.4021L77.8722 78.1008L77.8734 78.0996C78.0409 78.2671 78.263 78.3513 78.4851 78.3513C78.7084 78.3513 78.9319 78.2682 79.0992 78.1019L79.098 78.1007L81.0952 76.1034L81.1191 76.0807C81.2706 75.9167 81.3459 75.7036 81.3459 75.4906C81.3459 75.2685 81.2615 75.0451 81.0952 74.8777L80.6679 74.4504L80.2406 74.0231L79.8134 73.5959L79.786 73.5651L79.3907 73.1675C79.2005 72.9784 79.1789 72.6833 79.3258 72.4714L79.4682 72.2459H79.467L79.6207 71.9896L79.631 71.9725L79.7563 71.7526L79.8987 71.4883L79.9055 71.4769L80.0251 71.2422L80.0239 71.2411L80.1549 70.9699C80.2859 70.6988 80.6118 70.5849 80.8829 70.716C81.1541 70.847 81.2679 71.1727 81.1369 71.4439L81.0059 71.7151H81.0081L81.0025 71.7264L80.8782 71.9703L80.8611 72.0045L80.7187 72.2688L80.7119 72.2801L80.5718 72.5251L80.5569 72.5525L80.467 72.7017L80.5581 72.7928L80.5901 72.8213L81.0174 73.2497L81.4446 73.6769L81.8719 74.1042C82.2524 74.4847 82.4438 74.9883 82.4438 75.4907C82.4438 75.9737 82.2661 76.4579 81.9107 76.8351L81.8731 76.8772L79.8759 78.8744L79.8747 78.8732L79.8735 78.8744C79.4918 79.2548 78.9894 79.4463 78.4904 79.4463C77.988 79.4463 77.4856 79.256 77.1039 78.8744L77.1051 78.8732L77.1039 78.872L75.7015 77.4696C75.1091 77.8273 74.4881 78.1418 73.8445 78.4083C73.2098 78.6716 72.5514 78.8891 71.8735 79.0577V81.04C71.8735 81.5572 71.6684 82.0335 71.3346 82.3844L71.298 82.4242C70.9438 82.7785 70.4515 82.9996 69.9138 82.9996H67.0884C66.5506 82.9996 66.0608 82.7786 65.7053 82.4254L65.703 82.4231C65.3476 82.0676 65.1266 81.5778 65.1266 81.04V79.0554C64.4624 78.8902 63.8141 78.676 63.1875 78.4197L63.1556 78.4083C62.5119 78.1405 61.8898 77.8261 61.2985 77.4696L59.8961 78.872L59.8938 78.8743C59.5122 79.2547 59.0097 79.4461 58.5107 79.4461C58.0083 79.4461 57.5059 79.2559 57.1253 78.8743L55.1274 76.8772C54.7468 76.4967 54.5555 75.9931 54.5555 75.4907C54.5555 74.9883 54.7469 74.4847 55.1274 74.1042L56.5321 72.6995C56.1823 72.1185 55.8713 71.5067 55.607 70.8721L55.5945 70.8448C55.3313 70.2091 55.1125 69.5495 54.9439 68.8727H52.9596C52.4424 68.8727 51.9672 68.6677 51.6152 68.3339L51.5754 68.2973C51.221 67.943 51 67.452 51 66.9131V64.0877C51 63.5499 51.221 63.0612 51.5753 62.7057L51.5776 62.7034C51.933 62.349 52.4218 62.1281 52.9596 62.1281H54.9431C55.1117 61.4501 55.3304 60.7905 55.5936 60.1559C55.8602 59.5134 56.1747 58.8925 56.5313 58.3L55.1573 56.9249L55.1266 56.8976C54.746 56.517 54.5547 56.0123 54.5547 55.5111C54.5547 55.0098 54.7461 54.5062 55.1266 54.1257L57.1249 52.1286L57.126 52.1274C57.5065 51.7457 58.009 51.5555 58.5103 51.5555C59.0115 51.5555 59.5151 51.7458 59.8956 52.1274L59.8968 52.1286L61.3004 53.5322C61.8917 53.1756 62.5126 52.8611 63.1551 52.5945V52.5956L63.1574 52.5945C63.7931 52.3313 64.4528 52.1125 65.1273 51.9451V49.9604C65.1273 49.4238 65.3471 48.9339 65.7026 48.5784L65.7049 48.5761C66.0602 48.2209 66.5512 48.001 67.0867 48.001H69.9121C70.4487 48.001 70.9386 48.2209 71.294 48.5763L71.2963 48.5786C71.6518 48.934 71.8717 49.424 71.8717 49.9606V51.9441C72.5496 52.1127 73.2093 52.3315 73.8438 52.5947V52.5958C74.4885 52.8636 75.1083 53.1768 75.6973 53.5323L77.1021 52.1287L77.1033 52.1298C77.486 51.7471 77.9885 51.5568 78.4875 51.5568C78.9899 51.5568 79.4923 51.7471 79.874 52.1287L81.8712 54.1258C82.2516 54.5075 82.4431 55.0099 82.4431 55.5123C82.4431 56.0136 82.2529 56.5172 81.8712 56.8977L80.4665 58.3024C80.8162 58.8835 81.1273 59.4941 81.3916 60.1299L81.4041 60.1572C81.6674 60.7929 81.8861 61.4525 82.0547 62.1293H84.0393C84.5782 62.1293 85.0692 62.3503 85.4235 62.7046L85.4224 62.7058C85.7778 63.0613 86 63.5523 86 64.0889V66.9143C86 67.4532 85.779 67.9442 85.4235 68.2986C85.0692 68.6529 84.577 68.8739 84.0393 68.8739L81.6216 68.8738ZM63.5948 77.4104L63.8682 78.1134C63.981 77.8434 63.8591 77.5324 63.5948 77.4104ZM79.3271 72.4716L79.3886 72.3965C79.3659 72.4192 79.3442 72.4443 79.3271 72.4716ZM79.907 71.4771L80.1018 71.2777C80.0232 71.3244 79.956 71.3917 79.907 71.4771Z" fill="#FF6969"/>
<path d="M68.4994 58.5962C70.4065 58.5962 72.1337 59.3697 73.3811 60.6184C74.6298 61.8671 75.4033 63.5931 75.4033 65.5003C75.4033 67.4063 74.6298 69.1333 73.3811 70.382C72.1324 71.6307 70.4054 72.4042 68.4994 72.4042C66.5922 72.4042 64.865 71.6307 63.6164 70.3821C62.3689 69.1334 61.5954 67.4073 61.5954 65.5003C61.5954 63.5942 62.3689 61.8659 63.6164 60.6173C64.8662 59.3697 66.5934 58.5962 68.4994 58.5962ZM72.6088 61.392C71.5584 60.3415 70.1046 59.6898 68.5005 59.6898C66.8964 59.6898 65.4427 60.3404 64.3923 61.3908C63.3419 62.4412 62.6913 63.895 62.6913 65.5002C62.6913 67.1043 63.3419 68.5568 64.3923 69.6085C65.4427 70.6589 66.8964 71.3105 68.5005 71.3105C70.1046 71.3105 71.5584 70.6589 72.6088 69.6085C73.6592 68.5581 74.3109 67.1043 74.3109 65.5002C74.3097 63.8961 73.6592 62.4435 72.6088 61.392Z" fill="#FF6969"/>
<path d="M68.4994 61.4219C69.6261 61.4219 70.6469 61.8788 71.3829 62.6158C72.12 63.3529 72.5779 64.3738 72.5779 65.5005C72.5779 66.6227 72.1211 67.6424 71.3829 68.3818L71.3817 68.3829L71.3805 68.3841L71.3793 68.3853C70.6399 69.1236 69.6215 69.5792 68.4993 69.5792C67.3726 69.5792 66.3529 69.1225 65.6146 68.3842C64.8775 67.6471 64.4207 66.6263 64.4207 65.5007C64.4207 64.3762 64.8776 63.3554 65.6146 62.6183L65.6169 62.616C66.3552 61.8788 67.3761 61.4219 68.4994 61.4219ZM70.6105 63.3894C70.0716 62.8505 69.3242 62.5156 68.5004 62.5156C67.6767 62.5156 66.9294 62.8482 66.3893 63.3871L66.387 63.3894C65.8493 63.9294 65.5155 64.6768 65.5155 65.5005C65.5155 66.3241 65.8504 67.0716 66.3893 67.6104C66.9293 68.1505 67.6755 68.4854 68.5003 68.4854C69.3263 68.4854 70.0725 68.1516 70.6104 67.614L70.6127 67.6117C71.1515 67.074 71.4841 66.3265 71.4841 65.5016C71.4841 64.6768 71.1494 63.9295 70.6105 63.3894Z" fill="#FF6969"/>
</g>
<defs>
<filter id="filter0_d_75_1866" x="0" y="0" width="137" height="137" filterUnits="userSpaceOnUse" color-interpolation-filters="sRGB">
<feFlood flood-opacity="0" result="BackgroundImageFix"/>
<feColorMatrix in="SourceAlpha" type="matrix" values="0 0 0 0 0 0 0 0 0 0 0 0 0 0 0 0 0 0 127 0" result="hardAlpha"/>
<feOffset dy="4"/>
<feGaussianBlur stdDeviation="12.5"/>
<feComposite in2="hardAlpha" operator="out"/>
<feColorMatrix type="matrix" values="0 0 0 0 0.86125 0 0 0 0 0.865667 0 0 0 0 0.883333 0 0 0 0.85 0"/>
<feBlend mode="normal" in2="BackgroundImageFix" result="effect1_dropShadow_75_1866"/>
<feBlend mode="normal" in="SourceGraphic" in2="effect1_dropShadow_75_1866" result="shape"/>
</filter>
<clipPath id="clip0_75_1866">
<rect width="35" height="35" fill="white" transform="translate(51 48)"/>
</clipPath>
</defs>
</svg>
