<svg width="87" height="87" viewBox="0 0 87 87" fill="none" xmlns="http://www.w3.org/2000/svg">
<circle cx="43.5" cy="43.5" r="43.5" fill="#FF7878"/>
<circle cx="43.5" cy="43.5" r="34.5" fill="white"/>
<path d="M47.6707 26.6285C47.3548 26.7286 47.1108 26.9432 45.4814 28.5524L43.6511 30.362L43.2348 30.3977C42.7539 30.4478 42.1653 30.691 41.8136 31.0057L41.5552 31.2274L36.1432 31.2489L30.7312 31.2703L30.1929 31.4634C29.109 31.8568 28.2621 32.6078 27.7524 33.6091C26.8696 35.3615 27.1854 37.3641 28.5563 38.7374C29.0373 39.2166 29.5684 39.5456 30.279 39.8031L30.803 39.9962L35.1312 40.0176L39.4521 40.0391V41.2192V42.3922H33.4946C27.6304 42.3922 27.5371 42.3922 27.3936 42.5353C27.25 42.6783 27.25 42.7713 27.25 46.8839C27.25 50.8749 27.2572 51.1038 27.3792 51.2111C27.494 51.3112 27.6878 51.3327 28.6353 51.3327C29.7335 51.3327 29.755 51.3327 29.8053 51.49C29.834 51.583 29.9775 51.8548 30.1354 52.098C30.7743 53.1064 31.8868 53.8217 33.1501 54.0362C33.7746 54.1435 33.8822 54.1435 34.5354 54.0362C35.9135 53.8074 37.1409 52.9634 37.7295 51.819L37.9807 51.3327L44.6201 51.3398H51.2595L51.4677 51.7832C51.7189 52.3054 52.5874 53.2137 53.1257 53.507C53.3267 53.6142 53.7287 53.7859 54.0229 53.886C54.9919 54.2222 56.3988 54.1221 57.3175 53.6572C58.1789 53.228 58.9541 52.4556 59.356 51.633L59.5067 51.3327H61.6313C63.6052 51.3327 63.7703 51.3255 63.878 51.2039C63.9856 51.0895 64 50.8749 64 49.6733C64 48.0354 64 48.0354 63.2822 47.9854L62.8516 47.9567V45.3318V42.7069L61.8036 39.3525C61.2294 37.5072 60.6839 35.8478 60.5906 35.669C60.3106 35.1183 59.7795 34.4746 59.3129 34.1313C58.7746 33.7236 58.5162 33.5877 57.863 33.3731L57.3606 33.2015L52.731 33.18C50.1829 33.1657 47.9937 33.18 47.8645 33.2015C47.4123 33.2873 47.4194 33.2372 47.4194 38.0651V42.3922H46.8165H46.2064L46.1849 40.6184L46.1633 38.8447L45.8906 38.2868C45.5748 37.6502 45.0508 37.0923 44.5053 36.7991C43.7588 36.3986 43.6224 36.3843 39.6531 36.3843H36.014V35.6333V34.8823H38.7774H41.548L41.8208 35.0968C43.5219 36.4415 46.0126 35.4831 46.2423 33.3946L46.2854 32.9869L48.0295 31.2346C49.0344 30.2261 49.8312 29.3607 49.9173 29.1962C50.3767 28.2878 50.0178 27.172 49.1134 26.7143C48.733 26.5212 48.1229 26.4854 47.6707 26.6285ZM48.6038 27.6942C48.9339 27.8587 49.1134 28.252 48.9914 28.5739C48.9555 28.6812 48.2521 29.4322 47.441 30.2404L45.9624 31.7209L45.7398 31.4277C45.6178 31.2632 45.381 31.0272 45.2159 30.9056L44.9216 30.6838L46.4433 29.1747C47.2759 28.3522 48.008 27.6584 48.0654 27.6369C48.2521 27.5726 48.3597 27.5869 48.6038 27.6942ZM44.1751 31.5636C45.1656 31.9713 45.4743 33.2158 44.7852 34.0168C44.3617 34.5103 43.8234 34.7106 43.242 34.589C42.0146 34.3244 41.5552 32.8081 42.4381 31.9212C42.8831 31.4778 43.6152 31.3276 44.1751 31.5636ZM32.4539 32.4147C33.4085 32.665 34.1622 33.2873 34.6144 34.2099C34.8656 34.7106 34.8943 34.825 34.9158 35.4545C34.9445 36.0338 34.9158 36.2412 34.7938 36.6203C34.3918 37.8219 33.3654 38.6945 32.1021 38.9019C30.5733 39.1522 29.0085 38.1723 28.463 36.6274C28.2405 35.998 28.2908 34.9395 28.5635 34.3458C29.2885 32.7866 30.8676 32.007 32.4539 32.4147ZM40.9236 33.0584V33.8094H38.2894H35.6623L35.4326 33.4089C35.3106 33.1872 35.0594 32.8438 34.8799 32.6579L34.5498 32.3074H37.7367H40.9236V33.0584ZM57.6262 34.4317C58.466 34.7464 59.1694 35.34 59.5642 36.0696C59.7292 36.3843 61.8467 43.0145 61.8467 43.229C61.8467 43.3006 61.538 43.322 60.5403 43.322C59.4278 43.322 59.2196 43.3363 59.1048 43.4436C58.9899 43.5438 58.9756 43.6868 58.9756 44.8026C58.9756 46.4404 58.8536 46.326 60.5547 46.326H61.8467V47.1485V47.971H60.6695H59.4852L59.2555 47.5419C58.1717 45.5178 55.5016 44.681 53.4128 45.7109C52.5515 46.1401 51.805 46.8696 51.4174 47.6635L51.2667 47.971H49.8814H48.4961V41.1048V34.2314L52.8602 34.2529C57.1309 34.2743 57.2242 34.2815 57.6262 34.4317ZM40.0335 37.8862C39.8828 38.1223 39.7105 38.4584 39.6603 38.6372L39.567 38.9591H37.062H34.5569L34.8943 38.58C35.0809 38.3798 35.3321 38.0364 35.447 37.829L35.6623 37.4571H37.9879H40.3135L40.0335 37.8862ZM43.8019 37.7003C44.2612 37.9149 44.6847 38.3225 44.9144 38.7874C45.0795 39.1236 45.0867 39.2094 45.1082 40.7615L45.1297 42.3922H42.8257H40.5145L40.5432 40.833C40.5647 39.3382 40.5719 39.2667 40.7513 38.8876C41.0743 38.1938 41.5337 37.8004 42.273 37.5572C42.675 37.4213 43.3281 37.4857 43.8019 37.7003ZM47.4912 45.7181V47.971H42.7252H37.952L37.7151 47.5205C37.428 46.9769 36.6241 46.1472 36.0786 45.8468C34.7866 45.1173 33.2219 45.0744 31.8581 45.7252C31.1834 46.0471 30.279 46.9125 29.9417 47.5562L29.7263 47.971H28.9942H28.2549V45.7181V43.4651H37.873H47.4912V45.7181ZM61.7749 44.824V45.2532H60.9136H60.0522V44.824V44.3949H60.9136H61.7749V44.824ZM34.5139 46.4047C36.215 46.7552 37.4352 48.4789 37.1625 50.1454C37.0404 50.8892 36.739 51.4757 36.1935 52.0193C35.6551 52.5557 35.0737 52.8561 34.3488 52.9777C32.1955 53.3425 30.1713 51.3183 30.5374 49.1726C30.8676 47.2773 32.662 46.0185 34.5139 46.4047ZM56.1404 46.4333C58.0999 46.9483 59.1766 48.9438 58.509 50.832C58.0066 52.2553 56.3414 53.2423 54.8771 52.9848C52.1352 52.5056 51.0729 49.2656 53.0181 47.3273C53.8722 46.4762 55.0207 46.1472 56.1404 46.4333ZM29.4392 49.6519V50.2598H28.8506H28.2549V49.6519V49.0439H28.8506H29.4392V49.6519ZM50.9509 49.6519L50.9293 50.2598H44.5986H38.2678V49.6519V49.0439H44.6201H50.9724L50.9509 49.6519ZM62.9305 49.0725C62.9449 49.0868 62.952 49.3658 62.9377 49.6805L62.909 50.2598H61.3514H59.7938L59.7867 49.6519V49.0439H61.3442C62.1984 49.0439 62.9162 49.0582 62.9305 49.0725Z" fill="#171920"/>
<path d="M30.9896 33.6021C30.1354 33.8524 29.5541 34.632 29.5469 35.5547C29.5469 36.1841 29.6474 36.4988 29.9704 36.9279C30.3651 37.45 30.9178 37.7075 31.6284 37.7075C32.095 37.7075 32.2385 37.6789 32.5974 37.4929C33.9109 36.8206 34.1263 35.0039 33.0137 34.0241C32.5041 33.5806 31.6787 33.409 30.9896 33.6021ZM32.0519 34.7035C32.4251 34.8895 32.6333 35.2114 32.6333 35.5833C32.6333 36.6418 31.37 37.0424 30.7886 36.1769C30.5661 35.8479 30.5661 35.3329 30.7814 35.0612C31.1188 34.6249 31.6356 34.4818 32.0519 34.7035Z" fill="#171920"/>
<path d="M50.025 35.5259C49.7379 35.6404 49.702 35.9765 49.7307 38.5013C49.7522 40.7185 49.7594 40.883 49.8886 41.0261C50.025 41.1763 50.0393 41.1763 54.7551 41.1763C59.3847 41.1763 59.478 41.1763 59.6216 41.0332C59.7005 40.9545 59.7651 40.8043 59.7651 40.7042C59.7651 40.4539 58.71 37.0708 58.5019 36.6703C58.2937 36.2483 57.8774 35.8621 57.4324 35.6547C57.0735 35.4902 57.0591 35.4902 53.6282 35.4759C51.7046 35.4687 50.1111 35.4902 50.025 35.5259ZM57.0089 36.6774C57.1812 36.7561 57.3893 36.9278 57.4683 37.0637C57.5831 37.2496 58.4732 39.9032 58.4732 40.0605C58.4732 40.082 56.7433 40.1034 54.6331 40.1034H50.793V38.3153V36.5272H53.7502C56.5926 36.5272 56.7146 36.5344 57.0089 36.6774Z" fill="#171920"/>
<path d="M42.4668 38.7446C42.3448 38.8662 42.3232 38.9806 42.3232 39.5242C42.3232 40.1322 42.3304 40.1751 42.5099 40.311C42.7611 40.5112 43.0051 40.4969 43.2205 40.2824C43.3784 40.1322 43.3999 40.0463 43.3999 39.5671C43.3999 39.045 43.3281 38.7661 43.1559 38.6588C42.9979 38.5515 42.6104 38.6016 42.4668 38.7446Z" fill="#171920"/>
<path d="M33.2793 47.606C32.662 47.8063 32.2026 48.1925 31.9083 48.7576C31.772 49.0151 31.7361 49.1939 31.7361 49.6516C31.7361 50.5743 32.1237 51.218 32.9061 51.5971C33.2434 51.7616 33.4085 51.7973 33.8535 51.7902C34.5067 51.7902 34.923 51.6257 35.3608 51.1894C35.7987 50.7531 35.9638 50.3382 35.9638 49.6874C35.9638 48.8076 35.569 48.1496 34.8153 47.7849C34.399 47.5846 33.6238 47.4916 33.2793 47.606ZM34.1909 48.6932C34.6718 48.872 34.9804 49.4084 34.8799 49.9019C34.8225 50.2095 34.3775 50.6529 34.0688 50.7102C33.5233 50.8246 32.9132 50.4098 32.8127 49.8733C32.6692 49.108 33.4731 48.4214 34.1909 48.6932Z" fill="#171920"/>
<path d="M54.6331 47.6634C54.0947 47.8493 53.499 48.4644 53.3339 49.008C52.853 50.6745 54.3029 52.1979 55.9322 51.7259C57.418 51.2967 57.9851 49.5945 57.0448 48.3571C56.528 47.6705 55.4872 47.3773 54.6331 47.6634ZM55.9538 48.8077C56.6213 49.3084 56.5423 50.2382 55.803 50.603C55.4083 50.8032 55.0566 50.7675 54.7336 50.4957C54.1306 49.9879 54.188 49.1653 54.8556 48.772C55.1929 48.5789 55.6595 48.5932 55.9538 48.8077Z" fill="#171920"/>
</svg>
