<svg width="69" height="69" viewBox="0 0 69 69" fill="none" xmlns="http://www.w3.org/2000/svg">
<circle cx="34.5" cy="34.5" r="34.5" fill="white"/>
<path d="M38.6707 17.6285C38.3548 17.7286 38.1108 17.9432 36.4814 19.5524L34.6511 21.362L34.2348 21.3977C33.7539 21.4478 33.1653 21.691 32.8136 22.0057L32.5552 22.2274L27.1432 22.2489L21.7312 22.2703L21.1929 22.4634C20.109 22.8568 19.2621 23.6078 18.7524 24.6091C17.8696 26.3615 18.1854 28.3641 19.5563 29.7374C20.0373 30.2166 20.5684 30.5456 21.279 30.8031L21.803 30.9962L26.1312 31.0176L30.4521 31.0391V32.2192V33.3922H24.4946C18.6304 33.3922 18.5371 33.3922 18.3936 33.5353C18.25 33.6783 18.25 33.7713 18.25 37.8839C18.25 41.8749 18.2572 42.1038 18.3792 42.2111C18.494 42.3112 18.6878 42.3327 19.6353 42.3327C20.7335 42.3327 20.755 42.3327 20.8053 42.49C20.834 42.583 20.9775 42.8548 21.1354 43.098C21.7743 44.1064 22.8868 44.8217 24.1501 45.0362C24.7746 45.1435 24.8822 45.1435 25.5354 45.0362C26.9135 44.8074 28.1409 43.9634 28.7295 42.819L28.9807 42.3327L35.6201 42.3398H42.2595L42.4677 42.7832C42.7189 43.3054 43.5874 44.2137 44.1257 44.507C44.3267 44.6142 44.7287 44.7859 45.0229 44.886C45.9919 45.2222 47.3988 45.1221 48.3175 44.6572C49.1789 44.228 49.9541 43.4556 50.356 42.633L50.5067 42.3327H52.6313C54.6052 42.3327 54.7703 42.3255 54.878 42.2039C54.9856 42.0895 55 41.8749 55 40.6733C55 39.0354 55 39.0354 54.2822 38.9854L53.8516 38.9567V36.3318V33.7069L52.8036 30.3525C52.2294 28.5072 51.6839 26.8478 51.5906 26.669C51.3106 26.1183 50.7795 25.4746 50.3129 25.1313C49.7746 24.7236 49.5162 24.5877 48.863 24.3731L48.3606 24.2015L43.731 24.18C41.1829 24.1657 38.9937 24.18 38.8645 24.2015C38.4123 24.2873 38.4194 24.2372 38.4194 29.0651V33.3922H37.8165H37.2064L37.1849 31.6184L37.1633 29.8447L36.8906 29.2868C36.5748 28.6502 36.0508 28.0923 35.5053 27.7991C34.7588 27.3986 34.6224 27.3843 30.6531 27.3843H27.014V26.6333V25.8823H29.7774H32.548L32.8208 26.0968C34.5219 27.4415 37.0126 26.4831 37.2423 24.3946L37.2854 23.9869L39.0295 22.2346C40.0344 21.2261 40.8312 20.3607 40.9173 20.1962C41.3767 19.2878 41.0178 18.172 40.1134 17.7143C39.733 17.5212 39.1229 17.4854 38.6707 17.6285ZM39.6038 18.6942C39.9339 18.8587 40.1134 19.252 39.9914 19.5739C39.9555 19.6812 39.2521 20.4322 38.441 21.2404L36.9624 22.7209L36.7398 22.4277C36.6178 22.2632 36.381 22.0272 36.2159 21.9056L35.9216 21.6838L37.4433 20.1747C38.2759 19.3522 39.008 18.6584 39.0654 18.6369C39.2521 18.5726 39.3597 18.5869 39.6038 18.6942ZM35.1751 22.5636C36.1656 22.9713 36.4743 24.2158 35.7852 25.0168C35.3617 25.5103 34.8234 25.7106 34.242 25.589C33.0146 25.3244 32.5552 23.8081 33.4381 22.9212C33.8831 22.4778 34.6152 22.3276 35.1751 22.5636ZM23.4539 23.4147C24.4085 23.665 25.1622 24.2873 25.6144 25.2099C25.8656 25.7106 25.8943 25.825 25.9158 26.4545C25.9445 27.0338 25.9158 27.2412 25.7938 27.6203C25.3918 28.8219 24.3654 29.6945 23.1021 29.9019C21.5733 30.1522 20.0085 29.1723 19.463 27.6274C19.2405 26.998 19.2908 25.9395 19.5635 25.3458C20.2885 23.7866 21.8676 23.007 23.4539 23.4147ZM31.9236 24.0584V24.8094H29.2894H26.6623L26.4326 24.4089C26.3106 24.1872 26.0594 23.8438 25.8799 23.6579L25.5498 23.3074H28.7367H31.9236V24.0584ZM48.6262 25.4317C49.466 25.7464 50.1694 26.34 50.5642 27.0696C50.7292 27.3843 52.8467 34.0145 52.8467 34.229C52.8467 34.3006 52.538 34.322 51.5403 34.322C50.4278 34.322 50.2196 34.3363 50.1048 34.4436C49.9899 34.5438 49.9756 34.6868 49.9756 35.8026C49.9756 37.4404 49.8536 37.326 51.5547 37.326H52.8467V38.1485V38.971H51.6695H50.4852L50.2555 38.5419C49.1717 36.5178 46.5016 35.681 44.4128 36.7109C43.5515 37.1401 42.805 37.8696 42.4174 38.6635L42.2667 38.971H40.8814H39.4961V32.1048V25.2314L43.8602 25.2529C48.1309 25.2743 48.2242 25.2815 48.6262 25.4317ZM31.0335 28.8862C30.8828 29.1223 30.7105 29.4584 30.6603 29.6372L30.567 29.9591H28.062H25.5569L25.8943 29.58C26.0809 29.3798 26.3321 29.0364 26.447 28.829L26.6623 28.4571H28.9879H31.3135L31.0335 28.8862ZM34.8019 28.7003C35.2612 28.9149 35.6847 29.3225 35.9144 29.7874C36.0795 30.1236 36.0867 30.2094 36.1082 31.7615L36.1297 33.3922H33.8257H31.5145L31.5432 31.833C31.5647 30.3382 31.5719 30.2667 31.7513 29.8876C32.0743 29.1938 32.5337 28.8004 33.273 28.5572C33.675 28.4213 34.3281 28.4857 34.8019 28.7003ZM38.4912 36.7181V38.971H33.7252H28.952L28.7151 38.5205C28.428 37.9769 27.6241 37.1472 27.0786 36.8468C25.7866 36.1173 24.2219 36.0744 22.8581 36.7252C22.1834 37.0471 21.279 37.9125 20.9417 38.5562L20.7263 38.971H19.9942H19.2549V36.7181V34.4651H28.873H38.4912V36.7181ZM52.7749 35.824V36.2532H51.9136H51.0522V35.824V35.3949H51.9136H52.7749V35.824ZM25.5139 37.4047C27.215 37.7552 28.4352 39.4789 28.1625 41.1454C28.0404 41.8892 27.739 42.4757 27.1935 43.0193C26.6551 43.5557 26.0737 43.8561 25.3488 43.9777C23.1955 44.3425 21.1713 42.3183 21.5374 40.1726C21.8676 38.2773 23.662 37.0185 25.5139 37.4047ZM47.1404 37.4333C49.0999 37.9483 50.1766 39.9438 49.509 41.832C49.0066 43.2553 47.3414 44.2423 45.8771 43.9848C43.1352 43.5056 42.0729 40.2656 44.0181 38.3273C44.8722 37.4762 46.0207 37.1472 47.1404 37.4333ZM20.4392 40.6519V41.2598H19.8506H19.2549V40.6519V40.0439H19.8506H20.4392V40.6519ZM41.9509 40.6519L41.9293 41.2598H35.5986H29.2678V40.6519V40.0439H35.6201H41.9724L41.9509 40.6519ZM53.9305 40.0725C53.9449 40.0868 53.952 40.3658 53.9377 40.6805L53.909 41.2598H52.3514H50.7938L50.7867 40.6519V40.0439H52.3442C53.1984 40.0439 53.9162 40.0582 53.9305 40.0725Z" fill="#171920"/>
<path d="M21.9896 24.6021C21.1354 24.8524 20.5541 25.632 20.5469 26.5547C20.5469 27.1841 20.6474 27.4988 20.9704 27.9279C21.3651 28.45 21.9178 28.7075 22.6284 28.7075C23.095 28.7075 23.2385 28.6789 23.5974 28.4929C24.9109 27.8206 25.1263 26.0039 24.0137 25.0241C23.5041 24.5806 22.6787 24.409 21.9896 24.6021ZM23.0519 25.7035C23.4251 25.8895 23.6333 26.2114 23.6333 26.5833C23.6333 27.6418 22.37 28.0424 21.7886 27.1769C21.5661 26.8479 21.5661 26.3329 21.7814 26.0612C22.1188 25.6249 22.6356 25.4818 23.0519 25.7035Z" fill="#171920"/>
<path d="M41.025 26.5259C40.7379 26.6404 40.702 26.9765 40.7307 29.5013C40.7522 31.7185 40.7594 31.883 40.8886 32.0261C41.025 32.1763 41.0393 32.1763 45.7551 32.1763C50.3847 32.1763 50.478 32.1763 50.6216 32.0332C50.7005 31.9545 50.7651 31.8043 50.7651 31.7042C50.7651 31.4539 49.71 28.0708 49.5019 27.6703C49.2937 27.2483 48.8774 26.8621 48.4324 26.6547C48.0735 26.4902 48.0591 26.4902 44.6282 26.4759C42.7046 26.4687 41.1111 26.4902 41.025 26.5259ZM48.0089 27.6774C48.1812 27.7561 48.3893 27.9278 48.4683 28.0637C48.5831 28.2496 49.4732 30.9032 49.4732 31.0605C49.4732 31.082 47.7433 31.1034 45.6331 31.1034H41.793V29.3153V27.5272H44.7502C47.5926 27.5272 47.7146 27.5344 48.0089 27.6774Z" fill="#171920"/>
<path d="M33.4668 29.7446C33.3448 29.8662 33.3232 29.9806 33.3232 30.5242C33.3232 31.1322 33.3304 31.1751 33.5099 31.311C33.7611 31.5112 34.0051 31.4969 34.2205 31.2824C34.3784 31.1322 34.3999 31.0463 34.3999 30.5671C34.3999 30.045 34.3281 29.7661 34.1559 29.6588C33.9979 29.5515 33.6104 29.6016 33.4668 29.7446Z" fill="#171920"/>
<path d="M24.2793 38.606C23.662 38.8063 23.2026 39.1925 22.9083 39.7576C22.772 40.0151 22.7361 40.1939 22.7361 40.6516C22.7361 41.5743 23.1237 42.218 23.9061 42.5971C24.2434 42.7616 24.4085 42.7973 24.8535 42.7902C25.5067 42.7902 25.923 42.6257 26.3608 42.1894C26.7987 41.7531 26.9638 41.3382 26.9638 40.6874C26.9638 39.8076 26.569 39.1496 25.8153 38.7849C25.399 38.5846 24.6238 38.4916 24.2793 38.606ZM25.1909 39.6932C25.6718 39.872 25.9804 40.4084 25.8799 40.9019C25.8225 41.2095 25.3775 41.6529 25.0688 41.7102C24.5233 41.8246 23.9132 41.4098 23.8127 40.8733C23.6692 40.108 24.4731 39.4214 25.1909 39.6932Z" fill="#171920"/>
<path d="M45.6331 38.6634C45.0947 38.8493 44.499 39.4644 44.3339 40.008C43.853 41.6745 45.3029 43.1979 46.9322 42.7259C48.418 42.2967 48.9851 40.5945 48.0448 39.3571C47.528 38.6705 46.4872 38.3773 45.6331 38.6634ZM46.9538 39.8077C47.6213 40.3084 47.5423 41.2382 46.803 41.603C46.4083 41.8032 46.0566 41.7675 45.7336 41.4957C45.1306 40.9879 45.188 40.1653 45.8556 39.772C46.1929 39.5789 46.6595 39.5932 46.9538 39.8077Z" fill="#171920"/>
</svg>
