<svg width="35" height="35" viewBox="0 0 35 35" fill="none" xmlns="http://www.w3.org/2000/svg">
<g clip-path="url(#clip0_75_1869)">
<path d="M30.6216 20.8738C30.3197 20.8738 30.0747 20.6289 30.0747 20.3269C30.0747 20.025 30.3197 19.78 30.6216 19.78H33.0391C33.2761 19.78 33.4936 19.6821 33.6498 19.5248C33.807 19.3676 33.905 19.1512 33.905 18.9141V16.0887C33.905 15.8506 33.8082 15.6331 33.652 15.4781L33.6508 15.4769L33.6496 15.4781C33.4924 15.3209 33.276 15.2229 33.039 15.2229H30.6215C30.3481 15.2229 30.1213 15.0212 30.0815 14.7581C29.9175 14.0027 29.6872 13.2725 29.3979 12.5752L29.3865 12.5467C29.0915 11.8381 28.7315 11.1591 28.3179 10.5188C28.1755 10.2989 28.2108 10.0141 28.3897 9.83634L28.3885 9.8352L30.0997 8.12398C30.2672 7.95653 30.3503 7.73321 30.3503 7.51223C30.3503 7.29005 30.266 7.06672 30.0997 6.90041L28.1024 4.90325C27.935 4.73574 27.7129 4.65144 27.4895 4.65144C27.2662 4.65144 27.0429 4.7346 26.8778 4.90096L26.8755 4.89982L26.8767 4.90096L25.1666 6.61104C24.9719 6.80582 24.6643 6.82184 24.4489 6.65999C23.8109 6.24874 23.1342 5.89325 22.4278 5.60159L22.4255 5.60044V5.60159C21.7191 5.30878 20.9775 5.07522 20.2107 4.91234C19.9544 4.85767 19.7778 4.63097 19.7778 4.37802H19.7766V1.96057C19.7766 1.72243 19.6798 1.50483 19.5236 1.3499L19.5214 1.34761C19.3677 1.19154 19.1511 1.09472 18.9119 1.09472H16.0865C15.8484 1.09472 15.6308 1.19154 15.4758 1.34761L15.4736 1.3499C15.3175 1.50483 15.2206 1.72243 15.2206 1.96057V4.37808C15.2206 4.6515 15.0178 4.87826 14.7547 4.91812C13.9982 5.08334 13.2668 5.31232 12.5718 5.60056V5.6017C11.8507 5.90023 11.1614 6.26361 10.5143 6.68172C10.2967 6.82527 10.0119 6.78884 9.83411 6.60995L9.83297 6.61109L8.1218 4.90102C7.9543 4.73357 7.73103 4.64927 7.50999 4.64927C7.28895 4.64927 7.06563 4.73357 6.89932 4.89987L6.89818 4.90102L4.89987 6.89933C4.73351 7.06678 4.64812 7.28896 4.64812 7.51114C4.64812 7.73332 4.73242 7.95659 4.89987 8.12404L4.92835 8.15481L6.6112 9.8376C6.79575 10.0233 6.81851 10.3082 6.68183 10.5189C6.26372 11.1649 5.90028 11.8542 5.60181 12.5753C5.30786 13.2817 5.07544 14.0222 4.91142 14.7889C4.85675 15.0453 4.63005 15.2219 4.3771 15.2219V15.223H1.95959C1.72146 15.223 1.50614 15.3198 1.34893 15.4748L1.34664 15.4771C1.19057 15.6343 1.09375 15.8508 1.09375 16.0878V18.9132C1.09375 19.1502 1.19171 19.3677 1.34893 19.5239L1.37169 19.5489C1.52433 19.6913 1.73169 19.779 1.95839 19.779H4.37596C4.64938 19.779 4.87608 19.9806 4.91594 20.2438C5.08002 20.9992 5.31015 21.7296 5.59952 22.4267L5.6109 22.4552C5.906 23.1639 6.26601 23.8429 6.6796 24.4831C6.822 24.703 6.78672 24.9878 6.60783 25.1667L6.60897 25.1678L4.8989 26.8779C4.73145 27.0454 4.64715 27.2687 4.64715 27.4909C4.64715 27.7131 4.73145 27.9363 4.8989 28.1026L6.89721 30.0998C7.06471 30.2674 7.28684 30.3515 7.50902 30.3515C7.73234 30.3515 7.95447 30.2684 8.12083 30.1032L9.83091 28.3919C10.0177 28.2028 10.3106 28.1801 10.5224 28.3236C11.1661 28.7394 11.8531 29.1029 12.572 29.4003L12.5925 29.4093C13.2898 29.6964 14.0246 29.9254 14.7845 30.0883C15.0408 30.143 15.2174 30.3698 15.2174 30.6227H15.2185V33.0402C15.2185 33.2783 15.3154 33.4947 15.4703 33.6519L15.4726 33.6542C15.6298 33.8092 15.8463 33.906 16.0832 33.906H18.9087C19.1457 33.906 19.3632 33.808 19.5194 33.6507L19.5444 33.628C19.6867 33.4743 19.7745 33.2669 19.7745 33.0402V30.6227C19.7745 30.3493 19.9761 30.1226 20.2393 30.0815C20.9947 29.9175 21.725 29.6885 22.421 29.399C23.1421 29.0994 23.8326 28.7359 24.4786 28.3179C24.6985 28.1743 24.9844 28.2108 25.1633 28.3907L25.1747 28.4021L26.8722 30.1008L26.8734 30.0996C27.0409 30.2671 27.263 30.3513 27.4851 30.3513C27.7084 30.3513 27.9319 30.2682 28.0992 30.1019L28.098 30.1007L30.0952 28.1034L30.1191 28.0807C30.2706 27.9167 30.3459 27.7036 30.3459 27.4906C30.3459 27.2685 30.2615 27.0451 30.0952 26.8777L29.6679 26.4504L29.2406 26.0231L28.8134 25.5959L28.786 25.5651L28.3907 25.1675C28.2005 24.9784 28.1789 24.6833 28.3258 24.4714L28.4682 24.2459H28.467L28.6207 23.9896L28.631 23.9725L28.7563 23.7526L28.8987 23.4883L28.9055 23.4769L29.0251 23.2422L29.0239 23.2411L29.1549 22.9699C29.2859 22.6988 29.6118 22.5849 29.8829 22.716C30.1541 22.847 30.2679 23.1727 30.1369 23.4439L30.0059 23.7151H30.0081L30.0025 23.7264L29.8782 23.9703L29.8611 24.0045L29.7187 24.2688L29.7119 24.2801L29.5718 24.5251L29.5569 24.5525L29.467 24.7017L29.5581 24.7928L29.5901 24.8213L30.0174 25.2497L30.4446 25.6769L30.8719 26.1042C31.2524 26.4847 31.4438 26.9883 31.4438 27.4907C31.4438 27.9737 31.2661 28.4579 30.9107 28.8351L30.8731 28.8772L28.8759 30.8744L28.8747 30.8732L28.8735 30.8744C28.4918 31.2548 27.9894 31.4463 27.4904 31.4463C26.988 31.4463 26.4856 31.256 26.1039 30.8744L26.1051 30.8732L26.1039 30.872L24.7015 29.4696C24.1091 29.8273 23.4881 30.1418 22.8445 30.4083C22.2098 30.6716 21.5514 30.8891 20.8735 31.0577V33.04C20.8735 33.5572 20.6684 34.0335 20.3346 34.3844L20.298 34.4242C19.9438 34.7785 19.4515 34.9996 18.9138 34.9996H16.0884C15.5506 34.9996 15.0608 34.7786 14.7053 34.4254L14.703 34.4231C14.3476 34.0676 14.1266 33.5778 14.1266 33.04V31.0554C13.4624 30.8902 12.8141 30.676 12.1875 30.4197L12.1556 30.4083C11.5119 30.1405 10.8898 29.8261 10.2985 29.4696L8.89609 30.872L8.8938 30.8743C8.51218 31.2547 8.00971 31.4461 7.51073 31.4461C7.00827 31.4461 6.50586 31.2559 6.12532 30.8743L4.12736 28.8772C3.74682 28.4967 3.55546 27.9931 3.55546 27.4907C3.55546 26.9883 3.74687 26.4847 4.12736 26.1042L5.5321 24.6995C5.18233 24.1185 4.87133 23.5067 4.607 22.8721L4.59448 22.8448C4.33129 22.2091 4.11254 21.5495 3.94395 20.8727H1.95959C1.44237 20.8727 0.967244 20.6677 0.615243 20.3339L0.575382 20.2973C0.221037 19.943 0 19.452 0 18.9131V16.0877C0 15.5499 0.221037 15.0612 0.575325 14.7057L0.577612 14.7034C0.933044 14.349 1.42184 14.1281 1.95959 14.1281H3.94309C4.11169 13.4501 4.33043 12.7905 4.59362 12.1559C4.86024 11.5134 5.17466 10.8925 5.5313 10.3L4.15732 8.92492L4.12655 8.89758C3.74602 8.51704 3.55466 8.01235 3.55466 7.51108C3.55466 7.00976 3.74607 6.50621 4.12655 6.12573L6.12487 4.12856L6.12601 4.12742C6.50655 3.74574 7.00896 3.55552 7.51028 3.55552C8.01154 3.55552 8.51509 3.74579 8.89563 4.12742L8.89678 4.12856L10.3004 5.53216C10.8917 5.17558 11.5126 4.8611 12.1551 4.59448V4.59563L12.1574 4.59448C12.7931 4.3313 13.4528 4.11255 14.1273 3.9451V1.9604C14.1273 1.42379 14.3471 0.933907 14.7026 0.578417L14.7049 0.57613C15.0602 0.22087 15.5512 0.000976562 16.0867 0.000976562H18.9121C19.4487 0.000976562 19.9386 0.22087 20.294 0.576302L20.2963 0.578589C20.6518 0.934021 20.8717 1.42396 20.8717 1.96057V3.94413C21.5496 4.11272 22.2093 4.33147 22.8438 4.59465V4.5958C23.4885 4.86356 24.1083 5.17684 24.6973 5.53227L26.1021 4.12868L26.1033 4.12982C26.486 3.74705 26.9885 3.55678 27.4875 3.55678C27.9899 3.55678 28.4923 3.74705 28.874 4.12868L30.8712 6.12584C31.2516 6.50747 31.4431 7.00993 31.4431 7.51234C31.4431 8.01361 31.2529 8.51716 30.8712 8.8977L29.4665 10.3024C29.8162 10.8835 30.1273 11.4941 30.3916 12.1299L30.4041 12.1572C30.6674 12.7929 30.8861 13.4525 31.0547 14.1293H33.0393C33.5782 14.1293 34.0692 14.3503 34.4235 14.7046L34.4224 14.7058C34.7778 15.0613 35 15.5523 35 16.0889V18.9143C35 19.4532 34.779 19.9442 34.4235 20.2986C34.0692 20.6529 33.577 20.8739 33.0393 20.8739L30.6216 20.8738ZM12.5948 29.4104L12.8682 30.1134C12.981 29.8434 12.8591 29.5324 12.5948 29.4104ZM28.3271 24.4716L28.3886 24.3965C28.3659 24.4192 28.3442 24.4443 28.3271 24.4716ZM28.907 23.4771L29.1018 23.2777C29.0232 23.3244 28.956 23.3917 28.907 23.4771Z" fill="#FF6969"/>
<path d="M17.4994 10.5962C19.4065 10.5962 21.1337 11.3697 22.3811 12.6184C23.6298 13.8671 24.4033 15.5931 24.4033 17.5003C24.4033 19.4063 23.6298 21.1333 22.3811 22.382C21.1324 23.6307 19.4054 24.4042 17.4994 24.4042C15.5922 24.4042 13.865 23.6307 12.6164 22.3821C11.3689 21.1334 10.5954 19.4073 10.5954 17.5003C10.5954 15.5942 11.3689 13.8659 12.6164 12.6173C13.8662 11.3697 15.5934 10.5962 17.4994 10.5962ZM21.6088 13.392C20.5584 12.3415 19.1046 11.6898 17.5005 11.6898C15.8964 11.6898 14.4427 12.3404 13.3923 13.3908C12.3419 14.4412 11.6913 15.895 11.6913 17.5002C11.6913 19.1043 12.3419 20.5568 13.3923 21.6085C14.4427 22.6589 15.8964 23.3105 17.5005 23.3105C19.1046 23.3105 20.5584 22.6589 21.6088 21.6085C22.6592 20.5581 23.3109 19.1043 23.3109 17.5002C23.3097 15.8961 22.6592 14.4435 21.6088 13.392Z" fill="#FF6969"/>
<path d="M17.4994 13.4219C18.6261 13.4219 19.6469 13.8788 20.3829 14.6158C21.12 15.3529 21.5779 16.3738 21.5779 17.5005C21.5779 18.6227 21.1211 19.6424 20.3829 20.3818L20.3817 20.3829L20.3805 20.3841L20.3793 20.3853C19.6399 21.1236 18.6215 21.5792 17.4993 21.5792C16.3726 21.5792 15.3529 21.1225 14.6146 20.3842C13.8775 19.6471 13.4207 18.6263 13.4207 17.5007C13.4207 16.3762 13.8776 15.3554 14.6146 14.6183L14.6169 14.616C15.3552 13.8788 16.3761 13.4219 17.4994 13.4219ZM19.6105 15.3894C19.0716 14.8505 18.3242 14.5156 17.5004 14.5156C16.6767 14.5156 15.9294 14.8482 15.3893 15.3871L15.387 15.3894C14.8493 15.9294 14.5155 16.6768 14.5155 17.5005C14.5155 18.3241 14.8504 19.0716 15.3893 19.6104C15.9293 20.1505 16.6755 20.4854 17.5003 20.4854C18.3263 20.4854 19.0725 20.1516 19.6104 19.614L19.6127 19.6117C20.1515 19.074 20.4841 18.3265 20.4841 17.5016C20.4841 16.6768 20.1494 15.9295 19.6105 15.3894Z" fill="#FF6969"/>
</g>
<defs>
<clipPath id="clip0_75_1869">
<rect width="35" height="35" fill="white"/>
</clipPath>
</defs>
</svg>
